<svg width="48" height="50" viewBox="0 0 48 50" fill="none" xmlns="http://www.w3.org/2000/svg">
<path d="M45.1979 35.1458C45.8021 33.4531 46.1875 31.724 46.4115 30.0521C46.4427 31.7448 45.9323 33.5052 45.1979 35.1458ZM45.2448 36.1042C47.3438 31.5677 46.8854 29.2604 46.6563 26.724C46.7031 23.7813 46.3177 21.2969 45.9115 19.9427C45.7917 19.5521 45.6563 19.151 45.5052 18.7396C45.4427 18.401 45.3802 18.0573 45.3177 17.7188C45.2708 17.4792 45.2188 17.25 45.1667 17.0208C45.2865 17.3802 45.4063 17.7396 45.526 18.1094C47.3698 23.9896 48.3646 33.5729 45.2448 36.1042ZM41.9479 42.6927C39.974 44.7083 37.4688 46.3229 34.4531 47.4688C23.6875 51.5573 8.6823 48.0781 3.51042 36.3802C-0.546867 27.1979 0.630216 18.4167 4.38022 12.0313C4.93751 11.5313 5.90105 10.6875 7.1823 9.68229C6.20834 11.1927 5.72397 12.375 5.64584 12.5729C-2.2552 23.599 1.30209 36.6406 9.31251 42.8802C10.2292 43.5938 11.2188 44.1771 12.2552 44.6563C13.875 45.599 15.8385 46.4115 17.6198 46.8854C31.3698 50.0677 38.4427 43.4635 38.4427 43.4635C38.8854 43.3281 39.3021 43.2031 39.7083 43.0781C43.099 41.1302 43.9271 40.2135 45.375 37.349C44.5208 40.4792 42.3021 42.3229 41.9479 42.6927ZM11.8021 4.38021C14.2865 2.89584 17.2188 1.89584 20.4583 1.67188C20.2396 1.74479 20.026 1.82813 19.8073 1.90104C13.9375 2.20313 10.1563 5.625 7.9948 8.51563C6.8698 9.35938 5.92188 10.1302 5.19272 10.7448C7.00522 8.06771 9.28647 5.89063 11.8021 4.38021ZM9.36459 7.52084C11.3229 5.32292 14.224 3.13021 18.276 2.49479C14.9167 3.89063 11.8333 5.77604 9.36459 7.52084ZM12.1354 6.70313C9.96355 7.875 8.07813 9.58854 6.53647 11.6719C6.90105 10.9479 7.48438 9.92708 8.30209 8.82292C11.2344 6.63021 15.3542 3.97396 19.849 2.33854C19.974 2.33334 20.099 2.32292 20.224 2.31771C20.4792 2.30729 20.7292 2.30729 20.9844 2.30729C15.6875 3.20313 12.1354 6.70313 12.1354 6.70313ZM2.71355 32.0208C3.04688 33.3958 3.53647 34.7396 4.17188 36.0313C1.14584 30.3438 0.55209 23.0156 4.01563 16.1146C2.17709 20.4167 1.48438 25.4792 2.36459 30.4688C2.42709 30.6979 2.52084 30.9531 2.58334 31.1823C3.96355 36.1042 6.82292 39.2917 9.72917 41.3385C13.9219 44.4896 19.2135 45.9896 17.4323 45.7135C16.7969 45.599 16.1719 45.474 15.5573 45.3385C14.0156 44.9583 5.12501 40.4167 2.92188 32.5521C2.79167 32.0781 2.59376 31.5208 2.71355 32.0208ZM22.099 1.61979C23.9948 1.64063 25.9792 1.92708 28.0261 2.52084C25.7552 2.07813 23.4531 1.875 21.25 1.86979C21.5313 1.78125 21.8177 1.69792 22.099 1.61979ZM31.5365 1.29688C36.151 2.46875 39.9115 5.84375 42.7761 11.3385C40.2552 7.52604 36.3385 5.03125 31.9948 3.56771C29.1094 2.20313 26.3021 1.47396 23.6406 1.25C26.2708 0.713543 28.9531 0.635418 31.5365 1.29688ZM35.625 5.59375C37.8542 6.77604 39.849 8.31771 41.4375 10.2604C39.4896 8.39063 37.5469 6.84375 35.625 5.59375ZM36.1771 43.9688C34.8646 45.1927 30.5417 46.1094 30.5417 46.1094C30.5417 46.1094 33.5573 44.9844 36.1771 43.9688ZM31.1927 44.9479C31.1927 44.9479 34.2083 43.8177 36.8229 42.8021C35.5156 44.0313 31.1927 44.9479 31.1927 44.9479ZM44.901 36.0729C44.849 40.099 40.1771 42.4844 40.1302 42.4948C39.9219 42.5573 39.6146 42.6823 39.3958 42.7448C40.2761 42.0521 44.1875 38.276 44.901 36.0729ZM44.6927 16.8906C42.6563 12.8385 38.5886 8.20313 30.5469 3.9375C29.9427 3.61979 29.3438 3.34896 28.7552 3.11979C29.8073 3.35417 30.8385 3.64063 31.8542 3.98438C35.4479 5.68229 39.1667 8.38542 42.875 12.3281C43.6719 13.6875 44.2917 15.2031 44.6927 16.8906ZM45.9375 17.9792C45.526 16.6615 45.0781 15.4219 44.6042 14.2552C45.1875 14.9375 45.7708 15.6563 46.3542 16.4063C46.4271 16.5 46.5677 16.5156 46.6615 16.4427C46.7552 16.3698 46.7708 16.2292 46.6979 16.1354C45.8177 15 44.9323 13.9427 44.0469 12.9583C41.0365 6.26042 36.875 2.20313 31.6406 0.869793C28.5052 0.0729188 25.2344 0.333335 22.0781 1.18229C18.1094 1.14583 14.5365 2.23438 11.5781 4.00521C8.63022 5.77604 5.9948 8.44792 4.04167 11.75C3.8073 12.1458 3.69272 12.3646 3.69272 12.3646C0.125008 18.8073 -0.890619 27.4948 3.11459 36.5573C6.97917 45.3021 16.2292 49.5469 25.2031 49.5469C28.4635 49.5469 31.6875 48.9844 34.6094 47.8802C39.8229 45.8958 43.7083 42.3698 45.8438 37.6719C48.3073 32.2552 48.3385 25.625 45.9375 17.9792Z" fill="#5FB1B7"/>
<path d="M24.9844 42.9063C25.5834 43.3542 25.9219 43.4688 25.9376 43.5208C25.9428 43.5469 26.0678 43.6458 26.2761 43.7604C26.4792 43.875 26.7657 44.0052 27.073 44.0885C26.7448 43.849 26.6251 43.7396 26.4532 43.6615C26.2813 43.5729 26.0053 43.5104 25.3178 43.1198C25.2084 43.0521 25.0938 42.9844 24.9844 42.9063ZM27.5209 44.2865C27.9948 44.4792 28.5938 44.4635 28.823 44.1667C28.6719 44.25 28.4792 44.3021 28.2657 44.3229C28.0313 44.3438 27.7709 44.3281 27.5209 44.2865ZM26.6563 43.474C26.6563 43.4844 26.6511 43.4896 26.6459 43.5C26.6459 43.5 26.6719 43.4479 26.6928 43.349C26.7188 43.25 26.7448 43.1042 26.7344 42.9115C26.7136 42.5313 26.5417 41.9271 25.9532 41.3125C25.6303 40.974 25.2448 40.724 24.9532 40.5885C24.6719 40.4583 24.3751 40.4531 24.1615 40.6042C23.948 40.7448 23.8542 41.0573 23.9376 41.401C24.0209 41.7448 24.2605 42.1146 24.5573 42.4219C24.8542 42.7344 25.2084 42.9948 25.5365 43.1771C26.2344 43.5521 26.4323 43.5521 26.5469 43.6146C26.6042 43.6458 26.6511 43.6875 26.7396 43.7604C26.823 43.8333 26.9532 43.9427 27.1407 44.0781C27.1563 44.0938 27.1719 44.1042 27.1928 44.1198C27.4636 44.1823 27.7448 44.2083 27.9844 44.1823C28.1615 44.1615 28.3178 44.1198 28.4428 44.0521C28.5626 43.9896 28.6511 43.901 28.7084 43.8281C28.7396 43.776 28.8178 43.724 28.9167 43.6615C28.8803 43.5 28.7969 43.3542 28.7605 43.2292H28.7553C28.7032 43.0573 29.0834 42.7865 29.4844 42.25C29.6876 41.9896 29.1459 42.9635 29.2136 43.1719C29.2396 43.25 29.3751 44.0208 29.3073 44.1458C29.1563 44.4271 28.8021 44.5573 28.4063 44.5521C28.0105 44.5573 27.5834 44.4219 27.2917 44.2396C26.8855 44.1458 26.5105 43.9844 26.2344 43.8333C25.9636 43.6823 25.7969 43.5521 25.7813 43.5208C25.7657 43.4948 25.6355 43.4271 25.4167 43.2969C25.198 43.1615 24.8803 42.9583 24.5313 42.651C24.1563 42.3333 23.7292 41.875 23.448 41.3698C23.1563 40.8646 23.0886 40.3385 23.2032 40.0781C23.2344 40.0104 23.2761 39.9427 23.3334 39.875C23.4011 39.8229 23.4688 39.7552 23.5678 39.7135C23.6667 39.6719 23.7657 39.625 23.8907 39.6094C23.948 39.599 24.0053 39.5885 24.073 39.5833C24.1355 39.5833 24.2032 39.5833 24.2709 39.5833C24.8073 39.5885 25.4011 39.8177 25.849 40.099C26.3021 40.3854 26.6251 40.7135 26.8126 40.9635C26.9115 41.0833 26.974 41.1875 27.0209 41.2604C27.0573 41.3333 27.0834 41.375 27.0834 41.375C27.0938 41.401 27.0834 41.5 27.0626 41.599C27.0365 41.6875 27.0157 41.7552 27.0053 41.75C27.0001 41.75 27.0001 41.75 27.0001 41.7448C27.0001 41.7448 26.9844 41.7031 26.948 41.6354C26.9167 41.5625 26.8594 41.4635 26.7813 41.349C26.6251 41.1094 26.3438 40.7917 25.9376 40.5104C25.5365 40.2344 24.9948 39.9948 24.5001 39.974C24.4376 39.974 24.3803 39.9688 24.323 39.9688C24.2605 39.974 24.2084 39.9792 24.1511 39.9896C24.0365 40 23.948 40.0365 23.8594 40.0729C23.7709 40.1094 23.7084 40.1667 23.6459 40.2135C23.5938 40.2708 23.5521 40.3385 23.5261 40.3958C23.4428 40.6042 23.4792 40.9948 23.6823 41.3958C23.5886 41.1823 23.5626 40.9635 23.5782 40.7708C23.5938 40.6823 23.6094 40.5885 23.6459 40.5104C23.6928 40.4375 23.7292 40.3594 23.7969 40.3073C24.0313 40.0833 24.4011 40.0573 24.7448 40.1979C25.0573 40.3229 25.4792 40.5729 25.8386 40.9115C26.0886 41.1406 26.3126 41.4271 26.4792 41.7031C26.6407 41.9844 26.7396 42.2604 26.7813 42.4896C26.8698 42.9531 26.7605 43.224 26.8073 43.1458C26.823 43.1198 26.8021 43.1719 26.7605 43.2656C26.7188 43.3542 26.6771 43.4375 26.6563 43.474Z" fill="#AFDADD"/>
<path d="M3.97388 12.75C4.10408 12.5104 4.2395 12.2708 4.38013 12.0313C4.93742 11.5313 5.90096 10.6875 7.18221 9.68229C6.20825 11.1927 5.72388 12.375 5.64575 12.5729C5.09367 13.3437 4.59367 14.125 4.15096 14.9167C4.52075 16.4948 5.27596 17.625 5.32804 18.2031C5.45304 19.5469 6.48429 19.849 7.88013 20.5833C9.28117 21.3125 11.3489 21.9271 12.8645 22.8385C14.3853 23.7552 12.1978 23.8177 12.1353 25.6458C12.078 27.474 13.901 29.1875 15.2395 32.5417C16.5728 35.8958 17.7447 37.8802 17.5468 40.2708C17.4583 41.3125 20.526 42.974 21.1926 42.7917C21.8645 42.6042 21.6197 41.5104 21.5572 40.4688C21.4999 39.4323 22.651 33.6979 23.9895 33.0313C25.328 32.3594 24.4739 30.3438 24.5051 27.901C24.5364 25.4635 22.5312 26.6823 21.5572 25.1563C20.5885 23.6302 19.1874 22.0469 15.7239 22.4115C14.6562 22.526 14.0833 22.651 13.7916 22.75C13.7864 22.7396 13.7812 22.724 13.7812 22.7083C13.5937 22.1458 13.5364 20.2188 13.4114 18.6927C13.2916 17.1667 13.1093 15.4583 15.7864 14.5417C18.4583 13.625 19.6145 13.75 23.1405 12.4063C26.6666 11.0625 22.4687 8.38021 20.6458 7.95313C18.8228 7.52604 17.2447 8.38021 16.5103 7.58854C15.7864 6.79167 18.401 4.35417 18.401 4.35417C18.401 4.35417 17.8541 3.92187 16.9114 3.57292C13.9478 4.91667 12.1353 6.70313 12.1353 6.70313C9.96346 7.875 8.07804 9.58854 6.53638 11.6719C6.90096 10.9479 7.48429 9.92708 8.302 8.82292C10.5833 7.11979 13.5676 5.14062 16.8958 3.57292C16.7187 3.50521 16.5155 3.44271 16.3072 3.38021C13.7135 4.63542 11.3437 6.125 9.3645 7.52083C10.8489 5.85417 12.8749 4.1875 15.5312 3.20833C15.2395 3.15625 14.9218 3.13021 14.5989 3.11979C11.5885 4.4375 9.43221 6.59375 7.99471 8.51563C6.86971 9.35937 5.92179 10.1302 5.19263 10.7448C7.00513 8.06771 9.28638 5.89063 11.802 4.38021C12.5989 3.90625 13.4478 3.47396 14.328 3.10938C13.9114 3.10938 13.4635 3.15104 12.9999 3.23438C12.5103 3.47396 12.0416 3.72917 11.578 4.00521C8.69263 5.73958 6.10929 8.32813 4.17179 11.5365C4.06763 11.9531 3.99992 12.3646 3.97388 12.75Z" fill="#BADE46"/>
<path d="M46.4895 23.0573C45.8229 23.1927 45.2916 23.1667 45.2916 23.1667C45.2916 23.1667 44.625 22.2813 43.9218 21.2396C43.2239 20.2031 42.5156 17.375 42.0104 17.3698C40.9739 17.3542 41.3385 17.125 39.6354 16.8802C37.9375 16.6354 38.7864 18.5938 37.4531 17.125C36.1145 15.6615 36.7187 13.8281 33.8645 15.0469C31.0052 16.2708 28.2135 17.0625 29.1823 20.6615C30.1562 24.2604 30.7656 27.25 33.0104 26.5208C35.2604 25.7865 36.5989 25.3021 37.2083 26.8854C37.8125 28.474 37.9375 30.3021 37.7552 31.7083C37.5729 33.1094 37.5104 34.8177 38.177 35.7917C38.8489 36.7708 37.2656 38.7188 39.7604 37.8073C42.2552 36.8906 42.8593 35.3646 43.2864 34.3281C43.7135 33.2917 44.1354 32.7448 44.4427 31.7083C44.7448 30.6719 44.2604 28.2292 44.4427 27.4375C44.6145 26.6719 45.3593 25.974 46.651 25.5938C46.6354 24.6875 46.5729 23.8281 46.4895 23.0573Z" fill="#BADE46"/>
<path d="M47.1666 22.8646C47.026 22.9219 46.8333 22.9844 46.6926 23.0208C46.8437 23.8438 46.9583 24.6511 47.0416 25.4479C47.203 25.3594 47.3905 25.1979 47.5051 25.0469C47.4166 24.3281 47.3072 23.6094 47.1666 22.8646Z" fill="#BADE46"/>
<path d="M46.5311 22.1406C46.6041 21.8542 46.703 21.401 46.7707 20.9948C46.5364 20.0052 46.2603 19 45.9374 17.974C45.5259 16.6562 45.078 15.4219 44.6041 14.2552C45.1874 14.9375 45.7707 15.6562 46.3541 16.4062C46.427 16.5 46.5676 16.5156 46.6614 16.4427C46.7551 16.3698 46.7707 16.2292 46.6978 16.1354C45.9739 15.2031 45.2499 14.3281 44.5207 13.4948C44.1405 13.5833 43.8853 13.7448 43.703 13.9427C44.1093 14.8594 44.4426 15.8437 44.6926 16.8906C44.3072 16.125 43.8489 15.3333 43.302 14.5312C43.0468 14.9687 42.8124 15.2708 41.8853 14.8385C39.8801 13.8906 40.9166 12.4583 41.6145 12.8229C42.2395 13.151 42.328 14.0885 42.7186 13.7031C41.1718 11.6354 39.0416 9.48437 36.0989 7.36458C35.828 7.61979 34.9166 8.60416 35.8072 9.49999C36.8436 10.5365 36.9322 12.2448 35.427 11.4479C33.9218 10.6562 34.5936 9.49999 33.3176 9.86458C32.0416 10.2292 31.7968 10.901 32.2239 11.2083C32.6509 11.5104 33.3801 11.4896 33.9218 11.6562C34.4686 11.8177 35.2603 12.2448 34.7134 12.6094C34.1666 12.974 32.1614 13.3437 32.8905 13.7083C33.6197 14.0729 34.5936 13.3437 35.6249 13.7083C36.6614 14.0729 36.9634 13.401 37.5103 14.0729C38.0572 14.7448 38.2551 15.5521 37.9218 15.5365C37.5884 15.5208 37.3749 15.5833 37.4634 15.7344C37.5572 15.8906 38.2551 16.0104 38.3176 15.8281C38.3749 15.6458 38.4999 14.6979 38.177 14.2083C37.8593 13.724 38.3957 13.875 38.4634 14.0104C38.5311 14.151 38.8905 14.4062 38.8905 14.4062C38.8905 14.4062 38.8801 14.7448 39.0155 14.8802C39.1509 15.0208 39.4426 15.1562 39.4426 15.1562L39.5155 15.5677C39.5155 15.5677 39.3801 15.9062 39.6249 15.9167C39.8697 15.9375 40.2916 15.9792 40.2134 15.5833C40.1405 15.1875 39.7916 15.0677 40.2239 15.0677C40.6561 15.0677 40.2603 15.0469 40.8228 15.5365C41.3853 16.026 41.5989 16.1042 42.177 16.0885C42.7551 16.0729 42.9999 15.9479 43.0572 16.3594C43.1197 16.7708 42.9791 17.0781 42.953 17.401C42.9218 17.7187 42.677 17.7656 42.9061 18.2083C43.1353 18.6458 43.0884 18.4219 43.5416 19.0781C43.9999 19.7344 45.1718 21.8854 45.3072 22.276C45.4426 22.6667 45.8332 23.25 46.2864 22.7917C46.3228 22.75 46.3749 22.6562 46.4218 22.5052C46.2864 21.4531 46.0989 20.5729 45.9114 19.9427C45.7916 19.5521 45.6561 19.151 45.5051 18.7396C45.4426 18.401 45.3801 18.0573 45.3176 17.7187C45.2707 17.4792 45.2186 17.25 45.1666 17.0208C45.2864 17.3802 45.4061 17.7396 45.5259 18.1094C45.9426 19.4531 46.2655 20.8594 46.5311 22.1406Z" fill="#BADE46"/>
<path d="M42.776 11.3385C42.6094 11.0937 42.4427 10.849 42.2656 10.6146C42.0781 10.4375 41.8646 10.2448 41.6146 10.0469C41.3021 9.79688 40.9687 9.55729 40.625 9.33854C40.9063 9.63542 41.1771 9.94271 41.4375 10.2604C40.9896 9.82813 40.5521 9.42708 40.1042 9.03125C39.5313 8.69792 38.9375 8.39583 38.4062 8.15625C39.8906 9.35417 41.3854 10.7396 42.875 12.3281C42.9844 12.5156 43.0937 12.7135 43.1979 12.9063C43.3854 12.3802 43.3333 11.7448 42.526 10.8698C42.6094 11.026 42.6927 11.1823 42.776 11.3385Z" fill="#BADE46"/>
<path d="M24.8334 4.23438C24.5209 5.2448 23.6094 3.77605 24.2917 5.76563C24.974 7.76042 24.4063 8.0573 24.9532 8.51563C25.5 8.96875 26.2032 7.87501 26.7969 7.94271C27.3907 8.01042 26.6615 7.96355 27.7552 8.51563C28.849 9.0625 30.0782 9.81771 30.3282 9.04167C30.5834 8.26042 29.7136 8.09896 29.0782 7.30209C28.4375 6.50001 29.9636 5.44792 29.1667 5.21876C28.3698 4.98959 28.1667 3.13542 28.1667 3.13542L24.8334 4.23438Z" fill="#BADE46"/>
<path d="M19.974 5.23959C19.974 5.23959 19.8855 6.12501 20.7032 5.75001C21.5157 5.37501 22.349 5.02084 21.7136 4.75522C21.073 4.48959 20.5677 4.40105 20.5261 4.31251C20.4792 4.22397 19.974 5.23959 19.974 5.23959Z" fill="#BADE46"/>
<path d="M22.5938 7.03126C22.6823 6.72396 23.2969 6.22917 23.4948 6.25521C23.6928 6.27605 23.6928 7.16146 23.7136 7.22917C23.7396 7.29688 22.198 7.58334 22.1771 7.22917C22.1511 6.87501 22.5938 7.03126 22.5938 7.03126Z" fill="#BADE46"/>
<path d="M34.0312 5.12499C34.0885 5.16145 34.1563 5.20312 34.2188 5.23958C34.3333 5.02083 34.4427 4.79687 34.5573 4.57812C34.5 4.55208 34.4479 4.53125 34.3958 4.5052C34.2708 4.71354 34.151 4.91666 34.0312 5.12499Z" fill="#AFDADD"/>
<path d="M19.6042 15.3958C19.3855 15.4427 19.1719 15.4948 18.948 15.5313L17.599 15.7448C17.1407 15.8281 16.6823 15.9375 16.2292 16.125C16 16.2187 15.7813 16.3385 15.573 16.5052C15.3698 16.6667 15.1823 16.8802 15.073 17.1406C14.9636 17.401 14.9323 17.6823 14.9584 17.9427C14.9792 18.2031 15.0469 18.4479 15.1303 18.6771C15.3021 19.1354 15.5313 19.5417 15.7657 19.9427C16 20.3438 16.224 20.724 16.474 21.125C16.724 21.5573 17.1459 21.8906 17.5834 22.1094C18.0261 22.3229 18.4948 22.4375 18.948 22.5208C19.4011 22.6146 19.849 22.6771 20.2865 22.7656C20.7292 22.849 21.1563 22.9635 21.5782 23.1042C21.9844 23.2604 22.3959 23.4375 22.7657 23.6719C22.9532 23.7917 23.1407 23.901 23.3073 24.0469C23.4792 24.1875 23.6563 24.3177 23.823 24.474C24.1667 24.7708 24.5053 25.0729 24.8334 25.3854C25.1511 25.6979 25.4792 26.0156 25.6667 26.3906C25.8594 26.7552 25.9115 27.2135 26 27.6615C26.0886 28.1146 26.1823 28.5677 26.3073 29.0104C26.3698 29.2344 26.3959 29.4427 26.4428 29.6615C26.4636 29.8854 26.4792 30.1042 26.4792 30.3281C26.4532 31.224 26.1928 32.1042 25.8334 32.9323C25.4688 33.7604 25 34.5417 24.4688 35.276C24.2032 35.6406 23.9167 36 23.6094 36.3281C23.4584 36.4948 23.2969 36.651 23.1355 36.8125L22.8803 37.0313C22.7969 37.1042 22.698 37.1979 22.6303 37.2917C22.349 37.7031 22.2657 38.1771 22.2084 38.6302C22.1563 39.0938 22.1459 39.5521 22.1511 40.0156C22.1511 40.9323 22.224 41.849 22.2448 42.7552C22.25 42.9792 22.25 43.2031 22.2396 43.4271C22.2292 43.6458 22.2084 43.875 22.1511 44.0573C22.1198 44.1563 22.0782 44.224 22.0365 44.2396C21.9844 44.2708 21.8907 44.2865 21.7917 44.2865C21.5886 44.2917 21.3698 44.2552 21.1563 44.2135C20.2969 44.0104 19.4584 43.6563 18.6563 43.2604C17.849 42.8646 17.0678 42.4063 16.3907 41.849C16.0573 41.5625 15.7344 41.25 15.5521 40.8958C15.4636 40.7292 15.4219 40.526 15.3855 40.3177C15.3542 40.1094 15.349 39.8958 15.3542 39.6771C15.3959 38.8021 15.5625 37.8542 15.4323 36.9115C15.323 35.9687 14.9844 35.0677 14.5313 34.2604C14.2917 33.8594 14.0573 33.4583 13.7709 33.0938C13.4948 32.7135 13.2448 32.3594 12.9896 31.9844C12.5209 31.2188 12.1563 30.3958 11.9063 29.5313C11.4115 27.8021 11.3594 25.9271 11.7709 24.1563C11.7761 24.1406 11.7657 24.1302 11.7553 24.125C11.7396 24.1198 11.724 24.1302 11.7188 24.1406C11.448 25.0208 11.3386 25.9375 11.3178 26.8594C11.3021 27.7813 11.4011 28.7083 11.6355 29.6042C11.875 30.5 12.2292 31.3646 12.6928 32.1667C12.9428 32.5521 13.2084 32.9531 13.4584 33.3177C13.724 33.6823 13.948 34.0677 14.1771 34.4531C14.6042 35.2396 14.9063 36.0833 15 36.9635C15.1146 37.8438 14.948 38.7187 14.8907 39.6615C14.875 40.1354 14.9011 40.6354 15.1355 41.1146C15.3803 41.5729 15.7396 41.8958 16.0938 42.2031C16.8282 42.7969 17.6355 43.2552 18.4636 43.6563C19.3021 44.0521 20.1615 44.3802 21.0834 44.5729C21.3178 44.6198 21.5521 44.651 21.8021 44.6406C21.9271 44.6354 22.0678 44.6198 22.2136 44.5313C22.2917 44.4896 22.3438 44.4219 22.3855 44.3542C22.4219 44.2865 22.4532 44.224 22.4688 44.1615C22.5417 43.9063 22.5469 43.6719 22.5521 43.4375C22.5573 43.2031 22.5521 42.974 22.5365 42.7448C22.4896 41.8229 22.3959 40.9167 22.3646 40.0104C22.3542 39.5573 22.3594 39.1042 22.4011 38.6563C22.4584 38.2135 22.5365 37.7552 22.7813 37.401C22.8386 37.3125 22.9115 37.2448 22.9948 37.1719L23.2553 36.9375C23.4167 36.776 23.5834 36.6146 23.7344 36.4427C24.0417 36.1042 24.3282 35.7396 24.6042 35.375C25.1459 34.6354 25.625 33.8438 26 33.0052C26.375 32.1667 26.6563 31.2708 26.7032 30.3385C26.7136 30.1042 26.698 29.8646 26.6875 29.6354C26.6407 29.4063 26.6094 29.1615 26.5573 28.9427C26.448 28.5052 26.3594 28.0625 26.2865 27.6146C26.2032 27.1719 26.1771 26.6979 25.9584 26.2448C25.7396 25.7917 25.4011 25.4583 25.0886 25.125C24.7605 24.8021 24.4271 24.4844 24.0886 24.1771C23.9271 24.0208 23.7396 23.875 23.5573 23.724C23.3803 23.5729 23.1823 23.4427 22.9844 23.3177C22.5938 23.0573 22.1615 22.8594 21.724 22.6875C21.2865 22.5313 20.8334 22.401 20.3803 22.3073C19.9323 22.2083 19.4792 22.1354 19.0417 22.0469C18.6042 21.9635 18.1771 21.849 17.8021 21.6615C17.4375 21.474 17.1094 21.2135 16.9063 20.849C16.6771 20.474 16.4375 20.0625 16.2136 19.6771C15.9948 19.2865 15.7813 18.8958 15.6407 18.4948C15.4948 18.0937 15.4323 17.6823 15.5782 17.3646C15.7188 17.0417 16.0573 16.8021 16.448 16.6406C16.8386 16.4792 17.2657 16.3698 17.698 16.2917L19.0469 16.0781C19.2761 16.0365 19.5 15.9792 19.724 15.9323C19.9532 15.8906 20.1719 15.8333 20.3959 15.7708C21.2917 15.5417 22.1615 15.2448 23.0209 14.9271C23.8855 14.6146 24.724 14.25 25.5573 13.8646C26.3907 13.4792 27.2032 13.0677 28.0105 12.6354C28.4115 12.4219 28.8125 12.1979 29.2136 11.974L29.8073 11.6302C29.9063 11.5677 30 11.5208 30.1042 11.4479C30.2188 11.375 30.3125 11.2969 30.4011 11.2135C30.75 10.875 31.0261 10.5052 31.2969 10.1302C31.5678 9.75521 31.8178 9.36979 32.0625 8.98438C32.5521 8.20833 33.0105 7.41667 33.4584 6.61979C33.599 6.36979 33.7344 6.11458 33.875 5.85938C33.8073 5.81771 33.7396 5.77604 33.6719 5.73438C33.5209 5.98438 33.375 6.23438 33.2292 6.48438C32.7553 7.26563 32.2761 8.04167 31.7709 8.79167C31.5157 9.16667 31.2605 9.54167 30.9896 9.90104C30.7136 10.2552 30.4375 10.6146 30.125 10.9063L30 11.0104C29.9636 11.0417 29.9219 11.0625 29.8855 11.0938C29.7969 11.1458 29.6928 11.2031 29.5938 11.2604L29 11.5885C28.599 11.8073 28.2032 12.0208 27.7969 12.224C26.9896 12.6406 26.1719 13.0365 25.349 13.401C23.6928 14.1302 22.0053 14.7969 20.2605 15.2396C20.0417 15.3021 19.8282 15.3542 19.6042 15.3958Z" fill="#AFDADD"/>
<path d="M15.2865 45.2552C15.1199 45.1979 14.7917 45.0625 14.6355 44.9948C14.7865 45.3177 14.9376 45.7292 15.1095 46.0417C15.3699 46.1458 15.6407 46.25 15.9115 46.349C15.6876 46 15.474 45.625 15.2865 45.2552Z" fill="#AFDADD"/>
<path d="M13.151 35.901C12.9687 34.9167 12.526 34.0313 12.0937 33.1563C11.6562 32.2865 11.1822 31.4323 10.7604 30.5573C10.5572 30.1198 10.3541 29.6823 10.2135 29.2292C10.0677 28.7813 9.96869 28.3177 10.0208 27.8854C10.0729 27.4115 10.1614 26.9271 10.1874 26.4219C10.2187 25.9219 10.1979 25.3906 10.0104 24.8854C9.83328 24.3854 9.47911 23.9479 9.06765 23.6406C8.65619 23.3177 8.18744 23.1146 7.7239 22.9375L7.02598 22.7031C6.80202 22.6354 6.57286 22.5625 6.36453 22.4583C5.92702 22.2813 5.52077 22.026 5.1614 21.724C4.44265 21.125 3.93223 20.2396 3.8489 19.276V19.2708C3.8489 19.2604 3.83848 19.25 3.82286 19.25C3.81244 19.25 3.79682 19.2604 3.79682 19.276C3.77598 20.2656 4.23953 21.25 4.97911 21.9323C5.34369 22.2708 5.76557 22.5625 6.21348 22.776C6.43223 22.8958 6.66661 22.9844 6.90098 23.0729C7.14057 23.1667 7.35411 23.2396 7.57807 23.3229C8.44786 23.6563 9.28119 24.2031 9.57286 25.0469C9.71869 25.4635 9.74473 25.9271 9.71869 26.3958C9.69265 26.8646 9.63015 27.349 9.58328 27.8385C9.5364 28.3854 9.69265 28.8906 9.86453 29.3542C10.0416 29.8229 10.2708 30.2604 10.4999 30.6927C10.9739 31.5521 11.4895 32.3802 11.9427 33.2396C12.3854 34.0937 12.8072 34.9896 12.9635 35.9323C13.0312 36.4063 13.052 36.8958 13.0781 37.3802C13.1093 37.8646 13.1406 38.3542 13.177 38.8438C13.3072 40.5313 13.5781 42.3906 14.1406 44.0156C14.3385 44.1094 14.6041 44.2552 14.8333 44.3542C14.1562 42.6719 13.7031 40.625 13.4635 38.8125C13.3385 37.849 13.276 36.8802 13.151 35.901Z" fill="#AFDADD"/>
<path d="M17.7551 48.5521C17.5416 48.349 17.3333 48.1406 17.1301 47.9219C16.7916 47.8177 16.4478 47.7031 16.1145 47.5833C16.2812 47.8021 16.4583 48.0104 16.6405 48.2188C17.0103 48.3385 17.3853 48.4479 17.7551 48.5521Z" fill="#AFDADD"/>
<path d="M38.4791 41.9271C38.0468 41.0312 37.651 40.125 37.2812 39.2083C36.9322 38.2812 36.5989 37.349 36.3645 36.3958C36.1405 35.4531 36.026 34.4583 35.9583 33.4687C35.9166 32.974 35.901 32.4792 35.8905 31.9792L35.8749 30.4844C35.8593 29.9844 35.8489 29.474 35.6978 28.9792C35.6041 28.7344 35.4947 28.4844 35.2968 28.3073C35.2447 28.2604 35.203 28.2135 35.151 28.1719L34.9843 28.0677C34.8749 27.9896 34.7499 27.9531 34.6301 27.9062C33.6718 27.5885 32.677 27.4375 31.8176 26.9844C31.3958 26.7604 31.0208 26.4531 30.7343 26.0781C30.651 25.9896 30.5989 25.8802 30.5312 25.7812L30.4322 25.6354L30.3541 25.474C30.302 25.3698 30.2447 25.2656 30.1926 25.1562L30.0676 24.8177C29.9739 24.5937 29.927 24.3542 29.8541 24.125C29.7968 23.8854 29.7551 23.6458 29.703 23.4062L29.5624 22.6667C29.4999 22.4167 29.4426 22.1719 29.3801 21.9271C29.1249 20.9479 28.7343 20 28.4426 19.0781C28.302 18.6198 28.2239 18.1667 28.3072 17.7396C28.3905 17.3125 28.6197 16.9062 28.9166 16.5365C29.4687 15.8125 30.3853 15.3958 31.2864 15.0781C32.203 14.7552 33.1718 14.5573 34.1458 14.4323C34.6353 14.375 35.1197 14.3229 35.6145 14.3073C35.8541 14.3021 36.0989 14.2969 36.3385 14.3125C36.4583 14.3229 36.578 14.3333 36.6874 14.3594C36.7395 14.3646 36.7968 14.3854 36.8176 14.401C36.828 14.3958 36.8385 14.4167 36.8489 14.4323C36.8645 14.4531 36.8801 14.4635 36.8853 14.4896C36.9791 14.6771 37.0051 14.9323 37.0416 15.1719C37.078 15.4167 37.1041 15.6667 37.151 15.9167C37.1926 16.1667 37.2499 16.4167 37.3697 16.651C37.427 16.7656 37.5103 16.875 37.6145 16.9583C37.6666 16.9948 37.7343 17.0208 37.7916 17.0521L37.9843 17.0833C37.9999 17.0833 38.0103 17.0729 38.0155 17.0573C38.0155 17.0417 38.0051 17.0312 37.9895 17.0312H37.9843C37.7395 17.0104 37.5624 16.8177 37.4739 16.6042C37.3801 16.3802 37.3437 16.1354 37.3176 15.8958C37.2916 15.651 37.2812 15.401 37.2655 15.151C37.2447 14.8958 37.2343 14.6458 37.1301 14.375C37.1197 14.3385 37.0885 14.3021 37.0676 14.2708C37.0468 14.2344 37.026 14.1979 36.9739 14.1719C36.8905 14.1146 36.828 14.099 36.7603 14.0781C36.6249 14.0417 36.4999 14.026 36.3697 14.0104C36.1145 13.9792 35.8645 13.9635 35.6093 13.9583C35.1041 13.9531 34.5989 13.9687 34.0989 14.0208C33.0989 14.1146 32.0989 14.2917 31.1301 14.5885C30.6405 14.7396 30.1614 14.9323 29.703 15.1823C29.2551 15.4375 28.8072 15.75 28.4739 16.1875C28.1458 16.5885 27.8645 17.0781 27.7551 17.6354C27.6458 18.1927 27.7603 18.7552 27.9166 19.2396C28.0728 19.7344 28.2655 20.1927 28.4322 20.6615C28.6093 21.125 28.7603 21.5885 28.901 22.0573L29.0937 22.7708L29.2499 23.4948C29.3072 23.7396 29.3593 23.9896 29.427 24.2396C29.5103 24.4792 29.5676 24.7292 29.6718 24.9687C29.8541 25.4531 30.1249 25.9062 30.4583 26.3073C30.7916 26.7083 31.2239 27.026 31.6926 27.2448C32.6197 27.6927 33.6458 27.7708 34.5676 28.0781C34.677 28.125 34.7968 28.1562 34.8905 28.224L35.0468 28.3177C35.0937 28.349 35.1301 28.3958 35.1718 28.4323C35.3541 28.5885 35.453 28.8073 35.5416 29.026C35.6926 29.4844 35.6926 29.9896 35.6978 30.4844C35.6978 31.4792 35.6405 32.4792 35.6614 33.4844C35.6822 34.4896 35.7447 35.4896 35.9374 36.4948C36.3749 38.4792 37.1978 40.3333 38.1145 42.1094C38.3333 42.5312 38.5624 42.9427 38.7968 43.3542C38.9114 43.3229 39.026 43.2865 39.1353 43.2552C38.9114 42.8125 38.6926 42.3698 38.4791 41.9271Z" fill="#AFDADD"/>
<path d="M40.0208 44.9219C39.9583 44.7969 39.8854 44.6771 39.8229 44.5521C39.7448 44.6094 39.6719 44.6667 39.5938 44.724C39.6667 44.8385 39.75 44.9531 39.8229 45.0677C39.8906 45.0208 39.9531 44.9688 40.0208 44.9219Z" fill="#AFDADD"/>
<path d="M37.6876 41.9271C37.2553 41.0312 36.8595 40.125 36.4845 39.2083C36.1407 38.2812 35.8074 37.349 35.573 36.3958C35.349 35.4531 35.2345 34.4583 35.1615 33.4687C35.1251 32.974 35.1095 32.4792 35.099 31.9792L35.0782 30.4844C35.0678 29.9844 35.0574 29.474 34.9063 28.9792C34.8126 28.7344 34.7032 28.4844 34.5053 28.3073C34.4532 28.2604 34.4115 28.2135 34.3595 28.1719L34.1928 28.0677C34.0834 27.9896 33.9584 27.9531 33.8386 27.9062C32.8803 27.5885 31.8855 27.4375 31.0261 26.9844C30.6043 26.7604 30.2293 26.4531 29.9428 26.0781C29.8595 25.9896 29.8074 25.8802 29.7397 25.7812L29.6407 25.6354L29.5626 25.474C29.5105 25.3698 29.4532 25.2656 29.4011 25.1562L29.2761 24.8177C29.1824 24.5937 29.1355 24.3542 29.0626 24.125C29.0053 23.8854 28.9636 23.6458 28.9168 23.4062L28.7709 22.6667C28.7084 22.4167 28.6511 22.1719 28.5886 21.9271C28.3334 20.9479 27.9428 20 27.6511 19.0781C27.5105 18.6198 27.4272 18.1667 27.5157 17.7396C27.599 17.3125 27.8282 16.9062 28.1251 16.5365C28.672 15.8125 28.099 15.3229 29.0001 15C29.9168 14.6823 33.5782 13.8906 33.323 13.8854C32.8178 13.875 32.3178 13.8958 31.8126 13.9427C30.8126 14.0417 29.8178 14.2135 28.8386 14.5156C28.3543 14.6667 27.8751 14.8542 27.4168 15.1042C26.9688 15.3594 28.0157 15.75 27.6772 16.1875C27.3543 16.5885 27.073 17.0781 26.9636 17.6354C26.8543 18.1927 26.9636 18.7552 27.1199 19.2396C27.2813 19.7344 27.4688 20.1927 27.6407 20.6615C27.8178 21.125 27.9688 21.5885 28.1095 22.0573L28.297 22.7708L28.4532 23.4948C28.5157 23.7396 28.5678 23.9896 28.6355 24.2396C28.7188 24.4792 28.7761 24.7292 28.8803 24.9687C29.0626 25.4531 29.3334 25.9062 29.6668 26.3073C30.0001 26.7083 30.4324 27.026 30.8959 27.2448C31.8334 27.6927 32.849 27.7708 33.7761 28.0781C33.8855 28.125 34.0053 28.1562 34.099 28.224L34.2501 28.3177C34.297 28.349 34.3386 28.3958 34.3803 28.4323C34.5574 28.5885 34.6615 28.8073 34.7501 29.026C34.9011 29.4844 34.9011 29.9896 34.9063 30.4844C34.9063 31.4792 34.849 32.4792 34.8699 33.4844C34.8907 34.4896 34.9532 35.4896 35.1459 36.4948C35.5834 38.4792 36.4063 40.3333 37.323 42.1094C37.5418 42.5312 38.2345 43.2865 38.3438 43.2552C38.1199 42.8125 37.9011 42.3698 37.6876 41.9271Z" fill="#AFDADD"/>
<path d="M8.59903 28.6823C8.3282 27.75 8.08861 27.349 8.10424 27.2865C8.11466 27.2552 8.06257 27.0573 7.94799 26.776C7.8282 26.4896 7.64591 26.125 7.40632 25.7812C7.55736 26.2865 7.59903 26.4948 7.70841 26.7135C7.81257 26.9427 8.03132 27.2344 8.42195 28.1979C8.48445 28.349 8.54174 28.5156 8.59903 28.6823ZM7.11986 25.2187C6.79695 24.6406 6.21361 24.1406 5.79174 24.2292C5.99486 24.276 6.21361 24.3958 6.43236 24.5573C6.67195 24.7344 6.90632 24.9635 7.11986 25.2187ZM7.38549 26.7187C7.3907 26.7187 7.40111 26.7135 7.41153 26.7083C7.41153 26.7083 7.35424 26.7344 7.2657 26.8073C7.17716 26.8802 7.05216 27 6.92716 27.1979C6.68757 27.5781 6.44278 28.2969 6.5782 29.375C6.65632 29.974 6.84903 30.5417 7.03653 30.9167C7.21882 31.276 7.50007 31.5312 7.80216 31.5729C8.10424 31.6146 8.41153 31.401 8.56257 31C8.72403 30.6042 8.74487 30.0469 8.67195 29.5052C8.59903 28.9531 8.44278 28.4062 8.25007 27.9531C7.84382 27.0052 7.65111 26.8437 7.58861 26.6823C7.55737 26.6042 7.53653 26.526 7.50528 26.3802C7.47403 26.2396 7.42716 26.026 7.34382 25.7396C7.33341 25.7083 7.32299 25.6823 7.31778 25.6562C7.09903 25.3698 6.84903 25.1042 6.59903 24.9219C6.42195 24.7969 6.24486 24.7031 6.0782 24.6615C5.91674 24.6198 5.77611 24.6302 5.67195 24.651C5.60424 24.6719 5.49486 24.6562 5.35424 24.6354C5.28132 24.8177 5.26049 25.026 5.21361 25.1771C5.14591 25.3906 4.60424 25.3281 3.84903 25.4948C3.47924 25.5729 4.65632 25.1042 4.73966 24.8542V24.849C4.7657 24.7552 5.16674 23.901 5.31778 23.8437C5.65632 23.7031 6.0782 23.875 6.45841 24.2135C6.83861 24.5469 7.15632 25.0365 7.30736 25.4583C7.62507 25.8906 7.88028 26.3646 8.03653 26.7396C8.18757 27.1146 8.2657 27.375 8.25528 27.4167C8.25007 27.4635 8.3282 27.6302 8.44799 27.9427C8.56257 28.25 8.72924 28.7187 8.85424 29.3073C8.99486 29.9323 9.08861 30.724 9.01049 31.4427C8.94278 32.1667 8.64591 32.7292 8.35945 32.8802C8.28132 32.9167 8.19799 32.9531 8.09382 32.9635C7.99487 32.9583 7.88028 32.9635 7.76049 32.9219C7.6407 32.8802 7.5157 32.8333 7.38549 32.75C7.32299 32.7031 7.25528 32.6667 7.19278 32.6198C7.13028 32.5625 7.06778 32.5104 7.00007 32.4531C6.49486 31.9948 6.08341 31.2656 5.84903 30.6198C5.60945 29.9635 5.52611 29.3802 5.5157 28.9844C5.50528 28.7865 5.52091 28.6302 5.52611 28.526C5.53653 28.4219 5.54174 28.3646 5.54174 28.3594C5.54695 28.3281 5.62507 28.2448 5.71882 28.1667C5.80216 28.099 5.86466 28.0625 5.87507 28.0729C5.87507 28.0729 5.87507 28.0729 5.87507 28.0781C5.87507 28.0833 5.86466 28.1354 5.84903 28.2292C5.83341 28.3281 5.81257 28.4687 5.81257 28.6458C5.80216 29.0052 5.84903 29.5469 6.04174 30.1562C6.23966 30.7604 6.59382 31.4427 7.04695 31.8802C7.10424 31.9375 7.16153 31.9896 7.21882 32.0417C7.27611 32.0885 7.33341 32.125 7.3907 32.1615C7.50528 32.25 7.61986 32.2865 7.72924 32.3333C7.83861 32.3698 7.93757 32.3698 8.03132 32.3802C8.12507 32.3698 8.19799 32.3385 8.27091 32.3073C8.48966 32.1771 8.71882 31.776 8.80736 31.2187C8.74486 31.5052 8.61986 31.7292 8.47924 31.901C8.40111 31.9792 8.31778 32.0469 8.22924 32.0885C8.13549 32.125 8.05216 32.1719 7.9532 32.1615C7.56778 32.1771 7.2032 31.8854 6.97403 31.4687C6.75528 31.0781 6.52611 30.4896 6.41153 29.8542C6.3282 29.4271 6.31257 28.9635 6.34382 28.5625C6.38028 28.1562 6.47403 27.8125 6.59382 27.5573C6.82299 27.0365 7.11986 26.8802 7.0157 26.9062C6.98966 26.9219 7.04695 26.8854 7.14591 26.8385C7.24486 26.7865 7.34382 26.7396 7.38549 26.7187Z" fill="#AFDADD"/>
</svg>
