<svg width="74" height="70" viewBox="0 0 74 70" fill="none" xmlns="http://www.w3.org/2000/svg">
<path d="M16.4323 10.1354C14.625 12.4948 13.5312 12.776 13.5312 12.776C13.5312 12.776 15.2604 12.5833 16.0052 11.6562C16.7448 10.7292 17.6094 9.10416 17.6094 9.10416C17.6094 9.10416 18.2396 7.77083 16.4323 10.1354Z" fill="#EFB2A0"/>
<mask id="mask0_122_2642" style="mask-type:luminance" maskUnits="userSpaceOnUse" x="0" y="0" width="74" height="70">
<path d="M0.666504 0.640625H73.9998V69.3333H0.666504V0.640625Z" fill="white"/>
</mask>
<g mask="url(#mask0_122_2642)">
<path d="M42.1719 2.38021C44.7188 2.83334 47.1875 3.65105 49.4896 4.8125C51.7865 5.97396 53.9323 7.44792 55.8385 9.19792C57.7448 10.9479 59.4479 12.9219 60.9844 15.0208L62.6094 17.4583L63.1042 18.3073L64.0885 19.9948L64.9792 21.7448C65.5208 22.7448 65.9688 23.7969 66.4271 24.8385C62.0052 15.2813 52.7344 9.54688 48.3125 7.86459C43.099 5.88542 30.8698 1.95313 19.8542 8.31771C18.3333 9.19271 17.474 10.6406 16.0208 11.9375C14.6354 13.1823 12.6563 14.2604 11.3698 15.9479C10.1823 17.5052 9.04687 19.2656 7.97396 21.25C7.91146 21.375 7.84896 21.5052 7.79167 21.6354C2.1875 33.6458 4.04167 47.9219 12.7708 57.8802C13.1667 58.3385 13.5781 58.7865 14.0104 59.224C12.5417 57.9219 11.1979 56.4792 9.98958 54.901C8.39583 52.8385 6.97396 50.6094 5.98438 48.1771C5.47917 46.9688 5.08333 45.7031 4.71875 44.4375C4.39583 43.1615 4.09375 41.875 3.90625 40.5625C3.49479 37.9479 3.36979 35.2813 3.47396 32.625C3.53125 31.2917 3.65625 29.9635 3.85938 28.6458C4.03646 27.3281 4.51563 26.0729 4.99479 24.8281C5.97917 22.3385 7.16667 19.9323 8.49479 17.6094C9.83333 15.2969 11.3385 13.0677 13.099 11.0677C13.9844 10.0729 14.9323 9.14063 15.974 8.32813C16.5052 7.9323 17.0417 7.55209 17.6198 7.23438C18.1823 6.90626 18.7865 6.625 19.375 6.33334C21.7552 5.1875 24.2135 4.23438 26.7344 3.4948C29.25 2.76563 31.8281 2.26042 34.4219 2.04167C37.0156 1.81771 39.6302 1.9323 42.1719 2.38021ZM68.0625 28.974C68.901 31.4635 69.4844 34.0469 69.7813 36.6667C69.9063 37.9792 69.974 39.3021 69.9323 40.625C69.8802 41.9427 69.75 43.2656 69.5104 44.5677C69.0104 47.1719 68.125 49.7135 66.8125 52.026C66.1667 53.1823 65.4271 54.2917 64.6094 55.3333C63.7917 56.375 62.8906 57.3542 61.9323 58.2708C60.6354 59.5208 59.2135 60.6302 57.724 61.6302C58.0573 61.3021 58.3958 60.9583 58.724 60.599C59.099 60.1927 59.5885 58.7917 59.9531 58.349C60.4167 57.7865 60.7552 58.1719 61.2031 57.5521C63.099 54.9115 64.8438 51.7031 66.401 47.8385C69.9219 39.1094 69.3385 31.7344 66.8385 25.7708C67.2917 26.8177 67.6875 27.8958 68.0625 28.974ZM32.9844 68.0677C30.401 67.8958 27.849 67.4531 25.3906 66.6875C24.1667 66.3073 22.9635 65.8438 21.8073 65.2865C20.6615 64.7292 19.5469 64.0521 18.4115 63.4323C16.1927 62.1094 13.9792 60.7656 11.9479 59.1719C9.91667 57.5938 8.00521 55.8333 6.46875 53.7656C4.92188 51.7031 3.80729 49.3281 3.17708 46.7969C2.54167 44.2656 2.34375 41.6198 2.35417 38.9792L2.40104 36.9896C2.43229 36.3281 2.46875 35.6667 2.53125 35.0052C2.63021 33.6875 2.82813 32.3698 3.03646 31.0625C3.95313 25.8385 5.67187 20.6979 8.43229 16.1615C11.1927 11.6354 15.0729 7.78646 19.7188 5.36459C22.0313 4.14063 24.5 3.25521 27.0208 2.63542L28.9219 2.21875L30.849 1.94271C31.4896 1.82813 32.1354 1.80209 32.7813 1.75L33.75 1.67188C34.0729 1.64584 34.3958 1.6198 34.7188 1.625C35.4844 1.60417 36.2552 1.60417 37.0208 1.61459C36.151 1.6198 35.276 1.65626 34.4063 1.73438C31.7865 1.95834 29.1927 2.47396 26.6615 3.21355C24.1302 3.96875 21.6563 4.9323 19.2656 6.08334C18.6719 6.38021 18.0729 6.66146 17.4948 7C16.9063 7.32292 16.3594 7.71355 15.8229 8.1198C14.7656 8.94792 13.8073 9.89584 12.9167 10.901C11.1406 12.9219 9.64063 15.1667 8.29688 17.4948C6.96354 19.8281 5.78125 22.25 4.79688 24.75C4.31771 26 3.83333 27.276 3.65625 28.6198C3.45312 29.9479 3.33333 31.2813 3.27604 32.6198C3.17188 35.2917 3.3125 37.9688 3.72917 40.5938C3.92187 41.9115 4.22917 43.2083 4.55729 44.4896C4.92708 45.7604 5.32292 47.026 5.83333 48.2448C6.83854 50.6823 7.74479 53.1615 9.35417 55.2292C11.7969 58.4063 15.0313 61.0573 18.5417 63.0521C20.5417 64.4063 22.7604 65.5052 25.2188 66.1927C28.1146 67.0052 31.0521 67.6927 33.9688 68.1198C33.6406 68.1094 33.3125 68.0885 32.9844 68.0677ZM72.6927 22.4896C72.3646 21.1875 71.9115 19.9219 71.4115 18.6823C70.875 17.4583 70.2865 16.2552 69.5833 15.125C68.875 13.9948 68.1094 12.901 67.2344 11.9063C66.8125 11.3906 66.3438 10.9271 65.8854 10.4479C65.6563 10.2083 65.4063 9.9948 65.1667 9.76563C64.9167 9.54688 64.6875 9.3073 64.4271 9.10938C62.4063 7.40626 60.1563 5.9948 57.7656 4.90626C55.375 3.82813 52.8542 3.03125 50.3021 2.47396C45.2083 1.32292 39.9792 0.656255 34.7135 0.822922C34.3802 0.817713 34.0521 0.838545 33.724 0.869796L32.7396 0.947922C32.0833 1.00521 31.4219 1.03646 30.7708 1.15105L28.8073 1.44271L26.8646 1.8698C24.2865 2.50521 21.7552 3.42188 19.3854 4.6875C14.6198 7.1823 10.6354 11.151 7.82813 15.7813C5.01563 20.4323 3.28646 25.6563 2.36458 30.9583C2.15625 32.2917 1.96354 33.625 1.85938 34.9688C1.79688 35.6354 1.76042 36.3073 1.73438 36.9792L1.6875 38.9948C1.6875 41.6719 1.89063 44.375 2.55208 46.9792C3.20833 49.5833 4.36979 52.0469 5.96354 54.1615C7.55208 56.2865 9.50521 58.0781 11.5729 59.6719C13.6354 61.2865 15.875 62.6354 18.1146 63.9583C19.2552 64.5833 20.3646 65.2552 21.5469 65.8281C22.7344 66.3958 23.9635 66.8594 25.2083 67.25C27.7188 68.0208 30.3177 68.4688 32.9323 68.6302C34.9219 68.7708 36.9219 68.7344 38.9167 68.5677C44.776 68.7292 50.4323 67.4688 55.4583 63.599C55.5729 63.5365 55.6979 63.474 55.8125 63.4115C58.125 62.0729 60.3229 60.5 62.2604 58.625C63.2344 57.6927 66.5573 53.4323 67.2188 52.25C68.5469 49.8906 69.4479 47.2969 69.9531 44.6458C70.1927 43.3125 70.3229 41.9688 70.3698 40.625C70.4115 39.2813 70.3385 37.9427 70.2083 36.6094C69.9063 33.9479 69.3073 31.3385 68.4531 28.8281C68.0156 27.5781 67.5521 26.3333 67.0104 25.1354C66.4635 23.9323 65.9635 22.7135 65.3333 21.5521L64.4323 19.7969L63.4323 18.0938L62.9375 17.2448L62.3906 16.4219L61.2865 14.7917C59.7344 12.6719 58.0104 10.6875 56.0833 8.92188C54.151 7.15626 51.974 5.67188 49.6458 4.5C47.3125 3.32813 44.8125 2.51042 42.2344 2.0573C41.4167 1.91667 40.5938 1.8073 39.7604 1.73438C43.2448 1.96875 46.7031 2.52084 50.099 3.29688C52.6146 3.84896 55.0729 4.63542 57.401 5.69792C59.7292 6.76042 61.9115 8.13542 63.8646 9.78646C64.1146 9.98438 64.3385 10.2135 64.5781 10.4271C64.8073 10.651 65.0521 10.8542 65.2708 11.0885C65.7135 11.5521 66.1667 12 66.5729 12.5C67.4167 13.4635 68.1563 14.5208 68.8333 15.6146C69.5156 16.7083 70.0781 17.8698 70.599 19.0573C71.0729 20.2604 71.5104 21.4844 71.8281 22.75C73.125 27.7969 74.0417 27.6979 72.6927 22.4896Z" fill="#EFB2A0"/>
</g>
<path d="M73.4273 27.7448C73.344 27.3542 73.0731 27.5677 73.0731 27.5677C73.0731 27.5677 73.1356 28.2396 73.5262 31.0677C73.9169 33.901 72.0054 38.6771 73.3283 35.7813C74.646 32.8854 73.5106 28.1354 73.4273 27.7448Z" fill="#EFB2A0"/>
<path d="M60.0054 10.7448C59.4168 10.2604 58.1668 9.10417 58.0523 9.30208C57.8543 9.64583 58.8023 10.0521 59.8179 11.1771C61.6721 13.2188 64.396 16.4948 65.0262 18.6927C65.9273 21.8177 66.521 16.1042 60.0054 10.7448Z" fill="#EFB2A0"/>
<path d="M68.401 30.9063C64.526 30.2396 60.4479 29.2656 56.4219 27.8594C47.526 24.7552 36.8646 14.3906 28.7135 5.19792C25.8333 5.66146 22.8854 6.59896 20.0156 8.22396C22.1823 10.1823 24.875 12.3125 28.2188 14.6302C46.2552 27.125 59.4687 33.4427 68.8698 36.5C68.9115 34.5417 68.7448 32.6771 68.401 30.9063Z" fill="#D3EFEB"/>
<path d="M18.0313 6.32292C18.5833 5.98438 19.1458 5.66146 19.7188 5.36459C21.8958 4.21354 24.2083 3.35938 26.5729 2.75C26.3854 2.53125 26.1979 2.3125 26.0104 2.09375C23.7292 2.71354 21.4948 3.5625 19.3854 4.6875C18.7448 5.02083 18.1146 5.38542 17.5 5.77604C17.6719 5.95313 17.849 6.14063 18.0313 6.32292Z" fill="#D3EFEB"/>
<path d="M69.7813 36.6667C69.7865 36.7083 69.7917 36.7552 69.7969 36.7969C69.9427 36.8437 70.0937 36.8854 70.2396 36.9323C70.2292 36.8229 70.2187 36.7135 70.2083 36.6094C69.9948 34.7187 69.6302 32.849 69.1302 31.0313C68.974 31.0052 68.8229 30.9792 68.6719 30.9531C69.1875 32.8229 69.5625 34.7344 69.7813 36.6667Z" fill="#D3EFEB"/>
<path d="M26.7344 3.49479C26.8594 3.45833 26.9896 3.42187 27.1198 3.38542C27.0469 3.30208 26.9792 3.22396 26.9115 3.14062C26.8281 3.16667 26.7396 3.1875 26.6615 3.21354C24.1302 3.96875 21.6563 4.93229 19.2656 6.08333C18.9375 6.25 18.6042 6.40625 18.2812 6.57292C18.3437 6.64063 18.4115 6.70833 18.4792 6.77083C18.7813 6.625 19.0781 6.47917 19.375 6.33333C21.7552 5.1875 24.2135 4.23437 26.7344 3.49479Z" fill="#D3EFEB"/>
<path d="M6.25537 20.3177C6.07829 20.1406 5.9012 19.9635 5.72412 19.7917C4.5262 22.4375 3.61995 25.2135 2.9585 28.0365C3.14079 28.2344 3.32829 28.4323 3.5262 28.625C4.16683 25.7813 5.06787 22.9792 6.25537 20.3177Z" fill="#BE7A67"/>
<path d="M66.8127 52.0261C66.1668 53.1823 65.4272 54.2917 64.6095 55.3333C63.9741 56.1458 63.2918 56.9115 62.5679 57.6458C62.7345 57.6875 62.8908 57.724 63.047 57.7604C64.4168 56.1667 66.6877 53.2083 67.2189 52.25C67.8127 51.1979 68.3179 50.099 68.745 48.974C68.5783 48.9844 68.4116 48.9948 68.245 49.0052C67.8439 50.0417 67.3647 51.0521 66.8127 52.0261Z" fill="#BE7A67"/>
<path d="M61.3592 57.3333C62.9842 55.0313 64.4998 52.3021 65.88 49.0938C60.7238 49.1823 54.4478 48.5781 47.729 46.3438C38.9425 43.4271 30.8384 35.8542 25.9998 32.6615C18.7811 27.901 15.5155 29.1615 9.854 23.7969C9.11963 23.099 8.4113 22.4167 7.73421 21.7604C6.48942 24.4479 5.62484 27.2448 5.11963 30.0833C7.14046 31.7552 9.76025 33.3594 13.1509 34.8073C17.2915 36.5729 24.5571 34.4792 27.8853 36.4115C35.8748 41.0365 38.0988 48.1302 42.6405 50.2135C50.5363 53.8281 56.6405 56.0625 61.3592 57.3333Z" fill="#BE7A67"/>
<path d="M6.60921 20.6615C5.94775 22 5.34359 23.3594 4.79671 24.75C4.31755 26 3.83317 27.2761 3.65609 28.6198C3.64567 28.6615 3.64046 28.7031 3.63525 28.7396C3.69776 28.8021 3.76025 28.8594 3.81755 28.9167C3.83317 28.8281 3.84359 28.7396 3.85921 28.6458C4.0363 27.3281 4.51546 26.0729 4.99463 24.8281C5.53109 23.4688 6.13005 22.1354 6.77588 20.8281C6.71859 20.7708 6.6665 20.7188 6.60921 20.6615Z" fill="#BE7A67"/>
<path d="M69.5103 44.5677C69.3644 45.3229 69.1873 46.0729 68.979 46.8073C69.1405 46.8125 69.2915 46.8177 69.4478 46.8177C69.6457 46.099 69.8123 45.375 69.953 44.6458C70.005 44.3385 70.0571 44.0313 70.0988 43.7292C69.953 43.6979 69.8071 43.6719 69.6613 43.6406C69.6196 43.9479 69.5675 44.2604 69.5103 44.5677Z" fill="#FFFF9F"/>
<path d="M7.5415 17.7083C7.82796 17.1875 8.12484 16.6667 8.43213 16.1615C8.6665 15.7813 8.90609 15.4063 9.15088 15.0365C8.979 14.8542 8.81234 14.6719 8.65088 14.4948C8.36442 14.9167 8.09359 15.349 7.82796 15.7813C7.55192 16.2448 7.2863 16.7083 7.02588 17.1771C7.19775 17.3542 7.36963 17.5313 7.5415 17.7083Z" fill="#FFFF9F"/>
<path d="M67.9113 43.2708C36.3592 36.5104 19.5415 25.3854 10.7915 16.7292C10.2186 17.5208 9.6613 18.3646 9.11963 19.2552C15.5311 25.3542 25.0988 32.1042 35.8696 37.625C49.13 44.4219 60.0936 46.3125 66.8332 46.724C67.2655 45.5469 67.6248 44.3958 67.9113 43.2708Z" fill="#FFFF9F"/>
<path d="M9.5363 15.4479C9.104 16.1198 8.69255 16.8021 8.29671 17.4948C8.17692 17.7031 8.06234 17.9063 7.94775 18.1146C7.99984 18.1719 8.05713 18.2292 8.11442 18.2813C8.23942 18.0573 8.36442 17.8333 8.49463 17.6094C8.88525 16.9375 9.2863 16.276 9.70296 15.625C9.64567 15.5625 9.59359 15.5052 9.5363 15.4479Z" fill="#FFFF9F"/>
<path d="M55.4583 63.599C55.5729 63.5365 55.6979 63.474 55.8125 63.4115C55.8281 63.401 55.8438 63.3906 55.8594 63.3802C31.2917 61.8281 15.0625 52.0729 5.50521 43.75C6.71875 48.8854 9.15625 53.7552 12.7708 57.8802C13.1667 58.3385 13.5781 58.7865 14.0104 59.224C12.5417 57.9219 11.1979 56.4792 9.98958 54.901C8.39583 52.8385 6.97396 50.6094 5.98438 48.1771C5.47917 46.9688 5.08333 45.7031 4.71875 44.4375C4.57292 43.8542 4.42708 43.2656 4.29688 42.6771C4.22396 42.6094 4.15104 42.5365 4.07292 42.4688C4.21875 43.1458 4.38542 43.8229 4.55729 44.4896C4.92708 45.7604 5.32292 47.026 5.83333 48.2448C6.83854 50.6823 7.74479 53.1615 9.35417 55.2292C11.7969 58.4063 15.0313 61.0573 18.5417 63.0521C20.5417 64.4063 22.7604 65.5052 25.2188 66.1927C28.1146 67.0052 31.0521 67.6927 33.9688 68.1198C33.6406 68.1094 33.3125 68.0885 32.9844 68.0677C30.401 67.8958 27.849 67.4531 25.3906 66.6875C24.1667 66.3073 22.9635 65.8437 21.8073 65.2865C20.6615 64.7292 19.5469 64.0521 18.4115 63.4323C16.1927 62.1094 13.9792 60.7656 11.9479 59.1719C9.91667 57.5938 8.00521 55.8333 6.46875 53.7656C4.92188 51.7031 3.80729 49.3281 3.17708 46.7969C2.69271 44.8698 2.46354 42.875 2.38542 40.8646C2.15104 40.6354 1.92708 40.4115 1.70312 40.1875C1.76042 42.474 1.98958 44.7604 2.55208 46.9792C3.20833 49.5833 4.36979 52.0469 5.96354 54.1615C7.55208 56.2865 9.50521 58.0781 11.5729 59.6719C13.6354 61.2865 15.875 62.6354 18.1146 63.9583C19.2552 64.5833 20.3646 65.2552 21.5469 65.8281C22.7344 66.3958 23.9635 66.8594 25.2083 67.25C27.7188 68.0208 30.3177 68.4688 32.9323 68.6302C34.9219 68.7708 36.9219 68.7344 38.9167 68.5677C44.776 68.7292 50.4323 67.4687 55.4583 63.599Z" fill="#FFFF9F"/>
<path d="M17.5002 57.0938C15.1147 56.3229 12.9585 55.8958 11.0522 55.75C11.5887 56.4792 12.1668 57.1927 12.771 57.8802C13.1668 58.3385 13.5783 58.7865 14.0106 59.224C12.8022 58.151 11.6772 56.9844 10.6408 55.724C10.3283 55.7083 10.021 55.6979 9.71891 55.6927C12.1147 58.6667 15.2033 61.1563 18.5418 63.0521C20.5418 64.4063 22.7606 65.5052 25.2189 66.1927C28.1147 67.0052 31.0522 67.6927 33.9689 68.1198C33.6408 68.1094 33.3127 68.0885 32.9845 68.0677C30.4012 67.8958 27.8491 67.4531 25.3908 66.6875C24.1668 66.3073 22.9637 65.8438 21.8075 65.2865C20.6616 64.7292 19.547 64.0521 18.4116 63.4323C16.1929 62.1094 13.9793 60.7656 11.9481 59.1719C10.5991 58.1302 9.30745 57.0052 8.14079 55.7604C7.87516 55.7865 7.61995 55.8177 7.36475 55.8542C8.646 57.2656 10.0783 58.5208 11.5731 59.6719C13.6356 61.2865 15.8752 62.6354 18.1147 63.9583C19.2554 64.5833 20.3647 65.2552 21.547 65.8281C22.7345 66.3958 23.9637 66.8594 25.2085 67.25C27.7189 68.0208 30.3179 68.4688 32.9325 68.6302C34.922 68.7708 36.922 68.7344 38.9168 68.5677C43.9533 68.7083 48.8491 67.7917 53.3127 65.0729C44.7502 63.8177 30.6356 61.3229 17.5002 57.0938Z" fill="#9F604F"/>
<path d="M12.5679 36.1927C13.4272 36.224 14.2866 36.1563 15.146 36.1146C16.0106 36.0781 16.87 36.0521 17.7345 36.0365C19.4637 36.0156 21.2033 36.099 22.9429 36.3385C24.672 36.5938 26.4116 37.0208 28.0418 37.8438L28.6512 38.1615C28.8439 38.2813 29.0366 38.4167 29.2241 38.5469C29.4116 38.6823 29.6147 38.8073 29.7866 38.9479L30.297 39.3594C30.9741 39.9167 31.6304 40.5 32.271 41.1146C33.5314 42.3594 34.771 43.6927 35.547 45.4844C35.6512 45.7031 35.7293 45.9375 35.8022 46.1771C35.8856 46.4115 35.9272 46.6719 35.9741 46.9219C36.0314 47.1771 36.0158 47.4531 36.0366 47.7135C36.0158 47.9844 36.0054 48.2656 35.9377 48.5313C35.87 48.8021 35.8075 49.0729 35.6772 49.3177C35.6147 49.4479 35.5783 49.5573 35.4845 49.7083C35.3856 49.8542 35.2814 50.0208 35.1668 50.1146C34.7137 50.5781 34.2397 50.8177 33.7866 51.0208C32.87 51.401 31.9585 51.5938 31.0522 51.7188C30.146 51.8385 29.245 51.8854 28.3387 51.8698C26.5366 51.8385 24.7241 51.5885 22.9637 50.9688C22.0887 50.6458 21.2293 50.224 20.4377 49.6354C19.646 49.0573 18.9429 48.2656 18.5002 47.3177C18.3752 47.0729 18.3075 46.8646 18.2189 46.6406C18.1304 46.4219 18.0731 46.1979 17.995 45.9792C17.9272 45.7552 17.8752 45.526 17.8127 45.3021L17.6668 44.6146C17.5002 43.6979 17.422 42.75 17.5262 41.776C17.5679 41.2917 17.6825 40.7969 17.8387 40.3073C18.0262 39.8229 18.245 39.3281 18.6147 38.9063C18.771 38.6771 19.0054 38.5 19.2085 38.3125C19.3179 38.2292 19.4377 38.151 19.5575 38.0781L19.7345 37.9635C19.797 37.9271 19.8856 37.8958 19.9585 37.8594C20.5939 37.6146 21.1095 37.625 21.6095 37.6406C23.5575 37.7917 25.2293 38.4688 26.8283 39.3333C27.6147 39.776 28.3752 40.2813 29.0679 40.8958C29.7554 41.5052 30.4116 42.2135 30.8387 43.1042C31.2866 43.974 31.4272 45.0885 31.1304 46.0521C31.0522 46.2917 30.9741 46.526 30.8543 46.7448C30.7502 46.9688 30.6252 47.1667 30.4897 47.3646C30.2241 47.75 29.9116 48.1302 29.5106 48.4219C29.1252 48.7188 28.6668 48.9531 28.1825 49.0573C27.6981 49.1667 27.2033 49.1615 26.7397 49.0729C25.8022 48.8906 24.9897 48.4115 24.3179 47.8125C23.646 47.2188 23.1043 46.4896 22.745 45.6719C22.5731 45.2604 22.4585 44.8281 22.4325 44.3854C22.4064 43.9427 22.4845 43.4896 22.6981 43.1146C22.3595 43.9323 22.6095 44.8229 23.0106 45.5417C23.422 46.2708 23.995 46.9063 24.6616 47.3906C25.3231 47.875 26.0835 48.2396 26.8543 48.3177C27.2345 48.3594 27.6147 48.3333 27.9689 48.224C28.3179 48.1146 28.6304 47.9219 28.9064 47.6771C29.4533 47.1979 29.87 46.4479 30.047 45.7604C30.2085 45.0573 30.0731 44.3438 29.6981 43.6979C29.3387 43.0521 28.7762 42.4792 28.1616 41.9792C27.5418 41.4792 26.8439 41.0521 26.1095 40.6875C25.3856 40.3281 24.62 40.0208 23.8439 39.7865C23.0731 39.5625 22.2762 39.375 21.5418 39.3594C21.1825 39.349 20.8127 39.3906 20.646 39.474C20.6304 39.4844 20.6095 39.4844 20.5835 39.5052L20.495 39.5677L20.3075 39.6979C20.2137 39.8125 20.0835 39.8906 20.0002 40.026C19.8022 40.2552 19.6825 40.5729 19.5627 40.8906C19.4689 41.224 19.3908 41.5781 19.37 41.9531C19.2554 43.4375 19.6043 45.125 20.2241 46.4948C20.8022 47.7344 22.1512 48.599 23.6304 49.1198C25.1095 49.6615 26.7502 49.9115 28.3752 49.9531C29.1929 49.974 30.0106 49.9375 30.8075 49.8385C31.6043 49.7396 32.3908 49.5677 33.0783 49.3073C33.4064 49.1771 33.7085 49 33.87 48.849C33.922 48.8125 33.9168 48.7813 33.9481 48.7552C33.9793 48.7292 34.0106 48.6302 34.047 48.5677C34.1304 48.4323 34.1564 48.2813 34.2033 48.1354C34.37 47.5417 34.2397 46.8281 33.9637 46.1354C33.4012 44.724 32.3283 43.4063 31.1929 42.1927C30.6147 41.5833 30.0106 40.9948 29.3804 40.4323L28.9064 40.0104C28.7502 39.8698 28.5887 39.7656 28.4325 39.6406L27.9533 39.276L27.4325 38.9688C26.0314 38.1458 24.4168 37.6406 22.771 37.2813C21.12 36.9115 19.422 36.7188 17.7189 36.5781C16.0106 36.4219 14.2814 36.4167 12.5679 36.1927Z" fill="#BE7A67"/>
<path d="M67.0104 25.1354C66.9427 24.9844 66.875 24.8333 66.8073 24.6823C66.6354 24.625 66.4583 24.5677 66.2865 24.5104C66.3333 24.6198 66.3802 24.724 66.4271 24.8385C66.375 24.724 66.3281 24.6146 66.2708 24.5052C61.6198 22.9375 56.599 20.5365 51.9115 16.875C46.7344 12.8229 42.9167 9 40.1458 5.50521C37.9323 5.08334 35.4844 4.80209 32.9219 4.83855C35.5469 10.6042 40.9427 17.2292 51.8542 22.3229C58.3229 25.3385 63.625 27.4271 67.9167 28.8646C67.6198 27.7917 67.2552 26.7604 66.8385 25.7708C67.2813 26.7969 67.6667 27.849 68.0365 28.9063C68.2031 28.9583 68.3698 29.0156 68.5313 29.0677C68.5052 28.9896 68.4792 28.9115 68.4531 28.8281C68.0156 27.5781 67.5521 26.3333 67.0104 25.1354Z" fill="#9F604F"/>
<mask id="mask1_122_2642" style="mask-type:luminance" maskUnits="userSpaceOnUse" x="31" y="0" width="7" height="3">
<path d="M31.3335 0.640625H38.0002V2.66667H31.3335V0.640625Z" fill="white"/>
</mask>
<g mask="url(#mask1_122_2642)">
<path d="M31.5156 1.05209C31.5885 1.3073 31.6667 1.56771 31.75 1.82813C32.0937 1.79688 32.4375 1.77605 32.7813 1.75001L33.75 1.67188C34.0729 1.64584 34.3958 1.6198 34.7188 1.62501C35.4844 1.60417 36.2552 1.60417 37.0208 1.61459C36.151 1.6198 35.276 1.65626 34.4063 1.73438C33.5417 1.8073 32.6823 1.91667 31.8229 2.05209C31.8542 2.14584 31.8906 2.2448 31.9219 2.34375C32.7552 2.21355 33.5885 2.11459 34.4219 2.04167C35.4844 1.95313 36.5469 1.91667 37.6042 1.93751C37.3594 1.55209 37.1302 1.17188 36.9115 0.802087C36.1823 0.791671 35.4479 0.796881 34.7135 0.822923C34.3802 0.817714 34.0521 0.838546 33.724 0.869797L32.7396 0.947923C32.3333 0.984381 31.9219 1.01042 31.5156 1.05209Z" fill="#9F604F"/>
</g>
<path d="M73.0728 26.3229C73.1925 26.4948 73.2811 26.5156 73.328 26.375C73.2394 26.3594 73.1561 26.3438 73.0728 26.3229Z" fill="#9F604F"/>
<path d="M7.354 41.4583C7.354 41.4583 15.38 59.2136 56.3488 62.2188C56.3488 62.2188 57.8071 61.7031 57.7707 60.6198C57.729 59.5365 24.6405 60.2969 7.354 41.4583Z" fill="#D3EFEB"/>
<path d="M28.1822 42.9531C29.302 44.4427 29.2395 46.3906 28.0311 47.3073C26.828 48.224 24.9426 47.7552 23.8176 46.2656C22.6926 44.776 22.7603 42.8281 23.9634 41.9115C25.1718 40.9948 27.0572 41.4635 28.1822 42.9531Z" fill="#BE7A67"/>
</svg>
