<svg width="36" height="37" viewBox="0 0 36 37" fill="none" xmlns="http://www.w3.org/2000/svg">
<path d="M34.625 24.1615C34.4062 24.8594 34.1406 25.5521 33.8177 26.2292C32.2916 29.4271 29.8072 31.8594 26.4062 33.5104C30.4427 31.1354 33.4947 27.1042 34.4739 22.1302C35.026 19.3333 34.8645 16.5625 34.1145 14.0104C33.8229 13.0208 32.9218 12 32.4583 11.0833C32.0989 10.3646 32.2135 9.73959 31.75 9.07813C30.7291 7.60417 29.4791 6.29167 28.0364 5.20313C31.677 7.75001 35.0312 11.5104 35.125 17.2917C35.1614 20.0104 35.0208 22.25 34.625 24.1615ZM28.3072 33.1354C25.2552 35.1927 18.0104 37.5625 11.5468 35.1615C9.19267 34.2917 7.18225 32.901 5.51558 30.9948C6.51037 32.0833 7.62496 33.0156 8.8385 33.7656C12.0937 35.7865 15.8489 36.4375 20 35.7135C21.2552 35.5521 22.4791 35.25 23.651 34.8229C28.5781 33.2396 32.052 30.3906 33.9947 26.3177C34.0468 26.2135 34.0937 26.1042 34.1406 26C33.1406 28.9948 31.3072 31.1094 28.3072 33.1354ZM10.0312 33.9479C10.401 34.2708 10.7447 34.3438 10.8125 34.3698C10.9687 34.4323 13.1927 35.2604 14.526 35.526C15.151 35.651 15.7708 35.7396 16.3906 35.7917C10.8593 35.6458 6.19266 32.75 3.28641 27.6094C4.88537 30.2708 7.20308 32.4844 10.0312 33.9479ZM6.50517 6.85417C6.50517 6.85417 4.37496 9.67709 4.19266 10.0573C3.38016 10.4115 1.88016 13.4479 1.88016 13.4479C1.88016 13.4479 4.276 8.0573 6.50517 6.85417ZM0.718707 14.901C0.729124 14.8281 0.744749 14.7604 0.760373 14.6875C0.859332 14.1667 0.989541 13.6563 1.151 13.151C1.19787 13.1771 1.26037 13.1719 1.30725 13.151C0.802039 14.6979 0.755165 16.1458 0.89579 17.6094C0.77079 19.3385 0.916623 21.0417 1.29162 22.6719C0.64579 20.1927 0.416624 17.4948 0.718707 14.901ZM2.43746 11.625C1.87496 12.8385 1.44787 14.1354 1.17704 15.5C1.11454 15.8177 1.06246 16.1302 1.02079 16.4427C0.994749 15.2031 1.16662 13.974 1.69266 12.651C1.86975 12.401 2.12496 12.0469 2.43746 11.625ZM5.74475 6.23438C4.47392 7.66147 3.41662 9.19271 2.53641 10.5885C2.31766 10.9323 2.12496 11.2708 1.95829 11.6042C1.74996 11.8854 1.57287 12.1354 1.43225 12.3333C2.30204 10.0469 3.75516 7.98438 5.74475 6.23438ZM6.92183 5.28126C7.64579 4.73959 8.42704 4.23438 9.26558 3.77605C12.0937 2.21876 15.5729 1.26042 19.0156 1.21876C17.3906 1.27084 15.8489 1.69792 14.2031 2.17188C13.5885 2.30209 12.9895 2.47397 12.401 2.67188C12.151 2.73959 11.901 2.8073 11.6406 2.8698C10.4583 3.15626 9.19267 3.94271 7.96871 4.94792C6.31767 6.13021 4.87496 7.60417 3.72912 9.31771C3.47392 9.63021 3.22912 9.9323 3.00516 10.224C4.05204 8.59896 5.3385 6.83855 6.92183 5.28126ZM17.7604 0.848964C14.8333 1.0573 11.8854 1.91667 9.23433 3.34376C11.5416 1.73438 14.3437 0.677088 17.7604 0.848964ZM9.8385 33.3854C9.63017 33.3229 9.44267 33.1979 9.30204 33.0313C8.95308 32.6302 8.32808 31.901 8.32808 31.901L9.64579 32.9063C11.0572 33.7917 14.2239 34.7344 14.2239 34.7344C13.5572 34.6667 10.7812 33.6875 9.8385 33.3854ZM18.7187 35.5521C15.3854 36.099 10.875 34.0729 10.875 34.0729C13.5989 35.2448 18.7187 35.5521 18.7187 35.5521ZM23.9947 2.8073C24.5104 3.07292 25.0416 3.35938 25.5885 3.66667C24.2135 2.95834 22.7187 2.42188 21.125 2.10417C19.8645 1.85417 18.6145 1.75521 17.3802 1.78646C19.4427 1.42188 21.4687 1.51563 23.9947 2.8073ZM30.026 5.57813C30.0989 5.66146 30.2239 5.66667 30.3072 5.59376C30.3854 5.52084 30.3958 5.39584 30.3177 5.31251C29.6197 4.53646 28.8333 3.85417 27.9635 3.26563C30.2239 4.56251 31.8645 6.45313 33.3593 9.20313C33.8385 10.0833 34.3125 11.2865 34.6875 12.6875C32.7864 7.45313 27.9791 4.40105 24.1718 2.45313C22.5885 1.64584 21.177 1.29167 19.8385 1.22396C23.6822 1.34376 27.401 2.64584 30.026 5.57813ZM33.5312 9.10938C31.5052 5.3698 29.2135 3.20313 25.5104 1.96355C23.9687 1.33334 22.2552 0.947923 20.4062 0.828131C20.1354 0.812506 19.8593 0.802089 19.5885 0.796881C19.1406 0.750006 18.6875 0.70834 18.2135 0.671881C13.8802 0.33334 10.5052 1.91147 7.86454 4.15105C5.11975 5.91147 2.99475 8.22396 1.66141 10.8906C2.526 8.54167 3.95308 6.44792 6.03642 4.89584C6.07808 4.85938 6.0885 4.79688 6.05725 4.75521C6.026 4.71355 5.9635 4.70313 5.91662 4.73438C3.38537 6.62501 1.651 9.41147 0.848915 12.8438C-0.156295 15.8281 -0.187543 19.0521 0.760373 22.4635C2.62496 29.2083 6.2135 33.6094 11.4062 35.5365C18.0572 38 25.2864 35.6458 28.526 33.4635C32.2448 30.9531 34.2135 28.3177 35.0416 24.1354C35.1562 23.5521 35.2448 22.9323 35.3177 22.2865C36.3489 17.0521 35.0052 11.8229 33.5312 9.10938Z" fill="#FF7141"/>
<path d="M3.75529 29.3333C3.89071 29.2396 4.04175 29.151 4.20321 29.0729C3.88029 28.6042 3.57821 28.125 3.28654 27.6094C3.58341 28.1094 3.90633 28.5833 4.25529 29.0469C6.08342 28.224 9.3855 28.401 8.96362 26.1146C8.49487 23.6042 6.948 19.5625 5.07821 19.6042C3.81258 19.6354 2.21883 19.4323 0.875081 19.7135C0.927164 20.7187 1.06779 21.7135 1.29175 22.6719C1.04696 21.724 0.859455 20.7396 0.739665 19.75C0.562581 19.7917 0.395915 19.849 0.229248 19.9115C0.338623 20.75 0.515707 21.6042 0.760498 22.4635C1.49487 25.1198 2.49487 27.4115 3.75529 29.3333Z" fill="#E54829"/>
<path d="M14.7397 6.3698C13.0678 11.1719 9.81781 10.6771 10.8699 13.4271C11.922 16.1771 15.6928 12.7813 15.9689 10.6094C16.2397 8.4323 18.422 12.2865 19.7345 11.151C21.0418 10.0104 18.2241 5.97396 17.8334 3.77084C17.7345 3.20313 17.7241 2.5 17.7709 1.78126C17.6407 1.78126 17.5105 1.78126 17.3803 1.78646C17.5105 1.76042 17.6459 1.73959 17.7761 1.71876C17.7866 1.58855 17.797 1.45313 17.8074 1.32292C16.6095 1.48959 15.4376 1.81771 14.2032 2.17188C14.198 2.17188 14.1928 2.17188 14.1876 2.17188C14.9584 3.13542 15.3907 4.5 14.7397 6.3698Z" fill="#E54829"/>
<path d="M13.349 1.34896C14.6928 0.958332 16.1615 0.765624 17.7605 0.848957C16.3751 0.947916 14.9845 1.19271 13.6199 1.57292C13.7397 1.68229 13.8542 1.79167 13.9636 1.91667C15.2136 1.58333 16.5105 1.36458 17.8126 1.27083C17.8282 1.0625 17.8542 0.854166 17.8803 0.65104C16.1511 0.552082 14.5834 0.765623 13.1511 1.19792C13.2188 1.24479 13.2813 1.29167 13.349 1.34896Z" fill="#E54829"/>
<path d="M33.078 27.6042C32.5416 28.474 31.9374 29.276 31.2395 30.0156C31.276 30.0729 31.3124 30.1354 31.3489 30.1927C31.9843 29.5156 32.5572 28.7813 33.0624 27.9896C33.0676 27.8594 33.0728 27.7344 33.078 27.6042Z" fill="#E54829"/>
<path d="M33.0312 28.4375C32.5989 29.1563 32.0937 29.8281 31.5051 30.4635C31.5833 30.5937 31.651 30.7135 31.7135 30.8281C32.151 30.3646 32.552 29.8802 32.9062 29.3698C32.9635 29.0573 33.0051 28.75 33.0312 28.4375Z" fill="#E54829"/>
<path d="M30.2082 22.2031C27.8749 23.2917 26.5364 22.4583 25.3436 21.1823C24.1509 19.9115 22.6978 12.1042 21.1509 16.2708C19.6041 20.4427 19.7186 15.1406 13.1145 19.6302C6.5051 24.125 12.7499 29.2552 14.1822 28.5469C15.6093 27.8385 17.6926 27.4896 18.8228 29.0625C19.953 30.6354 23.2707 29.0677 26.4374 27.4167C28.2863 26.4531 29.9218 28.0833 30.9634 29.6042C31.7655 28.625 32.4582 27.5469 33.0311 26.3906C32.7916 23.6875 31.6249 21.5417 30.2082 22.2031Z" fill="#E54829"/>
<path d="M30.8332 23.7292C29.3541 24.4219 28.8489 23.2552 27.7551 23.0833C23.4999 22.4271 22.5416 15.9896 21.5624 18.6302C20.5832 21.2708 20.6562 17.9167 16.4791 20.7604C12.2916 23.6042 13.4739 26.6823 14.3801 26.2344C15.2864 25.7865 19.3749 25.7344 20.0937 26.7344C20.8072 27.7292 22.4114 26.6198 26.4166 26.4792C28.0364 26.4271 30.2395 28.1354 31.3541 29.1042C31.8332 28.4792 32.2655 27.8125 32.6562 27.1094C32.6822 25.0781 31.8593 23.25 30.8332 23.7292Z" fill="#C43000"/>
<path d="M13.9635 1.1875C15.0208 0.937503 16.1562 0.807295 17.3697 0.833336C17.3697 0.765628 17.3645 0.697921 17.3593 0.630211C16.1041 0.60417 14.9374 0.739587 13.8489 1.00521C13.8853 1.0625 13.9218 1.125 13.9635 1.1875Z" fill="#C43000"/>
<path d="M15.625 6.59896C15.3802 9.92188 11.8229 12.2188 12.8698 12.6875C13.9115 13.151 15.4167 9.20313 16.2552 9.16146C17.0885 9.1198 18.3021 10.0365 17.8698 8.29167C17.625 7.28646 17.4792 4.21355 17.3958 1.78646C17.3906 1.78646 17.3854 1.78646 17.3802 1.78646C17.3854 1.78646 17.3906 1.78646 17.3958 1.78126C17.3958 1.65105 17.3906 1.51563 17.3854 1.38542C16.4271 1.54688 15.474 1.8073 14.4844 2.08855C15.1302 3.31251 15.7448 4.94271 15.625 6.59896Z" fill="#C43000"/>
<path d="M14.3386 1.82292C15.3334 1.57812 16.3595 1.40104 17.3855 1.30729C17.3803 1.16146 17.3751 1.01563 17.3751 0.875C16.2813 0.979167 15.1928 1.16667 14.1199 1.44271C14.1928 1.55729 14.2657 1.6875 14.3386 1.82292Z" fill="#C43000"/>
<path d="M3.91143 27.1875C4.55205 26.9323 6.73434 28.0729 7.4583 25.7135C8.18226 23.3542 6.13538 21.4063 5.53122 21.3385C4.92705 21.2708 3.38018 18.8854 2.04164 20.9531C0.703095 23.0208 2.51039 27.7344 3.91143 27.1875Z" fill="#C43000"/>
<path d="M12.5208 2.34896C12.7917 2.25521 13.0573 2.17188 13.3281 2.09375C13.3177 2.07813 13.3125 2.05729 13.3021 2.04167C13.2344 1.9375 13.1615 1.83333 13.0833 1.73438C12.7969 1.82292 12.5156 1.91146 12.2344 2.01042C12.3437 2.11458 12.4375 2.22396 12.5208 2.34896Z" fill="#FFC0AE"/>
<path d="M18.6668 13.5781C18.7657 13.6042 18.8699 13.625 18.9741 13.6458L19.0522 13.6615L19.1459 13.6771C19.2084 13.6875 19.2709 13.6927 19.3334 13.6927C19.8491 13.7188 20.3386 13.5 20.698 13.2188C21.0626 12.9323 21.3334 12.5885 21.573 12.2344C22.047 11.526 22.3699 10.7708 22.6459 10C22.7761 9.60938 22.9116 9.2448 23.0053 8.80209C23.0991 8.37501 23.0991 7.91146 23.0261 7.47396C22.9428 7.03646 22.797 6.64063 22.6564 6.26563C22.5157 5.89584 22.3855 5.53646 22.2866 5.16667C22.0366 4.25521 22.0157 3.29688 22.1355 2.33855C21.9011 2.27605 21.672 2.21875 21.4324 2.16667C21.4011 2.40105 21.3751 2.63542 21.3543 2.87501C21.297 3.69792 21.3543 4.55209 21.5678 5.36459C21.7709 6.17709 22.1511 6.91146 22.2709 7.60417C22.3282 7.95313 22.323 8.30209 22.2501 8.65105C22.1772 8.98438 22.0366 9.37501 21.9116 9.73438C21.6407 10.4583 21.3282 11.1719 20.9116 11.7865C20.7032 12.0885 20.4689 12.3698 20.2032 12.5729C19.9376 12.776 19.6511 12.8906 19.3699 12.875C19.3334 12.8698 19.297 12.8698 19.2657 12.8646L19.2084 12.8542L19.1407 12.8438C19.0522 12.8229 18.9584 12.7969 18.8699 12.776C18.6824 12.7292 18.5001 12.6719 18.2866 12.6198C18.073 12.5729 17.8074 12.526 17.5314 12.5781C17.2605 12.625 17.0261 12.7396 16.8334 12.8646C16.4428 13.1198 16.1511 13.4115 15.8595 13.6979C15.7814 13.7813 15.7397 13.8177 15.672 13.875C15.6043 13.9271 15.5418 13.9792 15.4636 14.0313C15.3178 14.125 15.1616 14.2188 14.9949 14.3021C14.3334 14.6354 13.6043 14.8802 12.8699 15.0208C12.5001 15.0885 12.1303 15.125 11.7709 15.1198C11.4116 15.1146 11.0626 15.0625 10.7761 14.9375C10.4845 14.8125 10.2866 14.6198 10.1772 14.3542C10.073 14.0885 10.0626 13.75 10.1147 13.401C10.2241 12.7031 10.5314 11.9896 10.8803 11.3073C11.0574 10.9583 11.2501 10.6406 11.4532 10.2865C11.6564 9.9375 11.8543 9.58855 12.047 9.22917C12.4272 8.51563 12.7761 7.78646 13.073 7.02084C13.3647 6.26042 13.6147 5.46355 13.7189 4.6198C13.7761 4.20313 13.7918 3.76563 13.7293 3.32813C13.6928 3 13.6043 2.66146 13.4636 2.34896C13.1928 2.42188 12.9324 2.50001 12.6668 2.58334C12.948 3.14063 12.9949 3.83334 12.9011 4.51563C12.8022 5.25521 12.573 5.9948 12.2918 6.71355C12.0053 7.4323 11.6668 8.13542 11.2918 8.82292C11.1095 9.17188 10.9168 9.51042 10.7136 9.84896C10.5157 10.1823 10.3022 10.5469 10.1147 10.9063C9.73448 11.6302 9.39594 12.401 9.25531 13.276C9.19281 13.7135 9.1876 14.1979 9.3751 14.6771C9.46885 14.9167 9.6199 15.1406 9.8074 15.3177C9.98969 15.5 10.2084 15.6354 10.4272 15.7344C10.8699 15.9219 11.323 15.9792 11.7553 15.9896C12.1876 15.9896 12.6147 15.9479 13.0209 15.8698C13.8491 15.7135 14.6407 15.4531 15.3907 15.0625C15.5782 14.9688 15.7605 14.8594 15.9428 14.7344C16.0366 14.6719 16.1251 14.6042 16.2136 14.5313C16.3022 14.4583 16.4011 14.3542 16.4584 14.2969C16.7293 14.0208 17.0053 13.7552 17.2866 13.5677C17.422 13.4792 17.5522 13.4167 17.672 13.401C17.7866 13.375 17.922 13.3906 18.0991 13.4323C18.2709 13.4688 18.4636 13.526 18.6668 13.5781Z" fill="#FFC0AE"/>
<path d="M21.4844 1.85416C21.7083 1.91145 21.9375 1.97395 22.1719 2.04687C22.1927 1.91666 22.2135 1.78645 22.2396 1.65624C22.0052 1.58333 21.776 1.52604 21.5521 1.47395C21.526 1.59895 21.5052 1.72916 21.4844 1.85416Z" fill="#FFC0AE"/>
<path d="M31.1198 30.1406C31.0729 30.1927 31.0208 30.2448 30.9688 30.2969C30.9896 30.3698 31.0104 30.4479 31.026 30.5208C31.0781 30.4687 31.1302 30.4167 31.1823 30.3646C31.1615 30.2865 31.1458 30.2187 31.1198 30.1406Z" fill="#FFC0AE"/>
<path d="M34.3073 19.1354C34.0573 19.3854 33.8021 19.6198 33.5417 19.849C33.4063 19.9531 33.276 20.0781 33.1458 20.1563C33.0104 20.2344 32.8594 20.2917 32.7031 20.3281C32.3854 20.3906 32.0469 20.3698 31.7188 20.3073C31.3854 20.2396 31.0625 20.1302 30.7448 20C30.1042 19.7396 29.5 19.401 28.9115 19.0313C28.3229 18.6563 27.75 18.2552 27.1927 17.8333C26.6406 17.4115 26.0781 16.9844 25.5677 16.526C25.0521 16.0625 24.5781 15.5573 24.1146 15.0313C23.8854 14.7708 23.6563 14.5052 23.4115 14.2396C23.1667 13.974 22.9115 13.7083 22.599 13.4844C22.2865 13.2604 21.8854 13.0781 21.4479 13.0885C21.0104 13.0885 20.6198 13.2865 20.3125 13.5C19.9948 13.7188 19.7292 13.9688 19.4688 14.2135C19.2136 14.4583 18.9688 14.7031 18.7136 14.9375C18.1979 15.401 17.6771 15.8021 17.0729 16.0938C16.4583 16.401 15.8073 16.6719 15.1667 16.974C14.5208 17.2708 13.8854 17.599 13.2708 17.974C12.0417 18.724 10.8958 19.6927 10.0938 20.9375C9.69793 21.5521 9.35938 22.2344 9.18751 22.9688C9.00522 23.6979 8.98959 24.474 9.13542 25.2135C9.27605 25.9531 9.57293 26.6458 9.93751 27.276C10.1198 27.5938 10.3229 27.8958 10.5156 28.1823C10.5573 28.2552 10.6042 28.3281 10.6354 28.3854C10.6458 28.4063 10.6875 28.4844 10.7188 28.5313C10.7552 28.5781 10.7917 28.625 10.8229 28.6615C10.9635 28.8229 11.1094 28.9479 11.2604 29.0625C11.8594 29.5208 12.5 29.8542 13.1719 30.1302C13.849 30.401 14.5521 30.6042 15.2917 30.6823C15.6615 30.724 16.0313 30.724 16.4115 30.6823C16.5052 30.6719 16.599 30.651 16.6927 30.6354C16.7708 30.625 16.8542 30.6042 16.9323 30.599C17.0938 30.5729 17.25 30.5625 17.4011 30.5729C17.7083 30.5833 17.9792 30.6771 18.25 30.849C18.5156 31.026 18.7917 31.2604 19.1094 31.4583C19.7292 31.875 20.4688 32.1042 21.1823 32.1979C21.5521 32.2448 21.8854 32.2708 22.2448 32.3073C22.599 32.3385 22.9531 32.3646 23.3229 32.3542C23.6875 32.349 24.0781 32.2813 24.4323 32.1458C24.7813 32 25.0938 31.7969 25.3854 31.5885C25.9636 31.1563 26.4844 30.6823 27.0052 30.2083L27.7865 29.5C28.0469 29.2552 28.3021 29.0365 28.5885 28.8542C28.8698 28.6823 29.1823 28.5469 29.4948 28.5469C29.8073 28.5417 30.099 28.7083 30.3125 28.9583C30.526 29.1979 30.6771 29.4948 30.8021 29.8021C30.849 29.7396 30.901 29.6823 30.9531 29.6198C30.8385 29.3333 30.6979 29.0469 30.4948 28.8021C30.375 28.6563 30.2344 28.526 30.0625 28.4323C29.8906 28.3333 29.6979 28.2813 29.5 28.2708C29.1042 28.2604 28.7448 28.4115 28.4271 28.5938C28.1146 28.776 27.8281 29.0156 27.5625 29.2448L26.7604 29.9271C26.224 30.3802 25.6979 30.8438 25.1406 31.2448C24.8594 31.4375 24.5729 31.6146 24.2708 31.7292C23.9688 31.8438 23.651 31.8906 23.3177 31.8906C22.9792 31.8906 22.6354 31.8594 22.2917 31.8229C21.9479 31.7813 21.5886 31.7448 21.2604 31.6927C20.5885 31.5885 19.9531 31.375 19.4115 31C19.1302 30.8177 18.875 30.5885 18.5573 30.3698C18.2448 30.151 17.8333 29.9948 17.4375 29.9792C17.2396 29.9635 17.0469 29.974 16.8594 29.9948C16.7604 30.0052 16.6719 30.0208 16.5781 30.0365C16.4948 30.0521 16.4219 30.0625 16.3386 30.0729C16.0156 30.1094 15.6875 30.1042 15.3594 30.0677C14.6979 29.9896 14.0417 29.7969 13.4115 29.5365C12.7917 29.276 12.1823 28.9479 11.6615 28.5469C11.5365 28.4479 11.4167 28.3385 11.3229 28.2344C11.2969 28.2083 11.2865 28.1823 11.2656 28.1615C11.25 28.1302 11.25 28.1354 11.2188 28.0729C11.1667 27.9792 11.1198 27.901 11.0677 27.8229C10.875 27.5208 10.6875 27.2396 10.5208 26.9427C10.1875 26.3542 9.92709 25.7344 9.8073 25.0833C9.68751 24.4375 9.70834 23.7708 9.8698 23.1354C10.026 22.5 10.3281 21.901 10.6979 21.3385C11.0677 20.776 11.5156 20.2656 12.0104 19.8073C12.5104 19.3542 13.0573 18.9479 13.6458 18.5938C14.2292 18.2344 14.8438 17.9219 15.4688 17.6198C16.099 17.3177 16.7396 17.0365 17.3802 16.7083C18.0365 16.3802 18.6406 15.9167 19.1563 15.4219C19.6823 14.9323 20.1458 14.3854 20.6615 14.0052C20.9219 13.8125 21.1927 13.6823 21.4583 13.6771C21.7344 13.6667 22.0156 13.776 22.276 13.9531C22.5365 14.1302 22.776 14.3646 23.0156 14.6146C23.2552 14.8646 23.4896 15.125 23.7292 15.3854C24.2083 15.9063 24.7083 16.4167 25.25 16.8854C25.7969 17.3542 26.3646 17.7656 26.9375 18.1823C27.5156 18.599 28.099 18.9948 28.7083 19.3594C29.3177 19.724 29.9479 20.0573 30.6198 20.3177C30.9531 20.4479 31.3021 20.5521 31.6563 20.6198C32.0156 20.6875 32.3958 20.7083 32.7656 20.625C32.9531 20.5833 33.1354 20.5104 33.3021 20.4115C33.4688 20.3021 33.5885 20.1823 33.7292 20.0677C34 19.8333 34.2552 19.5885 34.5 19.3333C34.6042 19.224 34.7031 19.1146 34.8021 19.0052C34.8021 18.875 34.8021 18.7396 34.8021 18.6042C34.6406 18.7865 34.474 18.9635 34.3073 19.1354Z" fill="#FFC0AE"/>
<path d="M35.6667 17.6302C35.4896 17.8386 35.3073 18.0469 35.1302 18.2552C35.1302 18.3906 35.1302 18.5261 35.125 18.6615C35.3125 18.4479 35.4948 18.2344 35.6771 18.0208C35.6771 17.8906 35.6719 17.7604 35.6667 17.6302Z" fill="#FFC0AE"/>
<path d="M4.91675 17.7708C5.57821 17.9375 6.23446 18.1823 6.76571 18.6094C7.02091 18.8281 7.25008 19.0886 7.40112 19.3906C7.55216 19.6979 7.64071 20.0313 7.67716 20.375L7.7605 20.3698C7.73446 20.0156 7.65633 19.6667 7.50529 19.3438C7.35425 19.0156 7.12508 18.7344 6.85946 18.4948C6.31779 18.0261 5.64071 17.7604 4.96883 17.5677C3.61467 17.1875 2.21883 17.0573 0.864665 16.8073C0.854247 16.8073 0.843831 16.8021 0.838623 16.8021C0.843831 16.9115 0.84904 17.0261 0.859456 17.1302C2.21883 17.3438 3.59383 17.4375 4.91675 17.7708Z" fill="#FFC0AE"/>
<path d="M31.2708 30.8021C31.2655 30.7761 31.2655 30.75 31.2603 30.724C31.2135 30.7708 31.1614 30.8229 31.1145 30.875C31.1458 31.0261 31.177 31.1875 31.203 31.3386C31.2499 31.2969 31.2916 31.2552 31.3333 31.2136C31.3176 31.0781 31.2968 30.9375 31.2708 30.8021Z" fill="#FFC0AE"/>
<path d="M11.9895 1.82292C12.276 1.70313 12.5728 1.59375 12.8749 1.4948C12.8176 1.44271 12.7551 1.39063 12.6978 1.33855C12.3853 1.44792 12.0833 1.56251 11.7864 1.68751C11.8593 1.72917 11.927 1.77605 11.9895 1.82292Z" fill="#FFC0AE"/>
<path d="M22.2708 1.46875C22.3021 1.32813 22.3281 1.19792 22.3594 1.0625C22.1302 1.02083 21.8958 0.984374 21.6667 0.953125C21.6354 1.08854 21.6042 1.22396 21.5781 1.36458C21.8125 1.39583 22.0417 1.42708 22.2708 1.46875Z" fill="#FFC0AE"/>
</svg>
