<svg width="32" height="31" viewBox="0 0 32 31" fill="none" xmlns="http://www.w3.org/2000/svg">
<mask id="mask0_122_2644" style="mask-type:luminance" maskUnits="userSpaceOnUse" x="0" y="0" width="32" height="31">
<path d="M0.00512695 0H31.6666V30.6667H0.00512695V0Z" fill="white"/>
</mask>
<g mask="url(#mask0_122_2644)">
<path d="M30.0729 17.0937C30.0676 17.2187 30.0729 17.3437 30.0676 17.4687C30.0468 17.7135 30.0364 17.9635 29.9999 18.2135C29.9426 18.7083 29.8281 19.1979 29.6926 19.6771C29.552 20.1615 29.3697 20.625 29.1614 21.0885C28.9426 21.5365 28.7031 21.9844 28.4218 22.4062C28.3854 22.4531 28.3541 22.5052 28.3281 22.5521C28.3541 22.4844 28.3906 22.4219 28.4218 22.3542C28.5416 22.1146 28.6301 21.8646 28.7291 21.6198C28.776 21.5 28.8124 21.3698 28.8593 21.2448C28.8958 21.1198 28.9426 20.9948 28.9739 20.8698C29.2604 19.8542 29.401 18.8021 29.4062 17.75C29.4062 16.6979 29.2812 15.651 29.0624 14.625C28.7343 12.9948 28.2708 11.3802 27.6354 9.82812C27.8801 10.2292 28.1249 10.6302 28.3489 11.0417C28.8489 11.9167 29.2604 12.8281 29.5624 13.7812C29.8645 14.7344 30.0364 15.724 30.0729 16.7187C30.0833 16.8437 30.0729 16.9687 30.0729 17.0937ZM27.3437 23.5469C27.0624 23.9687 26.7291 24.3698 26.3854 24.75C26.0312 25.125 25.6614 25.4844 25.2551 25.8021C24.276 26.599 23.1666 27.2292 21.9947 27.7135C23.5833 26.6927 25.0208 25.4167 26.1822 23.901C26.8229 23.0521 27.3854 22.1354 27.8072 21.1458C28.0208 20.6562 28.5833 18.5729 28.6406 18.0417C28.7291 17.3021 28.7187 16.5521 28.6354 15.8177C28.6458 15.2292 28.6458 14.599 28.5989 14.0417C28.6458 14.2552 28.6926 14.474 28.7395 14.6875C28.9479 15.6979 29.0624 16.724 29.0624 17.7448C29.0572 18.7708 28.9166 19.7917 28.6354 20.776C28.6093 20.901 28.5624 21.0208 28.5208 21.1406C28.4791 21.2604 28.4479 21.3854 28.3958 21.5052C28.302 21.7396 28.2135 21.9792 28.0989 22.2083C27.8906 22.6771 27.6301 23.1198 27.3437 23.5469ZM18.5312 29.1562C17.5572 29.4948 16.552 29.7292 15.5364 29.8281C15.026 29.8802 14.5156 29.8958 14.0051 29.8698C13.4999 29.849 12.9843 29.7708 12.4739 29.7187C11.4583 29.5781 10.4374 29.4323 9.44785 29.1615C8.45827 28.901 7.48952 28.5521 6.6041 28.0312C5.72389 27.5156 4.94264 26.8177 4.32285 25.9896C3.69785 25.1615 3.22389 24.2187 2.81764 23.25L2.53119 22.5156C2.43744 22.2656 2.34889 22.0156 2.27077 21.7656C2.11973 21.3177 1.99994 20.8594 1.88535 20.401C2.15619 21.1927 2.47389 21.974 2.82285 22.7448C3.27598 23.7083 3.91139 24.5885 4.6666 25.3542C4.97389 25.6719 5.31244 25.9635 5.65619 26.2396C6.3541 26.9375 7.03639 27.6406 7.89056 28.1198C9.70306 29.151 11.8697 29.6302 13.9322 29.651C14.9687 29.6615 16.0156 29.4792 17.0312 29.2917C17.151 29.2708 17.2708 29.2448 17.3958 29.2187C17.9374 29.1615 18.4791 29.0833 19.0104 28.9792C18.8541 29.0417 18.6926 29.099 18.5312 29.1562ZM2.33327 9.91666C2.56764 8.91666 2.89056 7.93228 3.39056 7.03124C3.88014 6.1302 4.55723 5.33333 5.36973 4.6927C6.17702 4.04166 7.1041 3.53645 8.05723 3.10937L8.78639 2.80208C9.02598 2.70312 9.27598 2.60937 9.52077 2.52083C9.53639 2.52083 9.54681 2.51562 9.56244 2.51041C8.84889 2.83853 8.1666 3.21874 7.51556 3.64583C7.07285 3.93228 6.65619 4.2552 6.24473 4.58853C5.84368 4.93229 5.45306 5.28124 5.09889 5.66666C4.38014 6.43229 3.81764 7.40103 3.32806 8.32812C3.1614 8.64062 3.01556 8.96353 2.88014 9.29687C2.61452 9.73437 2.37494 10.1979 2.1666 10.6667C2.21348 10.4167 2.27077 10.1667 2.33327 9.91666ZM17.2916 1.58853C18.5676 1.74999 19.8176 2.10937 20.9739 2.66145C20.9739 2.66145 20.9687 2.66145 20.9635 2.65624C20.6979 2.57291 20.4218 2.49999 20.151 2.43749C20.0729 2.41666 19.9999 2.38541 19.9218 2.36458C18.901 2.04687 17.8489 1.86458 16.7864 1.7552C15.7291 1.65103 14.6614 1.61978 13.5937 1.66666C13.0676 1.69791 12.526 1.73437 12.0104 1.88541C11.7916 1.94791 11.5364 1.97395 11.2812 1.99999C13.2395 1.52603 15.2864 1.33333 17.2916 1.58853ZM26.5937 8.33853C26.4374 8.10416 26.276 7.86978 26.1041 7.64062C26.2291 7.80208 26.3541 7.96353 26.4739 8.12499L26.5937 8.33853ZM7.22389 27.2969C9.09889 28.349 11.2083 28.9635 13.3437 29.2031C14.4114 29.3281 15.4895 29.3437 16.5572 29.2917C16.7291 29.276 16.8958 29.2656 17.0624 29.25C17.052 29.25 17.0416 29.2552 17.026 29.2552C16.0104 29.4427 14.9791 29.5104 13.9479 29.5C11.8958 29.474 9.87494 28.9271 8.07285 27.901C7.45827 27.5521 6.85931 27.1667 6.30723 26.7187C6.6041 26.9219 6.91139 27.1198 7.22389 27.2969ZM1.55723 15.8698C1.53119 16.3021 1.51556 16.7292 1.51556 17.1615C1.48952 16.9948 1.46348 16.8333 1.43744 16.6719C1.41139 16.4792 1.38535 16.2917 1.36973 16.099C1.36973 15.3906 1.42181 14.6771 1.52598 13.974C1.51035 14.151 1.49994 14.3333 1.49473 14.5104C1.48431 14.9687 1.50514 15.4219 1.55723 15.8698ZM2.09369 12.2292C1.96348 12.7448 1.85931 13.2604 1.77598 13.7812C1.80202 13.5156 1.82806 13.2448 1.8489 12.9792C1.88014 12.6771 1.9166 12.375 1.95306 12.0781C2.05723 11.7396 2.17702 11.401 2.31244 11.0729C2.22389 11.4583 2.15098 11.8437 2.09369 12.2292ZM25.4791 23.5469C25.6041 23.3802 25.7239 23.2135 25.8385 23.0365C25.9895 22.8125 26.1249 22.5885 26.2551 22.3646C26.1926 22.4792 26.1301 22.5937 26.0676 22.7083C25.8749 23.0417 25.6718 23.3646 25.4479 23.6719C25.3541 23.8021 25.2551 23.9323 25.1562 24.0573C25.2708 23.8906 25.3749 23.7187 25.4791 23.5469ZM24.3072 24.9271C24.302 24.9323 24.2916 24.9375 24.2864 24.9427C24.3176 24.9115 24.3489 24.875 24.3854 24.8437C24.3645 24.8646 24.3437 24.8854 24.3281 24.9115C24.3229 24.9167 24.3124 24.9219 24.3072 24.9271ZM22.5937 26.6094C22.8281 26.3906 23.0572 26.1719 23.276 25.9375C23.4114 25.849 23.5416 25.7552 23.677 25.6615C23.3958 25.9635 23.0989 26.25 22.7864 26.5156C22.4583 26.7917 22.1093 27.0521 21.7447 27.2917C22.0364 27.0781 22.3229 26.849 22.5937 26.6094ZM3.20827 22.5677C2.78119 21.6302 2.39577 20.6667 2.1041 19.6823C1.90098 19.0104 1.73431 18.3281 1.6041 17.6458C1.59369 17.224 1.6041 16.7969 1.61973 16.375C1.76035 17.3177 2.00514 18.2396 2.33848 19.125C2.70306 20.1146 3.17181 21.0573 3.71868 21.9583C4.81764 23.75 6.24473 25.3594 7.95827 26.625C8.81764 27.2448 9.74473 27.7917 10.7395 28.1927C11.0833 28.3333 11.4374 28.4583 11.7916 28.5625C10.2604 28.2448 8.78119 27.7135 7.42702 26.9479C6.97389 26.6927 6.5416 26.401 6.12494 26.099C5.71869 25.776 5.32806 25.4427 4.96348 25.0729C4.24473 24.3385 3.64056 23.4948 3.20827 22.5677ZM2.38014 17.5521C2.59889 18.5677 2.93223 19.5625 3.40098 20.5C3.67181 21.0469 3.99473 21.5729 4.3541 22.0677C4.48431 22.2656 4.61973 22.4635 4.76035 22.6562C6.17181 25.026 8.39056 26.9948 11.3906 28.0052C11.6874 28.1042 11.9895 28.1927 12.2916 28.2708C12.3801 28.3021 12.4687 28.3333 12.5572 28.3646C13.1093 28.5417 13.6666 28.6875 14.2343 28.8021C14.1145 28.7917 13.9895 28.7812 13.8645 28.7708C13.3385 28.724 12.8176 28.6406 12.3072 28.5104C11.802 28.3802 11.2968 28.2135 10.8124 28.0156C9.83848 27.6198 8.92702 27.0781 8.08327 26.4635C6.39577 25.2135 4.98952 23.6198 3.90619 21.849C3.36973 20.9583 2.90619 20.026 2.55202 19.0521C2.19264 18.0833 1.93744 17.0781 1.81244 16.0573C1.76035 15.6615 1.73431 15.2708 1.7291 14.875C1.74473 14.7396 1.75514 14.599 1.77598 14.4635C1.83327 14.0052 1.90619 13.5521 1.99473 13.1042C1.95827 13.5521 1.94264 14 1.94785 14.4427C1.96348 15.4792 2.1666 16.5312 2.38014 17.5521ZM8.79681 4.23437C8.78119 4.23958 8.76556 4.24999 8.74473 4.2552C8.80202 4.22395 8.85931 4.1927 8.9166 4.16145C8.87494 4.18749 8.83848 4.20833 8.79681 4.23437ZM17.052 2.16145C16.4999 2.17708 15.9583 2.23437 15.4166 2.31249C15.2031 2.33333 14.9947 2.35937 14.7864 2.38541C14.0156 2.42708 13.2239 2.54166 12.427 2.73437C11.6249 2.93229 10.8593 3.20312 10.1301 3.53645C11.2968 2.98437 12.526 2.5677 13.7968 2.32812C14.8645 2.12499 15.9687 2.06249 17.052 2.16145ZM24.7083 6.08853C23.9635 5.39062 23.1406 4.77083 22.2656 4.22916C21.3906 3.6927 20.4687 3.22916 19.5156 2.83853C19.276 2.74479 19.0416 2.64583 18.7916 2.56249C19.0364 2.59374 19.2812 2.62499 19.5208 2.66666C19.6249 2.70312 19.7343 2.73958 19.8385 2.78124C20.7916 3.1302 21.6926 3.61458 22.526 4.18749L23.1406 4.6302L23.7239 5.11458C23.9218 5.27083 24.0989 5.44791 24.2812 5.61978L24.5572 5.8802C24.5989 5.92187 24.6406 5.95833 24.677 5.99999C24.7343 6.06249 24.7968 6.12499 24.8541 6.1927C24.8958 6.24479 24.9374 6.29687 24.9791 6.34895C24.8906 6.26041 24.802 6.17708 24.7083 6.08853ZM26.6301 8.76041C26.8229 9.11458 27.0051 9.47916 27.1614 9.84895C26.2916 8.01041 24.9531 6.34895 23.2812 5.06249C23.7499 5.40624 24.2031 5.77604 24.6249 6.17708C25.0885 6.60937 25.5208 7.08333 25.9062 7.58333C26.1614 7.96353 26.4062 8.35937 26.6301 8.76041ZM27.1666 13.0781C27.0104 12.4896 26.8124 11.9167 26.5781 11.3594L26.5312 11.25L26.1822 10.4479C26.1614 10.3958 26.1354 10.3437 26.1093 10.2865C26.4999 10.8073 26.8593 11.3594 27.177 11.9271C27.427 12.3906 27.6562 12.8646 27.8437 13.3542C27.9374 13.599 28.0208 13.849 28.0937 14.0937C28.0989 14.3021 28.0989 14.5104 28.0885 14.7135C28.052 15.5052 27.9374 16.2865 27.7447 17.0573C27.7395 15.7083 27.5364 14.3698 27.1666 13.0781ZM16.8437 28.5677C16.3906 28.6719 15.927 28.7448 15.4583 28.7812C15.0468 28.7448 14.6406 28.6823 14.2343 28.6042C15.1093 28.6823 15.9843 28.6719 16.8437 28.5677ZM2.1041 14.5781C2.17702 15.5937 2.36973 16.5937 2.57806 17.5885C2.69264 18.0833 2.7916 18.5729 2.93223 19.0677C3.07806 19.5573 3.26556 20.0365 3.4791 20.5C3.65098 20.8698 3.83848 21.2292 4.04681 21.5781C3.82285 21.224 3.61452 20.8594 3.42702 20.4844C2.96348 19.5521 2.63014 18.5625 2.4166 17.5469C2.21348 16.5625 2.11973 15.5573 2.1041 14.5573C2.1041 14.5625 2.1041 14.5677 2.1041 14.5781ZM3.1614 19.0104C3.06244 18.5417 2.99473 18.0521 2.96348 17.5365C2.99994 17.6979 3.0416 17.8594 3.07806 18.0156C3.21869 18.849 3.42702 19.6771 3.72389 20.4792C3.71348 20.4531 3.69785 20.4323 3.68744 20.4062C3.4791 19.9531 3.30202 19.4896 3.1614 19.0104ZM15.6458 3.95312C15.0104 3.93749 14.3749 3.96874 13.7499 4.05728C12.4583 4.23437 11.1979 4.62499 10.026 5.20312C10.1093 5.15624 10.1874 5.10416 10.2708 5.05728C10.9374 4.70312 11.6354 4.39062 12.3541 4.14062C12.9062 3.96353 13.4687 3.80729 14.0416 3.6927C14.776 3.58853 15.5104 3.55729 16.2239 3.58853C16.7708 3.6927 17.3072 3.83853 17.8333 4.02603C17.8385 4.02603 17.8437 4.02603 17.8489 4.03124C17.1822 3.95312 16.4479 3.91666 15.6458 3.95312ZM24.2604 7.80728C24.4843 8.03124 24.6979 8.27083 24.8906 8.52603C24.901 8.54166 24.9114 8.55728 24.9218 8.57812C24.7135 8.31249 24.4895 8.05728 24.2604 7.80728ZM24.2395 8.29687C24.177 8.19791 24.0364 8.03645 23.8281 7.83333C23.9791 7.97395 24.1249 8.11458 24.276 8.2552C24.3072 8.28124 24.3385 8.31249 24.3697 8.33853C24.8541 8.90624 25.2864 9.52083 25.6562 10.1667C26.1458 11.026 26.5312 11.9427 26.7968 12.8958C25.8593 10.3646 24.4322 8.59374 24.2395 8.29687ZM9.06244 5.93749C9.15619 5.8802 9.25514 5.8177 9.3541 5.76041C10.0833 5.33854 10.8593 4.99478 11.6614 4.73958C10.8229 5.03124 9.95306 5.42708 9.06244 5.93749ZM22.1093 6.55728C22.0676 6.46874 22.026 6.38541 21.9843 6.29687L22.5208 6.70312L23.1197 7.20312C23.302 7.34895 23.4739 7.5052 23.6458 7.66666C23.2812 7.33853 22.7708 6.9427 22.1093 6.55728ZM6.50514 7.68749C6.50514 7.6927 6.49473 7.70312 6.48952 7.70833L6.42181 7.78645C6.42181 7.79166 6.4166 7.79166 6.41139 7.79687C6.44264 7.76041 6.47389 7.72395 6.50514 7.68749ZM2.4739 11.5573C2.52077 11.2969 2.58327 11.0417 2.6614 10.7917C2.7864 10.4844 2.92702 10.1823 3.08848 9.89583C3.21869 9.67187 3.3541 9.44791 3.51556 9.23958C3.67181 9.03124 3.8541 8.83853 4.02598 8.64062C4.4166 8.1927 4.82806 7.77083 5.25514 7.36458C3.58327 9.49478 2.56764 12.1458 2.48952 14.9844C2.4791 15.2917 2.48431 15.5885 2.49994 15.8802C2.43223 15.4427 2.37494 15 2.34369 14.5521C2.27077 13.5521 2.27598 12.5417 2.4739 11.5573ZM27.677 12.0677C27.7968 12.4271 27.9218 12.7865 28.0208 13.1562C28.0312 13.1927 28.0416 13.2344 28.052 13.2708C28.0572 13.3333 28.0624 13.3958 28.0676 13.4583C28.0468 13.401 28.026 13.3437 28.0051 13.2865C27.8124 12.7917 27.5781 12.3073 27.3281 11.8385C26.8749 11.0417 26.3489 10.2865 25.7656 9.58853C25.7343 9.52603 25.7031 9.46353 25.6666 9.40103C25.4843 9.05729 25.2604 8.73437 25.026 8.42187C24.401 7.59895 23.5989 6.92708 22.7135 6.41145C22.3385 6.12499 21.9426 5.86458 21.5364 5.62499C21.0104 4.98958 20.302 4.53124 19.4843 4.32812C19.1874 4.2552 18.8541 4.18229 18.4947 4.12499C18.2916 4.04166 18.0885 3.95833 17.8801 3.88541C17.6458 3.80208 17.4114 3.72916 17.1718 3.66145C20.7135 4.08853 23.8229 6.03645 25.9218 8.62499C25.9999 8.74479 26.0781 8.86978 26.1562 8.99478C26.3697 9.31249 26.5468 9.65103 26.7395 9.97916C26.9062 10.3229 27.0937 10.6562 27.2395 11.0104C27.401 11.3542 27.5364 11.7135 27.677 12.0677ZM18.7551 2.66145C18.9947 2.73958 19.2343 2.83853 19.4739 2.93228C19.9739 3.14062 20.4687 3.36978 20.9531 3.61978C19.8176 3.07812 18.5937 2.68749 17.302 2.49478C17.4895 2.49478 17.677 2.49478 17.8645 2.49999C17.9843 2.49999 18.1041 2.5052 18.2239 2.51562C18.401 2.55208 18.5833 2.59895 18.7551 2.66145ZM4.43744 7.72395C4.98952 7.12499 5.6041 6.58333 6.25514 6.09895L6.80202 5.71353C6.44264 6.03124 6.10931 6.36978 5.7916 6.72395C5.14056 7.29687 4.52077 7.91145 3.94785 8.5677C3.77598 8.76562 3.59889 8.95833 3.43744 9.17187C3.33327 9.30729 3.23952 9.44791 3.15098 9.58853C3.2916 9.31249 3.44264 9.04687 3.61452 8.78645C3.86452 8.41666 4.14056 8.06249 4.43744 7.72395ZM21.3645 27.526C20.5364 28.0052 19.6354 28.375 18.6979 28.5833C18.1979 28.6979 17.6874 28.7708 17.1718 28.8073C16.9374 28.8229 16.7031 28.8281 16.4687 28.8281C16.6614 28.7917 16.8541 28.7552 17.0416 28.7083C17.4635 28.6042 17.8749 28.4687 18.2812 28.3125C19.8333 27.9427 21.3072 27.2812 22.6249 26.3542C22.7916 26.25 22.9635 26.1406 23.1354 26.0312C22.9583 26.2292 22.776 26.4167 22.5781 26.5885C22.1979 26.9323 21.7916 27.2448 21.3645 27.526ZM24.927 5.80728C24.8801 5.76041 24.8333 5.71353 24.7812 5.66666L24.4999 5.40103C24.3124 5.22395 24.1354 5.04166 23.9322 4.88541L23.3333 4.39062L22.9583 4.12499C22.8749 4.04687 22.7864 3.96874 22.6979 3.89062C22.5833 3.79687 22.4687 3.70312 22.3541 3.60937C22.6926 3.78124 23.0208 3.97395 23.3333 4.18749C23.9166 4.67708 24.4479 5.22395 24.927 5.80728ZM11.9947 2.15624C12.5051 2.0052 13.0364 1.97395 13.5624 1.9427C13.8906 1.93229 14.2135 1.92708 14.5416 1.92708C14.2708 1.95833 14.0104 1.99999 13.7447 2.05208C11.677 2.44791 9.72389 3.31249 7.95827 4.42708C7.52077 4.70833 7.08848 5.0052 6.67181 5.32291C6.46869 5.47916 6.26556 5.64583 6.06244 5.81249L5.50514 6.29687C4.92702 6.77603 4.39056 7.30208 3.90619 7.8802C4.31244 7.18749 4.77598 6.52603 5.32806 5.93749C5.68223 5.55729 6.07285 5.20833 6.47389 4.86978C6.88014 4.54166 7.29681 4.21874 7.73952 3.93749C8.61452 3.35416 9.55723 2.87499 10.5364 2.47395C11.026 2.28124 11.4895 2.29687 11.9947 2.15624ZM20.8697 28.1198C20.5885 28.2135 20.302 28.2969 20.0104 28.3698C20.5729 28.151 21.1197 27.8854 21.6406 27.5677C22.0833 27.2917 22.5051 26.9792 22.901 26.6406C23.2968 26.3021 23.6666 25.9323 24.0156 25.5469C24.1093 25.4427 24.1979 25.3385 24.2864 25.2292C24.3385 25.1927 24.3906 25.151 24.4426 25.1146C24.6093 24.9896 24.7499 24.8542 24.8854 24.7135C25.1614 24.4271 25.4062 24.125 25.6354 23.8073C26.0885 23.1719 26.4739 22.4844 26.7812 21.7708C27.2343 20.724 27.526 19.6146 27.6614 18.4844L27.6874 18.3958L27.7812 18.0208L27.9635 17.276C28.1301 16.4583 28.2395 15.625 28.2812 14.7865C28.2864 14.8125 28.2916 14.8437 28.2968 14.8698C28.5156 15.901 28.5833 16.9687 28.4583 18.0208C28.401 18.5469 28.302 19.0677 28.1614 19.5781C28.0208 20.0833 27.8437 20.5833 27.6301 21.0677C27.2135 22.0365 26.6614 22.9375 26.026 23.776C24.7447 25.4375 23.1249 26.8125 21.3385 27.8594C21.1822 27.9479 21.026 28.0365 20.8697 28.1198ZM30.4166 16.7031C30.3749 15.6771 30.1979 14.6562 29.8854 13.6823C29.5729 12.7083 29.1458 11.7708 28.6406 10.8854C28.0676 9.86979 27.4374 8.8802 26.7395 7.9427C26.6145 7.71874 26.4999 7.49478 26.3541 7.28124L26.1874 7.02083C27.0885 8.09374 27.2031 7.77603 26.0624 6.28124C25.7395 5.85416 25.3801 5.45833 25.0051 5.08333C24.6197 4.71874 24.2187 4.36979 23.7864 4.06249C23.5624 3.90624 23.3385 3.76041 23.1145 3.62499C21.4531 2.34374 19.4114 1.56249 17.3281 1.30728C15.1926 1.04166 13.0208 1.26562 10.9583 1.80208C10.4426 1.9427 9.92702 2.08853 9.42702 2.27083C9.17702 2.35937 8.92702 2.45312 8.67702 2.55728L7.94785 2.86978C6.9791 3.30728 6.03119 3.82291 5.20306 4.49478C4.36973 5.15624 3.6666 5.98437 3.1614 6.91145C2.65619 7.84374 2.32806 8.84895 2.08848 9.86458C1.93744 10.4948 1.83327 11.1354 1.74473 11.7812C1.5416 12.4115 1.38535 13.0573 1.27598 13.7135C1.31244 12.651 1.44785 11.5937 1.68744 10.5625C1.9166 9.56249 2.24473 8.58853 2.6614 7.65103C2.87494 7.18229 3.10931 6.72916 3.36452 6.28645C3.49473 6.06249 3.63014 5.84374 3.77598 5.63541C3.87494 5.48437 3.9791 5.33333 4.08848 5.1927C4.1614 5.09895 4.14577 4.95833 4.05202 4.88541C3.94785 4.79687 3.7916 4.8177 3.71348 4.92187C3.5989 5.07812 3.48952 5.22916 3.38535 5.38541C3.23431 5.60416 3.09889 5.83333 2.96348 6.06249C2.69785 6.51562 2.45306 6.98958 2.23952 7.46874C1.81244 8.43229 1.4739 9.43749 1.24473 10.4635C0.775978 12.5156 0.703061 14.6458 1.00514 16.7292C1.04681 17.026 1.09889 17.3281 1.15619 17.625C1.23431 18.5312 1.38014 19.4271 1.58327 20.3073C1.71348 20.8281 1.8489 21.349 2.01556 21.8542C2.0989 22.1094 2.18744 22.3646 2.28119 22.6146L2.57806 23.3594C2.98952 24.3385 3.4791 25.3021 4.12494 26.151C4.76556 27.0052 5.57285 27.7292 6.4791 28.2552C7.39056 28.7865 8.38535 29.1406 9.38535 29.4062C10.3906 29.6771 11.4218 29.8229 12.4479 29.9583C12.9635 30.0104 13.4687 30.0833 13.9947 30.1094C14.5156 30.1354 15.0364 30.1146 15.552 30.0625C16.5937 29.9583 17.6145 29.7187 18.5989 29.3698C19.1562 29.1771 19.6979 28.9531 20.2291 28.6927C22.1354 28.1771 23.9583 27.3177 25.4895 26.0781C25.9062 25.7448 26.2916 25.375 26.6562 24.9896C27.0104 24.5885 27.3489 24.1771 27.6406 23.7344C27.6874 23.6667 27.7291 23.6042 27.7708 23.5365C27.5572 24.0573 27.927 23.8021 28.7187 22.5885C29.0104 22.151 29.2551 21.6927 29.4791 21.224C29.6926 20.75 29.8906 20.2656 30.026 19.7656C30.1666 19.2708 30.2812 18.7604 30.3385 18.25C30.3801 17.9948 30.3906 17.7344 30.4114 17.4792C30.4166 17.349 30.4114 17.2187 30.4166 17.0885C30.4166 16.9635 30.4218 16.8333 30.4166 16.7031Z" fill="#9B7367"/>
</g>
<mask id="mask1_122_2644" style="mask-type:luminance" maskUnits="userSpaceOnUse" x="0" y="6" width="21" height="25">
<path d="M0.00512695 6.66667H20.9999V30.6667H0.00512695V6.66667Z" fill="white"/>
</mask>
<g mask="url(#mask1_122_2644)">
<path d="M18.5312 29.1563C17.5572 29.4948 16.552 29.7292 15.5364 29.8281C15.026 29.8802 14.5156 29.8958 14.0051 29.8698C13.4999 29.849 12.9843 29.7708 12.4739 29.7188C11.4583 29.5781 10.4374 29.4323 9.44785 29.1615C8.45827 28.9011 7.48952 28.5521 6.6041 28.0313C5.72389 27.5156 4.94264 26.8177 4.32285 25.9896C3.69785 25.1615 3.22389 24.2188 2.81764 23.25L2.53119 22.5156C2.43744 22.2656 2.34889 22.0156 2.27077 21.7656C2.11973 21.3177 1.99994 20.8594 1.88535 20.4011C2.15619 21.1927 2.47389 21.974 2.82285 22.7448C3.27598 23.7083 3.91139 24.5886 4.6666 25.3542C4.97389 25.6719 5.31244 25.9636 5.65619 26.2396C6.3541 26.9375 7.03639 27.6406 7.89056 28.1198C9.70306 29.1511 11.8697 29.6302 13.9322 29.6511C14.9687 29.6615 16.0156 29.4792 17.0312 29.2917C17.151 29.2708 17.2708 29.2448 17.3958 29.2188C17.9374 29.1615 18.4791 29.0833 19.0104 28.9792C18.8541 29.0417 18.6926 29.099 18.5312 29.1563ZM1.61973 16.375C1.76035 17.3177 2.00514 18.2396 2.33848 19.125C2.70306 20.1146 3.17181 21.0573 3.71868 21.9583C4.81764 23.75 6.24473 25.3594 7.95827 26.625C8.81764 27.2448 9.74473 27.7917 10.7395 28.1927C11.0833 28.3333 11.4374 28.4583 11.7916 28.5625C10.2604 28.2448 8.78119 27.7136 7.42702 26.9479C6.97389 26.6927 6.5416 26.4011 6.12494 26.099C5.71869 25.7761 5.32806 25.4427 4.96348 25.0729C4.24473 24.3386 3.64056 23.4948 3.20827 22.5677C2.78119 21.6302 2.39577 20.6667 2.1041 19.6823C1.90098 19.0104 1.73431 18.3281 1.6041 17.6458C1.59369 17.224 1.6041 16.7969 1.61973 16.375ZM1.77598 14.4636C1.83327 14.0052 1.90619 13.5521 1.99473 13.1042C1.95827 13.5521 1.94264 14 1.94785 14.4427C1.96348 15.4792 2.1666 16.5313 2.38014 17.5521C2.59889 18.5677 2.93223 19.5625 3.40098 20.5C3.67181 21.0469 3.99473 21.5729 4.3541 22.0677C4.48431 22.2656 4.61973 22.4636 4.76035 22.6563C6.17181 25.0261 8.39056 26.9948 11.3906 28.0052C11.6874 28.1042 11.9895 28.1927 12.2916 28.2708C12.3801 28.3021 12.4687 28.3333 12.5572 28.3646C13.1093 28.5417 13.6666 28.6875 14.2343 28.8021C14.1145 28.7917 13.9895 28.7813 13.8645 28.7708C13.3385 28.724 12.8176 28.6406 12.3072 28.5104C11.802 28.3802 11.2968 28.2136 10.8124 28.0156C9.83848 27.6198 8.92702 27.0781 8.08327 26.4636C6.39577 25.2136 4.98952 23.6198 3.90619 21.849C3.36973 20.9583 2.90619 20.0261 2.55202 19.0521C2.19264 18.0833 1.93744 17.0781 1.81244 16.0573C1.76035 15.6615 1.73431 15.2708 1.7291 14.875C1.74473 14.7396 1.75514 14.599 1.77598 14.4636ZM1.8489 12.9792C1.88014 12.6771 1.9166 12.375 1.95306 12.0781C2.05723 11.7396 2.17702 11.4011 2.31244 11.0729C2.22389 11.4583 2.15098 11.8438 2.09369 12.2292C1.96348 12.7448 1.85931 13.2604 1.77598 13.7813C1.80202 13.5156 1.82806 13.2448 1.8489 12.9792ZM2.6614 10.7917C2.7864 10.4844 2.92702 10.1823 3.08848 9.89584C3.21869 9.67188 3.3541 9.44793 3.51556 9.23959C3.67181 9.03126 3.8541 8.83855 4.02598 8.64064C4.4166 8.19272 4.82806 7.77084 5.25514 7.36459C3.58327 9.4948 2.56764 12.1458 2.48952 14.9844C2.4791 15.2917 2.48431 15.5886 2.49994 15.8802C2.43223 15.4427 2.37494 15 2.34369 14.5521C2.27077 13.5521 2.27598 12.5417 2.4739 11.5573C2.52077 11.2969 2.58327 11.0417 2.6614 10.7917ZM2.93223 19.0677C3.07806 19.5573 3.26556 20.0365 3.4791 20.5C3.65098 20.8698 3.83848 21.2292 4.04681 21.5781C3.82285 21.224 3.61452 20.8594 3.42702 20.4844C2.96348 19.5521 2.63014 18.5625 2.4166 17.5469C2.21348 16.5625 2.11973 15.5573 2.1041 14.5573C2.1041 14.5625 2.1041 14.5677 2.1041 14.5781C2.17702 15.5938 2.36973 16.5938 2.57806 17.5886C2.69264 18.0833 2.7916 18.5729 2.93223 19.0677ZM3.07806 18.0156C3.21869 18.849 3.42702 19.6771 3.72389 20.4792C3.71348 20.4531 3.69785 20.4323 3.68744 20.4063C3.4791 19.9531 3.30202 19.4896 3.1614 19.0104C3.06244 18.5417 2.99473 18.0521 2.96348 17.5365C2.99994 17.6979 3.0416 17.8594 3.07806 18.0156ZM16.8437 28.5677C16.3906 28.6719 15.927 28.7448 15.4583 28.7813C15.0468 28.7448 14.6406 28.6823 14.2343 28.6042C15.1093 28.6823 15.9843 28.6719 16.8437 28.5677ZM16.5572 29.2917C16.7291 29.2761 16.8958 29.2656 17.0624 29.25C17.052 29.25 17.0416 29.2552 17.026 29.2552C16.0104 29.4427 14.9791 29.5104 13.9479 29.5C11.8958 29.474 9.87494 28.9271 8.07285 27.9011C7.45827 27.5521 6.85931 27.1667 6.30723 26.7188C6.6041 26.9219 6.91139 27.1198 7.22389 27.2969C9.09889 28.349 11.2083 28.9636 13.3437 29.2031C14.4114 29.3281 15.4895 29.3438 16.5572 29.2917ZM1.51556 17.1615C1.48952 16.9948 1.46348 16.8333 1.43744 16.6719C1.41139 16.4792 1.38535 16.2917 1.36973 16.099C1.36973 15.3906 1.42181 14.6771 1.52598 13.974C1.51035 14.1511 1.49994 14.3333 1.49473 14.5104C1.48431 14.9688 1.50514 15.4219 1.55723 15.8698C1.53119 16.3021 1.51556 16.7292 1.51556 17.1615ZM20.0104 28.3698C20.0676 28.349 20.1301 28.3229 20.1874 28.2969C20.1614 28.2448 20.1301 28.1979 20.0989 28.1458C19.6458 28.3281 19.177 28.474 18.6979 28.5833C18.1979 28.6979 17.6874 28.7708 17.1718 28.8073C16.9374 28.8229 16.7031 28.8281 16.4687 28.8281C16.6614 28.7917 16.8541 28.7552 17.0416 28.7083C17.4635 28.6042 17.8749 28.4688 18.2812 28.3125C18.8229 28.1823 19.3645 28.0156 19.8854 27.8177C18.3697 25.6719 15.5416 24.9375 12.302 24.5781C8.09369 24.1094 8.02077 22.2344 4.12494 18.6406C0.234311 15.0417 5.6041 14.8906 6.38535 9.33855C6.54681 8.17709 6.05723 7.54168 5.19785 7.26564C4.76035 7.67709 4.34369 8.11459 3.94785 8.56772C3.77598 8.76564 3.59889 8.95834 3.43744 9.17189C3.33327 9.3073 3.23952 9.44793 3.15098 9.58855C3.2916 9.31251 3.44264 9.04688 3.61452 8.78647C3.86452 8.41668 4.14056 8.06251 4.43744 7.72397C4.6041 7.54688 4.77598 7.3698 4.95306 7.19793C4.83848 7.17188 4.71348 7.15105 4.58327 7.13543C4.34369 7.37501 4.11973 7.6198 3.90619 7.88022C4.05723 7.6198 4.21869 7.35939 4.39056 7.10939C4.27598 7.10418 4.15098 7.10418 4.02598 7.09897C3.77598 7.50001 3.54681 7.91668 3.32806 8.32814C3.1614 8.64064 3.01556 8.96355 2.88014 9.29689C2.61452 9.73439 2.37494 10.1979 2.1666 10.6667C2.21348 10.4167 2.27077 10.1667 2.33327 9.91668C2.56244 8.94793 2.87494 7.9948 3.34369 7.11459C3.24473 7.12501 3.14577 7.13022 3.0416 7.14064C2.6041 8.00522 2.30723 8.9323 2.08848 9.86459C1.93744 10.4948 1.83327 11.1354 1.74473 11.7813C1.5416 12.4115 1.38535 13.0573 1.27598 13.7136C1.31244 12.6511 1.44785 11.5938 1.68744 10.5625C1.9166 9.56251 2.24473 8.58855 2.6614 7.65105C2.73952 7.48439 2.81764 7.32293 2.89577 7.15626C2.71869 7.17709 2.5364 7.20834 2.3489 7.23439C2.31244 7.31251 2.27598 7.39064 2.23952 7.46876C1.81244 8.4323 1.4739 9.43751 1.24473 10.4636C0.775978 12.5156 0.703061 14.6458 1.00514 16.7292C1.04681 17.0261 1.09889 17.3281 1.15619 17.625C1.23431 18.5313 1.38014 19.4271 1.58327 20.3073C1.71348 20.8281 1.8489 21.349 2.01556 21.8542C2.0989 22.1094 2.18744 22.3646 2.28119 22.6146L2.57806 23.3594C2.98952 24.3386 3.4791 25.3021 4.12494 26.1511C4.76556 27.0052 5.57285 27.7292 6.4791 28.2552C7.39056 28.7865 8.38535 29.1406 9.38535 29.4063C10.3906 29.6771 11.4218 29.8229 12.4479 29.9583C12.9635 30.0104 13.4687 30.0833 13.9947 30.1094C14.5156 30.1354 15.0364 30.1146 15.552 30.0625C16.5937 29.9583 17.6145 29.7188 18.5989 29.3698C19.1562 29.1771 19.6979 28.9531 20.2291 28.6927C20.276 28.6823 20.3229 28.6667 20.3749 28.6563C20.3176 28.5365 20.2604 28.4271 20.1979 28.3177C20.1354 28.3386 20.0729 28.3542 20.0104 28.3698Z" fill="#75574D"/>
</g>
<path d="M20.8958 27.9323C20.8905 27.8854 20.8801 27.8385 20.8749 27.7917C20.776 27.8438 20.6822 27.8906 20.5885 27.9323C20.5885 27.9531 20.5937 27.9688 20.5937 27.9896L20.6041 28.026C20.6041 28.0365 20.5989 28.0365 20.5989 28.0417C20.5989 28.0521 20.5937 28.0573 20.5937 28.0677C20.5989 28.0885 20.5885 28.1094 20.5833 28.1302C20.6926 28.0781 20.7968 28.026 20.901 27.974C20.9062 27.974 20.9062 27.9688 20.9062 27.9635L20.8958 27.9323Z" fill="#75574D"/>
<path d="M8.69788 20.5052C9.0885 20.8906 9.49996 21.2969 9.98433 21.6875C10.1041 21.7865 10.2395 21.875 10.3645 21.9688L10.5573 22.1094L10.7656 22.2344C10.901 22.3177 11.0364 22.4063 11.177 22.4792C11.3229 22.5521 11.4687 22.6198 11.6093 22.6875C11.7552 22.7604 11.901 22.8073 12.0416 22.8646C12.1875 22.9167 12.3333 22.9792 12.4739 23.0208C12.6145 23.0625 12.7552 23.099 12.8958 23.1406L13.1041 23.1979C13.177 23.2136 13.2395 23.224 13.3073 23.2396C13.4479 23.2656 13.5781 23.2917 13.7135 23.3177L13.9114 23.3594L14.1041 23.3854C14.3541 23.4219 14.5989 23.4531 14.8385 23.4844C15.052 23.5156 15.2552 23.5417 15.4635 23.5677C15.6614 23.6042 15.8541 23.6354 16.0468 23.6667C16.802 23.8125 17.4739 24 18.0156 24.2292C17.1614 23.9896 16.2291 23.8281 15.276 23.7083L14.9166 23.6667L14.7395 23.6458L14.5312 23.6198C14.3854 23.599 14.2448 23.5781 14.1041 23.5625L13.8906 23.5313L13.6666 23.4896C13.375 23.4271 13.0885 23.375 12.7864 23.2813C12.6406 23.2396 12.4895 23.1979 12.3437 23.1511C12.1979 23.0938 12.0468 23.0365 11.901 22.9792L11.6979 22.8958C11.6354 22.8698 11.5677 22.8333 11.5052 22.8021C11.375 22.7344 11.2448 22.6667 11.1145 22.6042C10.9843 22.5365 10.8645 22.4531 10.7448 22.3802C10.6302 22.3021 10.5 22.2292 10.3958 22.1458C10.177 21.9792 9.95308 21.8177 9.77079 21.6458C9.67183 21.5625 9.57808 21.474 9.48433 21.3906C9.401 21.3073 9.31767 21.2292 9.23433 21.1458C8.57288 20.4844 8.07808 19.9011 7.59892 19.3854C7.9635 19.7604 8.33329 20.1354 8.69788 20.5052ZM7.73954 4.56772C7.776 4.59897 7.81767 4.63022 7.85933 4.66147C7.90621 4.70834 7.9635 4.75001 8.01037 4.80209C8.19788 5.00522 8.35933 5.27084 8.41142 5.59897C8.47392 5.91668 8.42183 6.27605 8.31767 6.60939C8.08329 7.27605 7.75517 7.86459 7.40621 8.35418C7.06246 8.84376 6.66663 9.22918 6.29683 9.51564C6.04163 9.73959 5.78642 9.96355 5.53121 10.1823L5.41663 10.2865L5.27079 10.4271C5.16663 10.5261 5.06767 10.6198 4.96871 10.724C4.77079 10.9219 4.57808 11.125 4.401 11.3386C4.54163 11.1302 4.69267 10.9219 4.85413 10.724C4.93225 10.625 5.01037 10.5261 5.09371 10.4271C5.16662 10.3333 5.24475 10.2448 5.32288 10.1511C5.37496 10.0833 5.43225 10.0156 5.48954 9.94793C5.53642 9.88543 5.58329 9.82814 5.63017 9.77084C5.72392 9.65105 5.80204 9.54688 5.88537 9.43751C5.89058 9.42709 5.901 9.42188 5.90621 9.41147C6.05204 9.22397 6.20308 9.02605 6.35933 8.82293C6.51038 8.6198 6.67704 8.39063 6.84892 8.11459C7.01558 7.84376 7.18746 7.52084 7.34892 7.14584C7.42704 6.95834 7.48954 6.75001 7.51558 6.53647C7.54163 6.32814 7.52079 6.10939 7.45308 5.92189C7.34371 5.59897 7.12496 5.36459 6.86975 5.17709C6.80204 5.22918 6.73954 5.27605 6.67183 5.32293C6.60933 5.3698 6.55204 5.42189 6.48954 5.46876C6.59892 5.54168 6.69788 5.63022 6.78642 5.72397L6.80204 5.71355C6.79162 5.71876 6.79163 5.72397 6.78642 5.72397C6.90621 5.85938 7.00517 6.01564 7.06767 6.19272C7.11975 6.36459 7.13538 6.5573 7.10933 6.75001C7.08329 6.93751 7.026 7.1198 6.95308 7.28647C6.79683 7.6198 6.64058 7.89584 6.48433 8.13022C6.32808 8.36459 6.18225 8.5573 6.05204 8.72918C5.98433 8.8073 5.92183 8.88543 5.85413 8.96876C5.82288 9.00522 5.79163 9.04688 5.76558 9.08334C5.72913 9.13022 5.72392 9.12501 5.65621 9.22397L5.63537 9.25001C5.55204 9.35938 5.47392 9.46355 5.38017 9.57814C5.276 9.70834 5.17183 9.83855 5.06767 9.97397C4.72913 10.3698 4.36975 10.8073 4.07288 11.2604C3.776 11.7188 3.54163 12.2031 3.40621 12.724C3.26558 13.2448 3.24475 13.8177 3.37496 14.3594C3.526 15.3594 4.07288 16.224 4.72392 16.9271C4.84892 17.0573 4.97913 17.1875 5.10933 17.3281C5.21871 17.4323 5.32808 17.5365 5.44788 17.6458C5.55725 17.7552 5.67704 17.8698 5.80204 17.9844L5.89579 18.0729L5.97913 18.1563C6.026 18.2031 6.07288 18.25 6.12496 18.3021C6.31767 18.5 6.526 18.6979 6.73954 18.9271C6.95308 19.1458 7.17704 19.3854 7.40621 19.6406C7.88017 20.1511 8.36975 20.7292 9.04163 21.3958C9.13017 21.4792 9.20829 21.5625 9.30204 21.6458C9.39579 21.7344 9.49475 21.8177 9.5885 21.9063C9.776 22.0781 10.0156 22.2448 10.2343 22.4167C10.3437 22.5 10.4739 22.5729 10.5989 22.6563C10.7239 22.7344 10.8437 22.8177 10.9739 22.8854C11.1093 22.9531 11.2448 23.0208 11.375 23.0886C11.4427 23.1198 11.5104 23.1563 11.5781 23.1875L11.7864 23.2708C11.9791 23.3386 12.1718 23.4271 12.3698 23.4844C12.5573 23.5417 12.7552 23.5938 12.9479 23.6511C13.1406 23.7031 13.3281 23.7344 13.5208 23.7761L13.8073 23.8333L14.0885 23.875C14.2708 23.9011 14.4583 23.9219 14.6458 23.9479C14.802 23.9688 14.9531 23.9844 15.1093 24.0052C15.4166 24.0365 15.7135 24.0833 16.0156 24.125C16.6093 24.224 17.1979 24.3281 17.7448 24.4792C18.026 24.5469 18.276 24.6458 18.5364 24.7292C18.776 24.8281 19.0364 24.9167 19.25 25.0313C19.2968 25.0833 19.3437 25.1354 19.3854 25.1875C19.4948 25.3229 19.5885 25.474 19.6979 25.6094C19.7448 25.6875 19.7916 25.7604 19.8385 25.8333C19.8645 25.8698 19.8854 25.9063 19.9114 25.9375C19.9375 25.974 19.9531 26.0156 19.9739 26.0521C20.0156 26.1302 20.052 26.2031 20.0989 26.2761C20.1354 26.3542 20.1614 26.4271 20.1979 26.5052C20.2135 26.5417 20.2395 26.5729 20.25 26.6146C20.2656 26.6563 20.276 26.6979 20.2916 26.7396C20.3073 26.7761 20.3177 26.8177 20.3385 26.8542C20.3437 26.875 20.3541 26.8906 20.3593 26.9115L20.375 26.9792C20.401 27.0677 20.4218 27.1511 20.4531 27.2344C20.4739 27.3281 20.4895 27.4271 20.5156 27.5208C20.5156 27.5313 20.5208 27.5417 20.5208 27.5521C20.6198 27.5052 20.7135 27.4636 20.8073 27.4167C20.802 27.3854 20.7864 27.3542 20.7812 27.3229C20.7708 27.2761 20.7604 27.224 20.75 27.1771C20.75 27.1563 20.7448 27.1302 20.7395 27.1094L20.7135 27.0417C20.6875 26.9583 20.6614 26.875 20.6354 26.7865C20.6145 26.6979 20.5729 26.6302 20.5468 26.5469C20.5156 26.4636 20.4895 26.3802 20.4479 26.3125C20.4114 26.2396 20.375 26.1615 20.3437 26.0886C20.3073 26.0104 20.2552 25.9427 20.2187 25.8698C20.1458 25.7188 20.0416 25.5833 19.9531 25.4427C20.375 25.7396 20.7031 26.0677 20.9427 26.4583L20.9895 26.5313L21.026 26.6094L21.1093 26.7656C21.1354 26.8177 21.1666 26.8646 21.1927 26.9167L21.2552 27.0833L21.2864 27.1719C21.3802 27.1198 21.4739 27.0729 21.5677 27.0208C21.3958 26.5781 21.1562 26.1771 20.8489 25.8229C20.4895 25.4167 20.0208 25.0677 19.4479 24.7761C19.052 24.375 18.375 23.9844 17.4739 23.7031C17.026 23.5625 16.526 23.4375 15.9843 23.3438C15.7135 23.2917 15.4323 23.2448 15.1458 23.2136C14.8281 23.1667 14.5104 23.125 14.1823 23.0833C13.4895 22.9688 12.7395 22.8281 11.9739 22.5052C11.7812 22.4375 11.5989 22.3333 11.4062 22.2396C11.3073 22.1979 11.2187 22.1458 11.1302 22.0886L10.8541 21.9271C10.5 21.6979 10.1666 21.4375 9.85933 21.1771C9.25517 20.6458 8.74475 20.1042 8.24475 19.6042C7.74996 19.0938 7.26037 18.6094 6.76037 18.1458L6.42183 17.8333L6.33329 17.7552L6.23433 17.6667L6.02079 17.4792L5.49475 17.0104L5.36454 16.8906L5.10933 16.6458C4.44788 15.9792 3.90621 15.2083 3.68746 14.3333C3.64058 14.0625 3.64579 13.7813 3.67183 13.5052C3.71871 13.2292 3.78121 12.9531 3.901 12.6979C4.11454 12.1771 4.47392 11.7083 4.86975 11.2761C5.06767 11.0573 5.28121 10.8542 5.49475 10.6511L5.651 10.5L5.78121 10.3854L6.01558 10.1771C6.16663 10.0469 6.31246 9.91668 6.45308 9.78647L6.50517 9.73959L6.54683 9.70834L6.63537 9.63543L6.80725 9.48439C7.03642 9.27084 7.26558 9.02605 7.48954 8.75001C7.70308 8.46876 7.91663 8.16147 8.10933 7.81772C8.20829 7.65105 8.29162 7.46876 8.38537 7.28647C8.4635 7.09897 8.55725 6.91147 8.63017 6.71355C8.776 6.32293 8.87496 5.89063 8.82808 5.48959C8.81767 5.28647 8.73954 5.10938 8.64579 4.95834C8.55204 4.8073 8.43746 4.67188 8.31246 4.56251C8.22913 4.48959 8.14058 4.42709 8.05725 4.36459C8.02079 4.38543 7.98954 4.40626 7.95829 4.42709C7.88537 4.47397 7.81246 4.52084 7.73954 4.56772Z" fill="#75574D"/>
<path d="M6.41154 4.91667C6.29695 4.86458 6.17195 4.8125 6.04175 4.76562C5.92195 4.86979 5.80737 4.96875 5.698 5.07292C5.82821 5.11979 5.948 5.17187 6.06258 5.22396C6.18237 5.11979 6.29695 5.02083 6.41154 4.91667Z" fill="#75574D"/>
<path d="M7.20833 4.30209C7.31771 4.22396 7.42708 4.14584 7.53646 4.06771C7.52604 4.06771 7.52083 4.0573 7.51042 4.0573C7.38542 4 7.26042 3.94792 7.14063 3.90105C7.02604 3.98438 6.91146 4.06771 6.79688 4.15626C6.93229 4.19792 7.07292 4.25001 7.20833 4.30209Z" fill="#75574D"/>
<path d="M21.5208 28.2865C21.6249 28.25 21.7343 28.2083 21.8385 28.1667C21.8333 28.1406 21.828 28.1146 21.828 28.0885C21.8228 28.0417 21.8333 27.9948 21.8228 27.9479C21.8124 27.901 21.8072 27.8542 21.802 27.8073C21.7968 27.7969 21.7968 27.7865 21.7968 27.776L21.7812 27.7292L21.7551 27.6302C21.7499 27.625 21.7499 27.6198 21.7499 27.6094C21.6562 27.6667 21.5676 27.724 21.4739 27.7813C21.4791 27.8073 21.4895 27.8385 21.4895 27.8542L21.4999 27.9063C21.5051 27.9427 21.5103 27.9792 21.5208 28.0156C21.5103 28.0885 21.526 28.1563 21.5208 28.25C21.5208 28.2604 21.5208 28.276 21.5208 28.2865Z" fill="#75574D"/>
<path d="M20.8959 28.1094C20.8855 28.1094 20.8803 28.1146 20.8699 28.1198C20.7761 28.151 20.672 28.1823 20.573 28.2135C20.573 28.2344 20.5678 28.2552 20.5626 28.276C20.5626 28.3073 20.5574 28.3438 20.5417 28.3854C20.5313 28.4323 20.5261 28.474 20.5209 28.5156C20.5157 28.5521 20.5053 28.5833 20.4949 28.6198C20.6095 28.5885 20.7188 28.5521 20.8334 28.5208C20.849 28.4271 20.8647 28.3385 20.8751 28.2604C20.8907 28.1927 20.8855 28.1458 20.8959 28.1094Z" fill="#75574D"/>
<path d="M5.11458 4.90626C5.19792 4.83334 5.28125 4.76042 5.36979 4.69271C5.40625 4.66146 5.44792 4.63021 5.48958 4.59896C5.38542 4.57292 5.27604 4.55209 5.16146 4.52605C5.03646 4.62501 4.91667 4.72917 4.79688 4.83855C4.90625 4.85938 5.01042 4.88021 5.11458 4.90626Z" fill="#75574D"/>
<path d="M5.96362 3.94271C6.07821 3.96354 6.198 3.99479 6.31779 4.02083C6.45842 3.9375 6.59904 3.84896 6.74487 3.77083C6.62508 3.73437 6.50529 3.70313 6.39071 3.67188C6.24487 3.76042 6.10425 3.84896 5.96362 3.94271Z" fill="#75574D"/>
<path d="M21.7239 27.5104C21.703 27.4479 21.6874 27.3802 21.6666 27.3177C21.578 27.3802 21.4843 27.4479 21.3958 27.5052C21.4062 27.5677 21.427 27.625 21.4426 27.6823C21.5103 27.6458 21.5728 27.6042 21.6405 27.5677C21.6666 27.5521 21.6926 27.5313 21.7239 27.5104Z" fill="#75574D"/>
<path d="M30.0729 17.0938C30.0677 17.2188 30.0729 17.3438 30.0677 17.4688C30.0469 17.7136 30.0365 17.9636 30 18.2136C29.9427 18.7083 29.8281 19.1979 29.6927 19.6771C29.5521 20.1615 29.3698 20.625 29.1615 21.0886C28.9427 21.5365 28.7031 21.9844 28.4219 22.4063C28.3854 22.4531 28.3542 22.5052 28.3281 22.5521C28.3542 22.4844 28.3906 22.4219 28.4219 22.3542C28.5417 22.1146 28.6302 21.8646 28.7292 21.6198C28.776 21.5 28.8125 21.3698 28.8594 21.2448C28.8958 21.1198 28.9427 20.9948 28.974 20.8698C29.2604 19.8542 29.401 18.8021 29.4063 17.75C29.4063 16.6979 29.2813 15.6511 29.0625 14.625C28.7344 12.9948 28.2708 11.3802 27.6354 9.82814C27.8802 10.2292 28.125 10.6302 28.349 11.0417C28.849 11.9167 29.2604 12.8281 29.5625 13.7813C29.8646 14.7344 30.0365 15.724 30.0729 16.7188C30.0833 16.8438 30.0729 16.9688 30.0729 17.0938ZM28.0885 14.7136C28.0521 15.5052 27.9375 16.2865 27.7448 17.0573C27.7396 15.7083 27.5365 14.3698 27.1667 13.0781C27.0104 12.4896 26.8125 11.9167 26.5781 11.3594L26.5313 11.25L26.1823 10.4479C26.1615 10.3958 26.1354 10.3438 26.1094 10.2865C26.5 10.8073 26.8594 11.3594 27.1771 11.9271C27.4271 12.3906 27.6563 12.8646 27.8438 13.3542C27.9375 13.599 28.0208 13.849 28.0938 14.0938C28.099 14.3021 28.099 14.5104 28.0885 14.7136ZM24.2396 8.29689C24.1771 8.19793 24.0365 8.03647 23.8281 7.83334C23.9792 7.97397 24.125 8.11459 24.276 8.25522C24.3073 8.28126 24.3385 8.31251 24.3698 8.33855C24.8542 8.90626 25.2865 9.52084 25.6563 10.1667C26.1458 11.0261 26.5313 11.9427 26.7969 12.8958C25.8594 10.3646 24.4323 8.59376 24.2396 8.29689ZM26.0677 22.7083C25.875 23.0417 25.6719 23.3646 25.4479 23.6719C25.3542 23.8021 25.2552 23.9323 25.1563 24.0573C25.2708 23.8906 25.375 23.7188 25.4792 23.5469C25.6042 23.3802 25.724 23.2136 25.8385 23.0365C25.9896 22.8125 26.125 22.5886 26.2552 22.3646C26.1927 22.4792 26.1302 22.5938 26.0677 22.7083ZM24.3281 24.9115C24.3229 24.9167 24.3125 24.9219 24.3073 24.9271C24.3021 24.9323 24.2917 24.9375 24.2865 24.9427C24.3177 24.9115 24.349 24.875 24.3854 24.8438C24.3646 24.8646 24.3438 24.8854 24.3281 24.9115ZM22.1094 6.5573C22.0677 6.46876 22.026 6.38543 21.9844 6.29689L22.5208 6.70314L23.1198 7.20314C23.3021 7.34897 23.474 7.50522 23.6458 7.66668C23.2813 7.33855 22.7708 6.94272 22.1094 6.5573ZM24.9219 8.57814C24.7135 8.31251 24.4896 8.0573 24.2604 7.8073C24.4844 8.03126 24.6979 8.27084 24.8906 8.52605C24.901 8.54168 24.9115 8.5573 24.9219 8.57814ZM21.5365 5.62501C21.0104 4.98959 20.3021 4.53126 19.4844 4.32814C19.1875 4.25522 18.8542 4.1823 18.4948 4.12501C18.2917 4.04168 18.0885 3.95834 17.8802 3.88543C17.6458 3.80209 17.4115 3.72918 17.1719 3.66147C20.7135 4.08855 23.8229 6.03647 25.9219 8.62501C26 8.7448 26.0781 8.8698 26.1563 8.9948C26.3698 9.31251 26.5469 9.65105 26.7396 9.97918C26.9063 10.3229 27.0938 10.6563 27.2396 11.0104C27.401 11.3542 27.5365 11.7136 27.6771 12.0677C27.7969 12.4271 27.9219 12.7865 28.0208 13.1563C28.0313 13.1927 28.0417 13.2344 28.0521 13.2708C28.0573 13.3333 28.0625 13.3958 28.0677 13.4583C28.0469 13.4011 28.026 13.3438 28.0052 13.2865C27.8125 12.7917 27.5781 12.3073 27.3281 11.8386C26.875 11.0417 26.349 10.2865 25.7656 9.58855C25.7344 9.52605 25.7031 9.46355 25.6667 9.40105C25.4844 9.0573 25.2604 8.73439 25.026 8.42189C24.401 7.59897 23.599 6.92709 22.7135 6.41147C22.3385 6.12501 21.9427 5.86459 21.5365 5.62501ZM17.8646 2.50001C17.9844 2.50001 18.1042 2.50522 18.224 2.51564C18.401 2.55209 18.5833 2.59897 18.7552 2.66147C18.9948 2.73959 19.2344 2.83855 19.474 2.9323C19.974 3.14064 20.4688 3.3698 20.9531 3.6198C19.8177 3.07814 18.5938 2.68751 17.3021 2.4948C17.4896 2.4948 17.6771 2.4948 17.8646 2.50001ZM19.5208 2.66668C19.625 2.70314 19.7344 2.73959 19.8385 2.78126C20.7917 3.13022 21.6927 3.61459 22.526 4.18751L23.1406 4.63022L23.724 5.11459C23.9219 5.27084 24.099 5.44793 24.2813 5.6198L24.5573 5.88022C24.599 5.92189 24.6406 5.95834 24.6771 6.00001C24.7344 6.06251 24.7969 6.12501 24.8542 6.19272C24.8958 6.2448 24.9375 6.29688 24.9792 6.34897C24.8906 6.26043 24.8021 6.17709 24.7083 6.08855C23.9635 5.39064 23.1406 4.77084 22.2656 4.22918C21.3906 3.69272 20.4688 3.22918 19.5156 2.83855C19.276 2.7448 19.0417 2.64584 18.7917 2.56251C19.0365 2.59376 19.2813 2.62501 19.5208 2.66668ZM23.3333 4.18751C23.9167 4.67709 24.4479 5.22397 24.9271 5.8073C24.8802 5.76043 24.8333 5.71355 24.7813 5.66668L24.5 5.40105C24.3125 5.22397 24.1354 5.04168 23.9323 4.88543L23.3333 4.39064L22.9583 4.12501C22.875 4.04688 22.7865 3.96876 22.6979 3.89064C22.5833 3.79688 22.4688 3.70314 22.3542 3.60939C22.6927 3.78126 23.0208 3.97397 23.3333 4.18751ZM25.9063 7.58334C26.1615 7.96355 26.4063 8.35939 26.6302 8.76043C26.8229 9.1146 27.0052 9.47918 27.1615 9.84897C26.2917 8.01043 24.9531 6.34897 23.2813 5.06251C23.75 5.40626 24.2031 5.77605 24.625 6.17709C25.0885 6.60939 25.5208 7.08334 25.9063 7.58334ZM26.474 8.12501L26.5938 8.33855C26.4375 8.10418 26.276 7.8698 26.1042 7.64064C26.2292 7.80209 26.3542 7.96355 26.474 8.12501ZM29.8854 13.6823C29.5729 12.7083 29.1458 11.7708 28.6406 10.8854C28.0677 9.8698 27.4375 8.88022 26.7396 7.94272C26.6146 7.71876 26.5 7.4948 26.3542 7.28126L26.1875 7.02084C27.0885 8.09376 27.2031 7.77605 26.0625 6.28126C25.7396 5.85418 25.3802 5.45834 25.0052 5.08334C24.6198 4.71876 24.2188 4.3698 23.7865 4.06251C23.5625 3.90626 23.3385 3.76043 23.1146 3.62501C21.4531 2.34376 19.4115 1.56251 17.3281 1.3073C16.6875 1.22918 16.0417 1.19272 15.401 1.19272C15.3646 1.28647 15.3281 1.38022 15.2917 1.47918C15.9635 1.46876 16.6302 1.50522 17.2917 1.58855C18.5677 1.75001 19.8177 2.10938 20.974 2.66147C20.974 2.66147 20.9688 2.66147 20.9635 2.65626C20.6979 2.57293 20.4219 2.50001 20.151 2.43751C20.0729 2.41668 20 2.38543 19.9219 2.36459C18.901 2.04688 17.849 1.86459 16.7865 1.75522C16.2708 1.70314 15.75 1.67188 15.2292 1.65626C15.1719 1.81772 15.1198 1.98438 15.0625 2.15626C15.724 2.10418 16.3906 2.10418 17.0521 2.16147C16.5 2.17709 15.9583 2.23438 15.4167 2.31251C15.276 2.32293 15.1354 2.34376 14.9948 2.35939C14.8698 2.76564 14.7552 3.18751 14.6563 3.62501C15.1823 3.57814 15.7083 3.56772 16.224 3.58855C16.7708 3.69272 17.3073 3.83855 17.8333 4.02605C17.8385 4.02605 17.8438 4.02605 17.849 4.03126C17.1823 3.95313 16.4479 3.91668 15.6458 3.95314C15.2917 3.94272 14.9375 3.95314 14.5833 3.97397C14.1927 5.94793 14.25 8.03647 15.6198 9.31251C18.8646 12.3333 19.8021 17.9583 21.6667 20.8802C22.4219 22.0573 23.0156 24 23.8542 25.7188C23.9063 25.6615 23.9635 25.6042 24.0156 25.5469C24.1094 25.4427 24.1979 25.3386 24.2865 25.2292C24.3385 25.1927 24.3906 25.1511 24.4427 25.1146C24.6094 24.9896 24.75 24.8542 24.8854 24.7136C25.1615 24.4271 25.4063 24.125 25.6354 23.8073C26.0885 23.1719 26.474 22.4844 26.7813 21.7708C27.2344 20.724 27.526 19.6146 27.6615 18.4844L27.6875 18.3958L27.7813 18.0208L27.9635 17.2761C28.1302 16.4583 28.2396 15.625 28.2813 14.7865C28.2865 14.8125 28.2917 14.8438 28.2969 14.8698C28.5156 15.9011 28.5833 16.9688 28.4583 18.0208C28.401 18.5469 28.3021 19.0677 28.1615 19.5781C28.0208 20.0833 27.8438 20.5833 27.6302 21.0677C27.2135 22.0365 26.6615 22.9375 26.026 23.7761C25.4115 24.5677 24.724 25.2969 23.974 25.9583C24.0052 26.0208 24.0365 26.0833 24.0729 26.1458C24.8385 25.4688 25.5521 24.724 26.1823 23.9011C26.8229 23.0521 27.3854 22.1354 27.8073 21.1458C28.0208 20.6563 28.5833 18.5729 28.6406 18.0417C28.7292 17.3021 28.7188 16.5521 28.6354 15.8177C28.6458 15.2292 28.6458 14.599 28.599 14.0417C28.6458 14.2552 28.6927 14.474 28.7396 14.6875C28.9479 15.6979 29.0625 16.724 29.0625 17.7448C29.0573 18.7708 28.9167 19.7917 28.6354 20.7761C28.6094 20.9011 28.5625 21.0208 28.5208 21.1406C28.4792 21.2604 28.4479 21.3854 28.3958 21.5052C28.3021 21.7396 28.2135 21.9792 28.099 22.2083C27.8906 22.6771 27.6302 23.1198 27.3438 23.5469C27.0625 23.9688 26.7292 24.3698 26.3854 24.75C26.0313 25.125 25.6615 25.4844 25.2552 25.8021C24.9427 26.0573 24.6146 26.2969 24.2708 26.5156C24.3333 26.625 24.3958 26.7292 24.4583 26.8281C24.8125 26.599 25.1615 26.349 25.4896 26.0781C25.9063 25.7448 26.2917 25.375 26.6563 24.9896C27.0104 24.5886 27.349 24.1771 27.6406 23.7344C27.6875 23.6667 27.7292 23.6042 27.7708 23.5365C27.5573 24.0573 27.9271 23.8021 28.7188 22.5886C29.0104 22.1511 29.2552 21.6927 29.4792 21.224C29.6927 20.75 29.8906 20.2656 30.026 19.7656C30.1667 19.2708 30.2813 18.7604 30.3385 18.25C30.3802 17.9948 30.3906 17.7344 30.4115 17.4792C30.4167 17.349 30.4115 17.2188 30.4167 17.0886C30.4167 16.9636 30.4219 16.8333 30.4167 16.7031C30.375 15.6771 30.1979 14.6563 29.8854 13.6823Z" fill="#A08A7F"/>
<path d="M13.2135 3.77084C13.1926 3.81251 13.1666 3.85938 13.1458 3.90626C13.2916 3.86459 13.4426 3.82813 13.5885 3.79167C13.8801 3.27605 14.2083 2.81251 14.5416 2.40105C14.3905 2.41146 14.2343 2.42709 14.0833 2.44271C13.776 2.83855 13.4791 3.28126 13.2135 3.77084Z" fill="#A08A7F"/>
<path d="M21.1353 26.1042C21.3072 26.3906 21.4947 26.6719 21.6926 26.9479C21.7812 26.8958 21.8697 26.8437 21.9635 26.7865C21.8072 26.5729 21.6562 26.349 21.5155 26.125C21.151 25.5417 20.8385 24.9427 20.5416 24.3385C20.2499 23.7396 19.9791 23.1354 19.7083 22.5573C19.4374 21.9792 19.1666 21.4115 18.8853 20.9479C18.8176 20.8437 18.7603 20.7344 18.6926 20.651L18.5937 20.5052L18.453 20.2865C18.3593 20.1458 18.2603 19.9948 18.1718 19.8542L17.927 19.4219C17.6041 18.849 17.3385 18.2865 17.0833 17.7344C16.6458 16.3281 16.3697 14.8125 16.0572 13.3438C15.7395 11.875 15.3853 10.4271 14.8228 9.18229C14.7499 9.02083 14.6822 8.86979 14.6093 8.71875C14.5416 8.5625 14.4478 8.42708 14.3749 8.28125C14.2916 8.14062 14.2135 8 14.1353 7.86458C14.0728 7.73437 14.0103 7.61979 13.9583 7.5C13.7655 7.02604 13.7343 6.59375 13.7499 6.23958C13.7447 6.15625 13.7603 6.06771 13.7708 5.98438C13.7812 5.90625 13.7812 5.83333 13.7968 5.76563C13.828 5.625 13.8437 5.51042 13.8697 5.41146C13.927 5.21875 13.9583 5.10937 13.9583 5.10417C13.9895 5.01563 13.953 4.91667 13.8697 4.88021C13.7916 4.84375 13.6978 4.88542 13.6666 4.97917C13.6666 4.98437 13.6301 5.07812 13.5885 5.23958C13.5676 5.32292 13.5364 5.42708 13.5155 5.54167C13.4999 5.66146 13.4635 5.80208 13.453 5.95313C13.4166 6.26042 13.4166 6.63542 13.4999 7.06771C13.526 7.17708 13.5468 7.29167 13.5833 7.40625C13.6249 7.51562 13.6666 7.63021 13.7187 7.75C13.8333 7.97396 13.9739 8.22917 14.1145 8.47396C14.6718 9.47396 15.0833 10.6667 15.4062 11.9219C15.7291 13.1875 15.9635 14.526 16.2655 15.8438C16.026 15.276 15.7968 14.7344 15.5833 14.2188C15.578 14.2083 15.5728 14.1979 15.5676 14.1875C15.4218 13.8177 15.2708 13.4531 15.1405 13.0573C14.9947 12.6771 14.8697 12.2708 14.7291 11.875C14.453 11.0729 14.177 10.2396 13.7968 9.42708C13.703 9.22396 13.5885 9.03125 13.4843 8.82292L13.4062 8.66667L13.2968 8.47917C13.2239 8.34896 13.1458 8.22917 13.0937 8.09375C12.8593 7.5625 12.7603 7.01563 12.7655 6.50521C12.7864 5.59375 13.0624 4.80729 13.4166 4.10938C13.276 4.13021 13.1405 4.15625 13.0051 4.18229C12.8801 4.45833 12.7603 4.74479 12.6666 5.05208C12.526 5.51563 12.4322 6.01563 12.427 6.5625C12.427 7.10417 12.5416 7.69271 12.802 8.25521C12.8333 8.32292 12.8593 8.39583 12.901 8.46354L13.0208 8.66667L13.1458 8.86979C13.1718 8.91146 13.177 8.92708 13.1926 8.95313L13.2291 9.03125C13.328 9.22396 13.427 9.41667 13.526 9.61458C13.8905 10.401 14.1614 11.2135 14.4374 12C14.5051 12.2031 14.578 12.3906 14.6458 12.5938C14.7083 12.7917 14.776 12.9844 14.8489 13.1719C14.9843 13.5677 15.1301 13.9323 15.2812 14.3073L15.2968 14.3385C15.7291 15.3646 16.2083 16.5521 16.7916 17.8438C16.9947 18.4688 17.2187 19.0729 17.5051 19.6458C17.6197 19.8594 17.7187 20.0781 17.8749 20.3333C17.9999 20.5417 18.1301 20.7604 18.2708 20.9948C18.4635 21.3177 18.6874 21.8021 18.927 22.3646C19.1666 22.9323 19.4218 23.5833 19.7343 24.2969C20.0468 25.0104 20.401 25.7865 20.901 26.6094C21.0155 26.7969 21.1405 26.9896 21.2708 27.1823C21.3645 27.1354 21.4583 27.0833 21.5468 27.0313C21.4114 26.8333 21.2864 26.6406 21.1666 26.4479C20.6718 25.6354 20.3176 24.8594 20.0051 24.1406C19.6978 23.4219 19.4374 22.7708 19.1926 22.1927C19.5833 23.0052 19.9739 23.901 20.4166 24.7813C20.6405 25.224 20.8749 25.6667 21.1353 26.1042Z" fill="#A08A7F"/>
<path d="M22.1042 26.9844C22.026 27.0521 21.9427 27.1146 21.8594 27.1771C21.8646 27.1823 21.8698 27.1875 21.875 27.1927C21.9583 27.1302 22.0365 27.0729 22.1198 27.0052C22.1146 27 22.1146 26.9948 22.1042 26.9844Z" fill="#75574D"/>
<path d="M21.724 27.276C21.6406 27.3333 21.5521 27.401 21.4688 27.4583C21.5052 27.5052 21.5417 27.5521 21.5781 27.599C21.599 27.5885 21.6198 27.5781 21.6406 27.5677C21.7083 27.526 21.776 27.4792 21.8438 27.4323C21.8073 27.3802 21.7604 27.3281 21.724 27.276Z" fill="#75574D"/>
<path d="M14.6458 1.76042C14.599 1.81251 14.5521 1.8698 14.5 1.92709C14.5156 1.92709 14.526 1.92709 14.5417 1.92709C14.526 1.92709 14.5104 1.9323 14.4948 1.9323C14.4115 2.03646 14.3177 2.14063 14.2344 2.25521C14.3958 2.22917 14.5469 2.20834 14.7083 2.18751C14.7917 2.09375 14.8854 1.9948 14.9688 1.90105C15.0417 1.81771 15.1198 1.73438 15.1979 1.65626C15.0469 1.65105 14.8958 1.65105 14.7448 1.65105C14.7135 1.68751 14.6823 1.72396 14.6458 1.76042Z" fill="#A08A7F"/>
<path d="M22.1406 27.7917C22.1094 27.7604 22.0833 27.724 22.0521 27.6875C22.0313 27.6927 22.0104 27.7031 21.9948 27.7135C22.0104 27.6979 22.0313 27.6875 22.0469 27.6771C22 27.6198 21.9531 27.5677 21.9063 27.5104C21.8229 27.5677 21.7292 27.625 21.6406 27.6771C21.75 27.8177 21.8698 27.9583 22 28.1042C22.1042 28.0625 22.2083 28.0208 22.3073 27.9792C22.25 27.9167 22.1927 27.8542 22.1406 27.7917Z" fill="#75574D"/>
<path d="M22.1353 27.026C22.0468 27.0833 21.9635 27.1458 21.8801 27.2031C21.9166 27.25 21.9478 27.2917 21.9843 27.3385C22.0728 27.2813 22.1614 27.2188 22.2447 27.1563C22.2083 27.1094 22.1666 27.0677 22.1353 27.026Z" fill="#75574D"/>
<path d="M14.8958 1.48959C15.052 1.47917 15.2083 1.47917 15.3697 1.47917C15.4635 1.38021 15.5572 1.28646 15.6458 1.19792C15.4895 1.19271 15.3333 1.19271 15.1718 1.19792C15.078 1.29167 14.9895 1.38542 14.8958 1.48959Z" fill="#A08A7F"/>
<path d="M22.7813 27.7656C22.6876 27.6719 22.6042 27.5781 22.5209 27.4844C22.422 27.526 22.3178 27.5729 22.2136 27.6198C22.297 27.7135 22.3907 27.8073 22.4792 27.901C22.5782 27.8542 22.6824 27.8125 22.7813 27.7656Z" fill="#75574D"/>
<path d="M22.4478 27.4063C22.401 27.3542 22.3593 27.2969 22.3124 27.2448C22.2239 27.3021 22.1405 27.3646 22.052 27.4219C22.0937 27.474 22.1405 27.5313 22.1874 27.5833C22.276 27.526 22.3645 27.4688 22.4478 27.4063Z" fill="#75574D"/>
<path d="M12.0728 9.76042C12.5624 11.1823 12.3384 12.5469 11.5832 12.8073C10.828 13.0729 9.81761 12.1302 9.32802 10.7083C8.83844 9.28647 9.05719 7.92188 9.8124 7.66147C10.5728 7.40105 11.5832 8.33855 12.0728 9.76042Z" fill="#75574D"/>
<path d="M8.98953 9.83334C9.07287 10.4531 9.19787 10.724 9.17703 10.7604C9.16662 10.7813 9.18224 10.9115 9.23432 11.099C9.2812 11.2917 9.37495 11.5365 9.50516 11.7708C9.45308 11.4323 9.44787 11.2969 9.39578 11.1511C9.34891 11 9.22391 10.7969 9.05724 10.1563C9.0312 10.0573 9.00516 9.94793 8.98953 9.83334ZM9.64578 12.1458C9.80724 12.5365 10.1614 12.8906 10.4739 12.8594C10.3333 12.8125 10.1927 12.724 10.052 12.6094C9.9062 12.4844 9.76558 12.3229 9.64578 12.1458ZM9.62495 11.1667C9.61974 11.1667 9.61453 11.1667 9.60412 11.1719C9.60412 11.1719 9.64578 11.1563 9.7187 11.1146C9.79162 11.0729 9.89058 11 9.99995 10.8802C10.2135 10.6458 10.4687 10.1979 10.4895 9.4948C10.5052 9.09897 10.4322 8.72918 10.3437 8.47397C10.2499 8.23438 10.0833 8.05209 9.87495 8.01043C9.66662 7.96876 9.42703 8.08855 9.27078 8.33855C9.11453 8.58855 9.03641 8.94272 9.02599 9.30209C9.01558 9.66147 9.06766 10.0208 9.15099 10.3229C9.33328 10.9583 9.44787 11.0729 9.47391 11.1771C9.48953 11.2292 9.49474 11.2813 9.49995 11.3802C9.50516 11.474 9.52078 11.6094 9.54162 11.8021C9.54682 11.8177 9.55203 11.8386 9.55203 11.8542C9.67182 12.0521 9.82287 12.2344 9.97912 12.3646C10.0885 12.4583 10.2031 12.5261 10.3124 12.5625C10.427 12.599 10.526 12.5938 10.6041 12.5886C10.6562 12.5781 10.7291 12.5938 10.8229 12.6146C10.901 12.5 10.9375 12.3698 10.9843 12.2708H10.9895C11.0572 12.1406 11.4375 12.2031 11.9843 12.1354C12.2552 12.1042 11.3697 12.349 11.2864 12.5052L11.2812 12.5104C11.2552 12.5729 10.8749 13.099 10.7604 13.1302C10.5052 13.2031 10.2291 13.0677 9.99995 12.8281C9.76558 12.5938 9.59891 12.2656 9.53641 11.9844C9.35932 11.6875 9.23432 11.3698 9.16662 11.1198C9.09891 10.8698 9.07808 10.6979 9.08849 10.6667C9.09891 10.6406 9.06245 10.5261 9.01037 10.3229C8.96349 10.1146 8.89578 9.80209 8.87495 9.42189C8.84891 9.01043 8.86974 8.48959 9.00516 8.03126C9.13537 7.56772 9.4062 7.22397 9.62495 7.13543C9.68224 7.1198 9.74995 7.09897 9.82287 7.09897C9.89578 7.10418 9.97391 7.10938 10.052 7.14064C10.1354 7.17709 10.2187 7.20834 10.302 7.27084C10.3437 7.30209 10.3854 7.32813 10.4218 7.36459C10.4635 7.40626 10.4999 7.44272 10.5364 7.48439C10.8437 7.8073 11.052 8.29688 11.1458 8.72918C11.2447 9.16147 11.2343 9.54168 11.1979 9.79689C11.1822 9.92709 11.1614 10.0261 11.1406 10.0938C11.1249 10.1615 11.1145 10.1979 11.1093 10.2031C11.1041 10.2188 11.0416 10.2708 10.9635 10.3125C10.901 10.3542 10.8489 10.3802 10.8437 10.3698C10.8437 10.3698 10.8437 10.3698 10.8437 10.3646C10.8437 10.3646 10.8593 10.3281 10.8802 10.2708C10.901 10.2083 10.9322 10.1198 10.9531 10.0052C10.9999 9.77084 11.0312 9.42188 10.9583 9.01564C10.8906 8.61459 10.7135 8.15626 10.4427 7.84897C10.4062 7.81251 10.3749 7.77605 10.3385 7.73959C10.3072 7.70834 10.2708 7.67709 10.2291 7.65105C10.1562 7.58855 10.0833 7.5573 10.0104 7.52605C9.93745 7.48959 9.86974 7.48959 9.80203 7.47918C9.73953 7.47918 9.67703 7.4948 9.62495 7.51043C9.45828 7.58334 9.24474 7.83334 9.12495 8.18751C9.19787 8.00522 9.31245 7.86459 9.43224 7.76043C9.49474 7.71876 9.56245 7.67709 9.63016 7.65105C9.69787 7.64064 9.76558 7.61459 9.83328 7.6198C10.1093 7.63022 10.3333 7.83855 10.4479 8.1198C10.5572 8.38543 10.6562 8.77605 10.6614 9.19272C10.6718 9.46876 10.6354 9.77084 10.5677 10.0261C10.4947 10.2865 10.3906 10.5052 10.276 10.6667C10.052 10.9896 9.83328 11.0781 9.9062 11.0625C9.92703 11.0573 9.88537 11.0729 9.80203 11.099C9.72912 11.1302 9.6562 11.1563 9.62495 11.1667Z" fill="#75574D"/>
<path d="M25.3178 13.724C25.047 13.4063 24.8803 13.3073 24.8751 13.276C24.8751 13.2604 24.8178 13.1927 24.724 13.1042C24.6251 13.0156 24.4897 12.9115 24.3334 12.8333C24.4793 13 24.5313 13.0729 24.6147 13.1354C24.698 13.2031 24.8386 13.2708 25.1615 13.5677C25.2136 13.6146 25.2657 13.6667 25.3178 13.724ZM24.1147 12.6719C23.8855 12.5104 23.5574 12.4427 23.4011 12.5781C23.4897 12.5521 23.599 12.5469 23.7188 12.5625C23.849 12.5781 23.9845 12.6146 24.1147 12.6719ZM24.4845 13.2135C24.4845 13.2083 24.4897 13.2083 24.4897 13.2031C24.4897 13.2031 24.474 13.224 24.448 13.276C24.422 13.3229 24.3907 13.401 24.3751 13.5104C24.3386 13.7135 24.3595 14.0573 24.599 14.4635C24.7345 14.6875 24.9115 14.8646 25.0522 14.974C25.1876 15.0781 25.349 15.1146 25.4793 15.0625C25.6147 15.0104 25.7032 14.8594 25.698 14.6615C25.698 14.4635 25.6095 14.2396 25.4845 14.0365C25.3647 13.8333 25.2084 13.651 25.047 13.5104C24.7188 13.224 24.6147 13.1979 24.5626 13.151C24.5313 13.125 24.5105 13.099 24.474 13.0469C24.4376 13 24.3803 12.9219 24.297 12.8281C24.2865 12.8177 24.2813 12.8125 24.2709 12.8021C24.1355 12.7344 23.9845 12.6875 23.849 12.6719C23.7553 12.6615 23.6668 12.6615 23.5938 12.6875C23.5157 12.7083 23.4584 12.7448 23.422 12.7708C23.3959 12.7969 23.349 12.8177 23.2918 12.8385C23.2918 12.9323 23.3126 13.0156 23.323 13.0885V13.0938C23.3282 13.1875 23.0938 13.2917 22.8126 13.526C22.672 13.6458 23.0782 13.1875 23.0678 13.0677C23.0678 13.0208 23.0886 12.5885 23.1407 12.5313C23.2553 12.3958 23.4584 12.3698 23.672 12.4167C23.8855 12.4688 24.099 12.5885 24.2345 12.724C24.4428 12.8229 24.6251 12.9583 24.7553 13.0729C24.8803 13.1875 24.9584 13.276 24.9584 13.2917C24.9636 13.3125 25.0261 13.3646 25.1303 13.4635C25.2293 13.5573 25.3803 13.7083 25.5313 13.9167C25.6928 14.1354 25.8647 14.4323 25.9584 14.7396C26.0522 15.0417 26.0261 15.3333 25.9324 15.4635C25.9063 15.4948 25.8751 15.526 25.8386 15.5521C25.7918 15.5781 25.7501 15.6042 25.6928 15.6146C25.6355 15.625 25.5782 15.6354 25.5053 15.6302C25.474 15.625 25.4376 15.625 25.4063 15.625C25.3699 15.6146 25.3386 15.6094 25.3022 15.599C25.0105 15.5313 24.7188 15.3333 24.5105 15.125C24.3022 14.9167 24.1668 14.7031 24.0938 14.5469C24.0574 14.4688 24.0365 14.4063 24.0209 14.3594C24.0105 14.3177 24.0001 14.2917 24.0001 14.2917C23.9949 14.276 24.0157 14.224 24.0418 14.1719C24.0626 14.125 24.0834 14.0938 24.0886 14.099C24.0886 14.099 24.0886 14.099 24.0886 14.1042C24.0886 14.1042 24.0938 14.125 24.1043 14.1719C24.1147 14.2083 24.1303 14.2708 24.1615 14.3438C24.2136 14.4896 24.3282 14.6979 24.5105 14.8958C24.698 15.099 24.9584 15.2865 25.2188 15.3594C25.2553 15.3698 25.2865 15.375 25.3178 15.3854C25.349 15.3906 25.3803 15.3906 25.4115 15.3958C25.474 15.401 25.5261 15.3906 25.5782 15.3854C25.6303 15.375 25.672 15.3542 25.7136 15.3333C25.7449 15.3125 25.7761 15.2813 25.797 15.25C25.8647 15.151 25.8959 14.9375 25.8334 14.6927C25.8595 14.8229 25.8438 14.9427 25.8178 15.0417C25.797 15.0885 25.7761 15.1354 25.7449 15.1719C25.7084 15.2083 25.6824 15.25 25.6407 15.2656C25.4845 15.3594 25.2865 15.3281 25.1199 15.2083C24.9636 15.1042 24.7709 14.9219 24.6147 14.6927C24.5053 14.5417 24.4167 14.3594 24.3647 14.1875C24.3126 14.0208 24.2918 13.8594 24.297 13.7292C24.3074 13.4688 24.4011 13.3385 24.3595 13.3698C24.3543 13.3854 24.3699 13.3594 24.4011 13.3125C24.4376 13.2708 24.4688 13.2292 24.4845 13.2135Z" fill="#94786D"/>
<path d="M10.4218 20.5521C10.6354 20.6823 10.7499 20.7083 10.7604 20.724C10.7604 20.7292 10.8072 20.7604 10.8749 20.7917C10.9479 20.8229 11.0468 20.8542 11.151 20.8698C11.0364 20.8021 10.9947 20.7708 10.9322 20.75C10.8749 20.7292 10.7812 20.7187 10.5364 20.6094C10.4999 20.5937 10.4635 20.5729 10.4218 20.5521ZM11.3072 20.9219C11.4687 20.9635 11.6666 20.9427 11.7343 20.8333C11.6874 20.8698 11.6249 20.8906 11.552 20.9062C11.4739 20.9219 11.3906 20.9271 11.3072 20.9219ZM10.9947 20.6823C10.9947 20.6823 10.9947 20.6875 10.9947 20.6927C10.9947 20.6927 10.9999 20.6719 10.9999 20.6406C11.0052 20.6042 11.0104 20.5573 10.9999 20.4948C10.9791 20.3698 10.901 20.1771 10.6874 19.9948C10.5677 19.8906 10.4322 19.8229 10.3333 19.7865C10.2343 19.7552 10.1354 19.7656 10.0729 19.8229C10.0052 19.875 9.98432 19.9792 10.026 20.0937C10.0624 20.2031 10.1562 20.3177 10.2656 20.4062C10.3749 20.5 10.4999 20.5729 10.6145 20.625C10.8593 20.724 10.9218 20.7135 10.9635 20.7344C10.9843 20.7396 10.9999 20.7552 11.0312 20.776C11.0624 20.7969 11.1093 20.8281 11.1718 20.8646C11.177 20.8698 11.1874 20.8698 11.1927 20.875C11.2864 20.8906 11.3802 20.8854 11.4583 20.8698C11.5156 20.8594 11.5677 20.8385 11.6041 20.8125C11.6406 20.7865 11.6666 20.7552 11.6822 20.7292C11.6927 20.7083 11.7187 20.6927 11.7447 20.6615C11.7291 20.6146 11.6979 20.5677 11.6822 20.5312V20.526C11.6562 20.474 11.7708 20.3698 11.8854 20.1823C11.9427 20.0885 11.802 20.4271 11.8281 20.4948C11.8385 20.5208 11.9114 20.7656 11.8906 20.8125C11.8489 20.9115 11.7395 20.9635 11.6093 20.9792C11.4791 20.9948 11.3333 20.9635 11.2291 20.9115C11.0937 20.8958 10.9635 20.8542 10.8645 20.8125C10.7708 20.776 10.7135 20.7396 10.7031 20.7292C10.6979 20.7187 10.6562 20.7031 10.5781 20.6667C10.4999 20.6302 10.3906 20.5729 10.2604 20.4844C10.1302 20.3906 9.96869 20.2552 9.85932 20.099C9.74994 19.9427 9.70828 19.7708 9.73432 19.6823C9.74474 19.6562 9.75515 19.6354 9.77078 19.6094C9.79161 19.5885 9.81244 19.5625 9.84369 19.5469C9.87494 19.5312 9.90619 19.5104 9.94786 19.5C9.96349 19.4948 9.98432 19.4896 10.0052 19.4896C10.026 19.4844 10.0468 19.4844 10.0729 19.4792C10.2499 19.4635 10.4531 19.5208 10.6093 19.5937C10.7708 19.6719 10.8906 19.7708 10.9583 19.849C10.9947 19.8854 11.0208 19.9167 11.0364 19.9375C11.052 19.9635 11.0624 19.974 11.0624 19.974C11.0677 19.9844 11.0677 20.0156 11.0624 20.0469C11.0572 20.0781 11.052 20.099 11.0468 20.099C11.0468 20.099 11.0416 20.0885 11.026 20.0625C11.0104 20.0417 10.9947 20.0104 10.9635 19.974C10.901 19.901 10.7968 19.8073 10.6562 19.7292C10.5104 19.651 10.3229 19.5937 10.1614 19.599C10.1406 19.6042 10.1197 19.6042 10.0989 19.6042C10.0833 19.6094 10.0624 19.6146 10.0468 19.6198C10.0104 19.625 9.97911 19.6406 9.95307 19.6562C9.92703 19.6719 9.90619 19.6927 9.88536 19.7083C9.86973 19.7292 9.85932 19.7552 9.85411 19.776C9.83328 19.8437 9.85932 19.974 9.93744 20.099C9.90098 20.0312 9.88536 19.9635 9.88536 19.8958C9.88536 19.8646 9.88536 19.8333 9.89578 19.8073C9.9114 19.7812 9.91661 19.7552 9.93744 19.7344C10.0104 19.651 10.1302 19.6354 10.2499 19.6667C10.3541 19.6979 10.5052 19.7656 10.6354 19.8646C10.7239 19.9323 10.8124 20.0156 10.8697 20.1042C10.9374 20.1927 10.9791 20.276 10.9999 20.3542C11.0468 20.5052 11.0208 20.599 11.0312 20.5677C11.0364 20.5573 11.0312 20.5781 11.0208 20.6094C11.0104 20.6406 10.9999 20.6719 10.9947 20.6823Z" fill="#75574D"/>
</svg>
