<svg width="13" height="13" viewBox="0 0 13 13" fill="none" xmlns="http://www.w3.org/2000/svg">
<mask id="mask0_122_2645" style="mask-type:luminance" maskUnits="userSpaceOnUse" x="0" y="0" width="13" height="13">
<path d="M0.6875 0.421875H12.1406V12.4115H0.6875V0.421875Z" fill="white"/>
</mask>
<g mask="url(#mask0_122_2645)">
<path d="M11.8645 7.375C11.776 7.78125 11.625 8.16667 11.4427 8.53125L11.2916 8.80208L11.1302 9.06771C11.0781 9.15104 11.0156 9.23438 10.9531 9.31771L10.8645 9.44271C10.8333 9.48438 10.802 9.52083 10.7708 9.5625C10.6927 9.65625 10.6145 9.75 10.5364 9.83854C10.625 9.73438 10.7083 9.625 10.7916 9.51042C11.0312 9.17708 11.2395 8.8125 11.4114 8.43229C11.5781 8.04688 11.7187 7.65104 11.8281 7.25C11.8489 7.14583 11.8802 7.04688 11.8958 6.94271C11.9218 6.83854 11.9322 6.72917 11.9375 6.625C11.9479 6.41146 11.9322 6.20313 11.9062 5.98958C11.8437 5.56771 11.7291 5.15625 11.5937 4.75521C11.4531 4.35938 11.2864 3.96875 11.0885 3.59375C10.9895 3.40625 10.8854 3.21875 10.7447 3.05729C10.6041 2.89583 10.4583 2.74479 10.302 2.60417C9.99475 2.3125 9.66141 2.05208 9.30725 1.83854C9.13016 1.72396 8.94266 1.63021 8.75516 1.53646C8.56766 1.44792 8.37496 1.36459 8.17704 1.30208C7.78641 1.17188 7.39579 1.02604 6.98433 1.01042C6.35412 0.97396 5.70829 1.09375 5.10933 1.30729C4.73954 1.41146 4.38016 1.5625 4.04683 1.79167C3.651 2.05208 3.26558 2.33333 2.91662 2.64063C2.95308 2.60417 2.98954 2.56771 3.026 2.52604C3.31245 2.23438 3.62496 1.97396 3.9687 1.76042C4.14058 1.65104 4.31766 1.55208 4.50516 1.47396C4.68745 1.39063 4.88537 1.32813 5.07287 1.25521C5.45829 1.125 5.84891 0.994793 6.24995 0.916668C6.64579 0.833334 7.04683 0.78646 7.45308 0.812501C7.85933 0.838542 8.25516 0.947919 8.62496 1.13021C8.98954 1.31771 9.32808 1.5625 9.64058 1.83854L9.87496 2.04688C9.94787 2.11979 10.0208 2.19271 10.0937 2.26563C10.2447 2.41146 10.3802 2.57292 10.5156 2.73438C11.0416 3.38021 11.4791 4.11458 11.7395 4.91146C11.9947 5.70833 12.0572 6.56771 11.8645 7.375ZM9.91662 10.3802C9.59891 10.6406 9.24996 10.8542 8.87496 11.0104C8.49996 11.1667 8.10412 11.2708 7.69787 11.3229C7.29162 11.3698 6.88537 11.375 6.47391 11.3438L6.01558 11.2865L5.86454 11.2604L5.56245 11.2031L5.26558 11.1302C5.0885 11.0938 4.91662 11.0417 4.74475 10.9896C6.3385 11.4375 7.97391 10.9115 8.63016 10.5521C9.70308 9.96354 12.625 8.13542 11.177 4.33333C11.1666 4.3125 11.1614 4.29167 11.151 4.27083C10.2916 2.36458 8.401 1.11979 6.31766 1.14583C6.22391 1.14583 6.12496 1.15104 6.026 1.15625C6.33329 1.11458 6.64579 1.09896 6.95829 1.11979C7.36454 1.14063 7.78121 1.19792 8.17183 1.32813C8.36975 1.39063 8.55725 1.47396 8.74475 1.5625C8.93225 1.65104 9.11454 1.75 9.29162 1.85938C9.64579 2.07813 9.97912 2.33854 10.2812 2.625C10.4375 2.76563 10.5833 2.91667 10.7187 3.07813C10.8593 3.23438 10.9583 3.42188 11.0572 3.60938C11.25 3.98438 11.4166 4.36979 11.5572 4.77083C11.6979 5.16667 11.8072 5.57813 11.8645 5.99479C11.8906 6.20313 11.9062 6.41146 11.8958 6.61979C11.8906 6.72396 11.8802 6.82813 11.8593 6.93229C11.8385 7.03646 11.8125 7.13542 11.7864 7.23438C11.677 7.64063 11.5364 8.03125 11.3697 8.41146C11.1979 8.78646 10.9895 9.15104 10.75 9.48438C10.5104 9.81771 10.2291 10.1198 9.91662 10.3802ZM2.98954 10.1771C2.82287 10.0573 2.65621 9.92708 2.50516 9.78646C2.34891 9.64583 2.20829 9.49479 2.07808 9.33333C1.81766 9.00521 1.60412 8.63542 1.4635 8.23958C1.39058 8.04688 1.33329 7.84375 1.29683 7.63542C1.25516 7.43229 1.23433 7.22396 1.2187 7.01563C1.20308 6.72917 1.2187 6.44271 1.24995 6.16146C1.29683 6.88542 1.526 7.69792 2.00516 8.625C2.66141 9.89583 3.55725 10.5781 4.48954 10.9063C4.35412 10.8646 4.2187 10.8125 4.08329 10.7604C3.70308 10.6042 3.33329 10.4063 2.98954 10.1771ZM11.8437 4.88021C11.5781 4.0625 11.1354 3.31771 10.5989 2.66146C10.4583 2.5 10.3177 2.33854 10.1718 2.1875C10.0937 2.11458 10.0208 2.04167 9.94266 1.96875L9.70829 1.75521C9.39058 1.47917 9.04683 1.22396 8.66662 1.04167C8.28641 0.84896 7.87496 0.739585 7.45829 0.713543C7.04162 0.682293 6.63016 0.734376 6.22391 0.817709C5.82287 0.901043 5.43225 1.03125 5.04162 1.16667C4.84891 1.23958 4.65621 1.30208 4.4687 1.38542C4.276 1.46875 4.0937 1.56771 3.92183 1.67708C3.57287 1.90104 3.24995 2.16667 2.9635 2.46354C2.74475 2.6875 2.54162 2.93229 2.35933 3.1875C1.73433 3.88021 1.30725 4.6875 1.24995 5.6875C1.24475 5.70833 1.23954 5.72917 1.23433 5.75C1.15621 6.16667 1.11975 6.58854 1.14579 7.01563C1.15621 7.22917 1.32287 8.0625 1.39579 8.26563C1.54162 8.67188 1.75516 9.04167 2.02079 9.375C2.15621 9.54167 2.30204 9.69792 2.45829 9.83854C2.61454 9.98438 2.7812 10.1094 2.95308 10.2344C3.30204 10.4688 3.67704 10.6667 4.06245 10.8229C4.25516 10.8958 4.45308 10.9688 4.651 11.026C4.84891 11.0833 5.04683 11.151 5.24995 11.1927L5.55204 11.2656L5.85933 11.3229L6.01037 11.349L6.16662 11.3646L6.47391 11.401C6.88537 11.4323 7.29683 11.4271 7.70829 11.3802C8.11454 11.3281 8.51558 11.2188 8.89579 11.0625C9.276 10.901 9.63016 10.6823 9.94787 10.4219C10.0468 10.3385 10.1458 10.25 10.2395 10.1563C9.85412 10.5521 9.43225 10.9115 8.98954 11.2396C8.66662 11.4844 8.32287 11.6979 7.95829 11.8698C7.5885 12.0417 7.20308 12.1615 6.80204 12.224C6.75516 12.2344 6.70308 12.2396 6.65621 12.2448C6.60412 12.25 6.55725 12.2604 6.50516 12.2604C6.401 12.2656 6.30204 12.276 6.20308 12.2708C5.99995 12.276 5.79683 12.2552 5.59891 12.224C5.39579 12.1927 5.20308 12.1406 5.00516 12.0833C4.81245 12.0156 4.62495 11.9427 4.43745 11.8542C3.70308 11.4896 3.61975 11.6094 4.38016 11.9792C4.57287 12.0729 4.77079 12.151 4.9687 12.2188C5.16662 12.2813 5.37495 12.3333 5.57808 12.3646C5.78641 12.3958 5.99475 12.4167 6.20308 12.4115C6.30725 12.4167 6.41141 12.4063 6.51558 12.401C6.56766 12.3958 6.61975 12.3906 6.67183 12.3854C6.72391 12.375 6.776 12.375 6.82808 12.3646C7.23954 12.2969 7.63537 12.1667 8.01037 11.9948C8.38537 11.8177 8.73954 11.599 9.06766 11.349C9.72912 10.8542 10.3489 10.2969 10.8645 9.64063C10.901 9.60417 10.9322 9.5625 10.9635 9.52083L11.052 9.39583C11.1145 9.30729 11.1822 9.22917 11.2343 9.13542L11.401 8.86979L11.5468 8.59375C11.7395 8.21875 11.8906 7.81771 11.9791 7.40625C12.1718 6.57813 12.1093 5.69271 11.8437 4.88021Z" fill="#CCCCCC"/>
</g>
<path d="M8.42188 8.48959C8.05729 8.16667 8.10938 8.51042 7.35938 8.05729C6.85417 7.75 7.11458 7.38542 7.33333 7.17709C7.50521 7.02084 7.63542 6.8125 7.68229 6.58334C7.84375 5.76563 7.1875 5.48438 5.86979 5.25C4.33854 4.97917 4.45833 3.73438 3.50521 2.44271C3.45833 2.38021 3.41146 2.32292 3.36458 2.27604C3.21354 2.39584 3.0625 2.51563 2.91667 2.64063C2.95313 2.60417 2.98958 2.56771 3.02604 2.52604C3.125 2.42709 3.22396 2.32813 3.33333 2.23959C3.30729 2.21354 3.28646 2.19271 3.26563 2.17709C3.16146 2.26563 3.0625 2.36459 2.96354 2.46354C2.74479 2.6875 2.54167 2.93229 2.35938 3.1875C1.77604 3.83334 1.35937 4.58854 1.26562 5.50521C1.59896 5.6823 1.95313 5.75521 2.26042 5.64584C3.58333 5.1875 3.125 5.5625 4.0625 6.60417C5 7.64584 2.23958 7.9948 2.98438 9.06771C3.72917 10.1458 4.66146 10.5677 5.27604 10.4115C5.88542 10.2604 5.09896 9.26042 5.85938 9.41667C6.625 9.57813 6.90104 9.67188 7.20833 9.73959C7.51042 9.80729 8.78646 8.81771 8.42188 8.48959Z" fill="#AFAEAE"/>
<path d="M9.74995 3.53125C9.37495 2.96875 9.16141 2.81771 9.16141 2.81771C8.24995 2.36459 8.39578 3.34896 8.31245 3.63542C8.22391 3.92709 7.07286 2.79688 6.38015 3.51042C5.68224 4.22917 7.2187 4.08334 7.7239 4.51563C8.22911 4.94792 8.35932 5.79688 8.99474 6.05209C9.63015 6.3073 9.98432 5.42188 10.1406 5.09375C10.2968 4.76563 10.1302 4.09375 9.74995 3.53125Z" fill="#AFAEAE"/>
<path d="M9.04684 7.54167C9.04684 7.54167 9.20309 8.04688 9.61455 7.84896C10.0208 7.65104 10.5573 7.80729 10.6979 7.45313C10.8385 7.09375 10.8281 6.93229 10.5208 6.71354C10.2083 6.49479 9.66142 7.01042 9.3958 7C9.12496 6.98959 8.71871 6.61979 8.65101 6.85417C8.57809 7.08334 9.01559 7.46875 9.04684 7.54167Z" fill="#AFAEAE"/>
<path d="M4.4584 2.64584C4.5261 2.77084 4.38548 2.95313 4.66673 3.1875C4.95319 3.42708 5.03652 3.65104 5.17715 3.52084C5.31256 3.39063 5.10944 3.36979 5.13027 3.10417C5.1511 2.83854 5.63027 2.92188 5.4636 2.69792C5.29173 2.47917 5.13027 2.60938 4.90631 2.46875C4.68235 2.33334 4.32819 2.40104 4.4584 2.64584Z" fill="#AFAEAE"/>
</svg>
