<svg width="7" height="7" viewBox="0 0 7 7" fill="none" xmlns="http://www.w3.org/2000/svg">
<path d="M5.61452 1.09375C4.92702 0.520837 4.24473 0.364587 3.63015 0.41667C3.73952 0.406254 3.8489 0.401044 3.95827 0.395836C4.20827 0.395836 4.45827 0.41667 4.70306 0.463545C4.82285 0.489587 4.94264 0.526045 5.06244 0.567711C5.18223 0.609378 5.29681 0.661462 5.40619 0.718753C5.63014 0.838545 5.83327 0.994795 5.99994 1.18229C6.08848 1.27084 6.1666 1.36979 6.23952 1.47396C6.30723 1.58334 6.36973 1.69271 6.42702 1.80209C6.49994 1.95834 6.55723 2.11979 6.6041 2.28646C6.4114 1.89584 6.09369 1.5 5.61452 1.09375ZM6.46869 4.72396C6.38015 4.95313 6.26556 5.17188 6.12494 5.375C6.05723 5.47396 5.9791 5.57292 5.89577 5.66146C5.81244 5.74479 5.71869 5.82813 5.63015 5.91667C5.44785 6.07813 5.26035 6.23959 5.05723 6.38021C4.8541 6.52084 4.64056 6.64063 4.4114 6.71875C4.17702 6.80209 3.93223 6.83334 3.68744 6.81771C3.43744 6.80209 3.19264 6.7448 2.95306 6.66667L2.77598 6.60417C2.71869 6.58334 2.6614 6.5573 2.6041 6.53646C2.48431 6.48959 2.37494 6.4323 2.26035 6.375C1.81765 6.14063 1.40098 5.83334 1.07285 5.45313C0.73952 5.06771 0.510353 4.60417 0.42702 4.10938C0.380145 3.86459 0.369728 3.61459 0.390562 3.36979L0.406187 3.18229L0.437437 3C0.442645 2.9375 0.463478 2.88021 0.473895 2.81771L0.499937 2.72917C0.505145 2.69792 0.510353 2.66667 0.52077 2.64063C0.541603 2.56771 0.562437 2.5 0.588478 2.42709C0.562437 2.51042 0.541603 2.58854 0.52077 2.67188C0.463478 2.91667 0.437436 3.16667 0.432228 3.41667C0.427019 3.67188 0.442644 3.92188 0.473895 4.17709C0.484311 4.23438 0.494729 4.29688 0.505145 4.36459C0.515562 4.42188 0.536395 4.48438 0.557228 4.54688C0.604103 4.66667 0.661395 4.78125 0.723895 4.89063C0.859311 5.10938 1.01556 5.3125 1.18744 5.50521C1.35931 5.69271 1.5416 5.86979 1.73952 6.03125C1.83848 6.11459 1.94264 6.19271 2.05723 6.2448C2.17181 6.30209 2.2916 6.35417 2.40619 6.39584C2.64577 6.48438 2.89056 6.54688 3.14056 6.58855C3.26556 6.60938 3.39056 6.6198 3.51556 6.625C3.64056 6.63021 3.77077 6.63021 3.89056 6.6198C4.14056 6.59896 4.39056 6.58854 4.62494 6.5C4.98431 6.3698 5.31764 6.15104 5.5989 5.89063C5.77598 5.75 5.94264 5.57813 6.07285 5.375C6.23431 5.13542 6.38015 4.88542 6.50515 4.63542C6.49473 4.66667 6.48431 4.69271 6.46869 4.72396ZM0.807228 1.98438C0.916603 1.76563 1.06765 1.5625 1.23431 1.39063C1.4114 1.21354 1.6041 1.0573 1.81765 0.937503C2.03119 0.812503 2.25514 0.718752 2.48952 0.640628L2.67181 0.583336L2.8489 0.54167L3.03119 0.500003L3.21348 0.468753C3.32285 0.447921 3.42702 0.437504 3.5364 0.427086C2.54681 0.552086 1.76035 1.22917 1.4791 1.58334C1.02077 2.16146 -0.177146 3.86979 1.51556 5.64063C1.52598 5.65104 1.5364 5.66146 1.54681 5.67188C2.46869 6.52604 3.81244 6.77084 4.96348 6.26563C5.01556 6.2448 5.06764 6.21875 5.11973 6.19271C4.96348 6.28646 4.7916 6.3698 4.61452 6.4323C4.38535 6.52084 4.14056 6.58334 3.89056 6.60417C3.76556 6.61459 3.64056 6.61459 3.52077 6.60938C3.39056 6.60417 3.26556 6.59375 3.14577 6.57292C2.89577 6.53125 2.65098 6.46875 2.4114 6.38021C2.29681 6.33855 2.17702 6.28646 2.06765 6.22917C1.95306 6.17709 1.8541 6.09375 1.75515 6.01563C1.55723 5.85417 1.37494 5.67709 1.20306 5.48959C1.0364 5.30209 0.874936 5.09896 0.744728 4.88021C0.682228 4.77084 0.624937 4.65625 0.58327 4.53646C0.562437 4.47917 0.541603 4.42188 0.531187 4.35417C0.515561 4.29688 0.510353 4.23438 0.499937 4.17188C0.468686 3.92188 0.453062 3.67188 0.45827 3.42188C0.463478 3.17188 0.494729 2.92188 0.55202 2.67709C0.604104 2.4375 0.692644 2.20313 0.807228 1.98438ZM6.71869 2.55209C6.71348 2.53646 6.71348 2.52084 6.71348 2.51042C6.6614 2.26042 6.57806 2.01563 6.46869 1.78646C6.4114 1.67188 6.11973 1.2448 6.0364 1.15104C5.85931 0.963545 5.65098 0.802085 5.42702 0.682295C5.31244 0.619795 5.19785 0.567711 5.07806 0.526045C4.95827 0.484378 4.83327 0.453129 4.70827 0.421878C4.45827 0.375003 4.20827 0.35417 3.95306 0.359378C3.82806 0.359378 3.70306 0.369796 3.57806 0.38542C3.45306 0.395837 3.33327 0.406253 3.20827 0.432295L3.02598 0.463545L2.74994 0.526045L2.6614 0.552086L2.4791 0.60417C2.24473 0.682295 2.01556 0.781253 1.80202 0.906253C1.58327 1.03125 1.38535 1.1875 1.21348 1.36459C1.0416 1.54167 0.890562 1.75 0.775978 1.96875C0.739521 2.03646 0.708271 2.10938 0.67702 2.18229C0.796812 1.875 0.947854 1.57292 1.11973 1.28646C1.23952 1.07813 1.38015 0.875003 1.54681 0.692711C1.70827 0.510419 1.65098 0.453129 1.48431 0.63542C1.31765 0.822921 1.17181 1.03125 1.04681 1.24479C0.796812 1.67709 0.583269 2.13542 0.447853 2.61459C0.437436 2.64584 0.432229 2.67709 0.42702 2.70834L0.400978 2.79688C0.390562 2.85938 0.369728 2.92188 0.36452 2.98438L0.33327 3.17188L0.312437 3.35938C0.296811 3.61459 0.307229 3.86979 0.354103 4.11979C0.437437 4.63021 0.682229 5.10417 1.02077 5.49479C1.35931 5.88542 1.78119 6.19792 2.2291 6.4323C2.3489 6.48959 2.45827 6.54688 2.57806 6.59375C2.63535 6.6198 2.69785 6.64063 2.75515 6.66146L2.93744 6.72917C3.17702 6.80209 3.42702 6.86459 3.68223 6.88021C3.93744 6.89584 4.19264 6.85938 4.43223 6.77605C4.67181 6.69792 4.88535 6.56771 5.09369 6.42709C5.29681 6.28646 5.48431 6.125 5.6666 5.95834C5.75515 5.8698 5.8489 5.79167 5.93744 5.69792C6.02077 5.60938 6.0989 5.51042 6.17181 5.40625C6.31244 5.20313 6.42702 4.97917 6.52077 4.74479C6.58848 4.56771 6.64577 4.38542 6.68744 4.19792C6.87494 3.67188 6.92181 3.1198 6.71869 2.55209Z" fill="#CCCCCC"/>
<path d="M6.75526 2.65625C6.52609 2.63541 6.31255 2.67708 6.16672 2.80729C5.53651 3.375 5.70318 3.0625 4.94276 2.70312C4.17713 2.34375 5.63026 1.5 4.96359 1.07812C4.29693 0.65625 3.68234 0.640624 3.38026 0.869791C3.07297 1.09896 3.74484 1.47396 3.2813 1.5625C2.82297 1.65104 2.64589 1.66667 2.45839 1.69792C2.27609 1.73437 1.79693 2.58854 2.07818 2.68229C2.35422 2.77604 2.24484 2.59896 2.76568 2.67187C3.11984 2.72396 3.06255 2.98958 2.98964 3.15625C2.92713 3.28125 2.9063 3.42708 2.93755 3.56771C3.03651 4.05729 3.46359 4.0625 4.25526 3.88021C5.16672 3.67187 5.39068 4.39063 6.22401 4.88542C6.26568 4.90625 6.30213 4.92708 6.33859 4.94271C6.40109 4.84375 6.45318 4.73958 6.50526 4.63542C6.49484 4.66667 6.48443 4.69271 6.4688 4.72396C6.43755 4.80208 6.4063 4.88021 6.36984 4.95833C6.38547 4.96354 6.40109 4.96875 6.41672 4.97917C6.45318 4.90104 6.48964 4.82292 6.52089 4.74479C6.58859 4.56771 6.64589 4.38541 6.68755 4.19792C6.85943 3.70312 6.91672 3.1875 6.75526 2.65625Z" fill="#AFAEAE"/>
<path d="M2.98973 6.01042C2.98973 6.01042 2.83869 5.97396 2.49494 5.75C2.1564 5.52604 1.9064 5.19271 1.91682 4.97396C1.92723 4.75521 1.91682 4.17708 2.32828 4.17188C2.73973 4.16667 3.01057 4.60417 3.39598 4.72396C3.77619 4.84896 4.59911 4.40104 4.37515 4.96354C4.1564 5.52604 3.25536 5.17188 3.27619 5.35417C3.29182 5.53125 3.60432 6.04688 2.98973 6.01042Z" fill="#AFAEAE"/>
<path d="M1.9532 3.35416C1.9532 3.35416 1.74486 3.10937 1.56257 3.31771C1.38549 3.52604 1.04695 3.5625 1.05736 3.79687C1.06257 4.02604 1.10424 4.11458 1.3282 4.16146C1.54695 4.21354 1.73445 3.79687 1.88549 3.73958C2.03653 3.68229 2.34903 3.78646 2.33341 3.64583C2.31778 3.5 1.98445 3.39062 1.9532 3.35416Z" fill="#AFAEAE"/>
<path d="M5.64608 4.99479C5.58358 4.94271 5.61483 4.80729 5.40129 4.74479C5.19295 4.67708 5.08879 4.57292 5.04191 4.67708C4.99504 4.78125 5.11483 4.75 5.16691 4.90104C5.21899 5.05208 4.93254 5.11979 5.07837 5.20312C5.21899 5.28646 5.2815 5.17187 5.43774 5.19792C5.59399 5.22396 5.77629 5.10417 5.64608 4.99479Z" fill="#AFAEAE"/>
</svg>
