<svg width="31" height="33" viewBox="0 0 31 33" fill="none" xmlns="http://www.w3.org/2000/svg">
<path d="M29.026 13.6302C27.9948 10.4896 25.9323 8.55209 25.8958 8.51563L25.8698 8.48959C25.75 8.29688 25.6302 8.10938 25.5052 7.92709C24.9844 7.4323 24.4479 6.9375 23.901 6.45313C24.8854 7.08855 25.8125 7.79688 26.6302 8.58855C26.9166 8.87501 27.1927 9.16667 27.4583 9.45834C28.1146 10.2135 28.6719 11.0313 29.0885 11.9271C28.6354 11.2969 28.1302 10.6719 27.5781 10.0573C29.0677 12.2083 30.9166 16.1563 29.2239 21.0052C29.1198 21.2969 29.0104 21.5885 28.8958 21.8802C29.0364 21.5833 29.1666 21.2865 29.2864 20.9792C29.6093 20.151 29.8385 19.276 29.9791 18.3854C29.4896 22.4115 27.1614 26.401 22.8958 28.7031C25.3854 27.151 27.5573 24.7708 28.8958 21.8802C28.9479 21.7396 29 21.599 29.0521 21.4531C30.1146 18.4219 29.7812 15.7396 29.026 13.6302ZM30.4427 18.4427C29.2291 24.6458 25.4687 28.7396 21.2343 30.6719C20.7708 30.7292 19.9687 30.8125 18.9479 30.8698C19.9896 30.4427 20.6666 30.0104 20.776 29.9375C28.8177 27.1146 31.6771 19.1094 29.7916 12.9896C29.5781 12.2917 29.276 11.6302 28.9166 11.0052C27.75 8.48438 25.7187 6.13021 22.6771 4.3073C23.6198 5.08855 24.5052 6.01563 25.3073 7.10417C25.125 6.96355 24.9323 6.82292 24.7448 6.6875C24.6302 6.60938 24.5104 6.53126 24.401 6.45834C23.2291 5.06771 20.0729 2.97396 19.3333 2.6875C18.9687 2.54688 18.6093 2.4323 18.2552 2.32813C19.5937 2.75 20.7812 3.52605 22.0104 4.5625C22.7552 5.19271 23.6094 5.76042 24.3385 6.41667C23.8125 6.0625 23.2708 5.72917 22.7187 5.41667C22.4531 5.19271 22.1875 4.96355 21.9218 4.73959C19.776 2.92188 17.401 2.16146 14.9896 2.13021C14.7187 2.04167 14.3958 1.96875 14.1718 1.85938C14.0677 1.82813 13.9583 1.78646 13.8646 1.76042C13.2083 1.54167 12.5781 1.45313 11.9791 1.47396C13.9791 0.921879 16.1666 0.921879 18.4896 1.51563C25.5052 3.3125 31.9844 10.5417 30.4427 18.4427ZM14.6562 31.9271C12.8437 31.7917 10.9739 31.2396 9.22393 30.1823C9.35935 30.224 9.49997 30.2604 9.6406 30.3021C12.776 32.2708 15.9531 31.8802 18.1093 31.1771C18.9896 31.151 19.7552 31.0938 20.3541 31.0417C18.4583 31.7656 16.5 32.0573 14.6562 31.9271ZM17.0416 31.1927C15.2448 31.6146 12.9635 31.6927 10.6458 30.5521C12.875 31.0469 15.1458 31.1927 17.0416 31.1927ZM15.3229 30.6094C16.8646 30.7917 18.4531 30.5938 19.9948 30.0729C19.5468 30.3177 18.8802 30.6302 18.0625 30.9063C15.7604 30.974 12.6823 30.849 9.77602 30.0625C9.71352 30.0156 9.64581 29.9792 9.5781 29.9375C9.44268 29.849 9.31247 29.7552 9.18227 29.6667C12.2343 31.125 15.3229 30.6094 15.3229 30.6094ZM8.35935 29.6146C7.3906 28.9167 6.46872 28.0521 5.63018 27.0052C6.6406 28.0521 7.75518 28.9948 8.88539 29.7969C8.70831 29.7396 8.53643 29.6771 8.35935 29.6146ZM3.38018 26.3646C1.42706 24.0833 0.703098 20.9844 1.2031 17.1146C1.13018 19.9896 2.24997 22.6979 3.96352 25.026C4.95831 26.776 6.1406 28.1667 7.43227 29.2448C5.88539 28.5729 4.47393 27.6354 3.38018 26.3646ZM2.82289 22.6667C2.09893 21.25 1.62497 19.7344 1.50518 18.1563C1.83331 19.8229 2.28122 21.3281 2.82289 22.6667ZM2.21352 13.5573C1.80206 16.3854 2.23435 20.2448 4.84372 25.3594C5.03643 25.7448 5.24997 26.099 5.46872 26.4271C5.01039 25.9323 4.58331 25.4063 4.18227 24.8646C2.94268 22.6823 1.99997 19.9427 1.50518 16.5677C1.58331 15.5781 1.81247 14.5729 2.21352 13.5573ZM2.22393 12.6302C3.38539 8.92709 5.12497 6.05209 7.29685 4.09375C6.38018 5.12501 5.53122 6.39063 4.73956 7.78125C3.65622 9.27605 2.95831 10.7031 2.68227 11.5417C2.60414 11.7865 2.52601 12.0417 2.45831 12.3125C2.36977 12.5104 2.28122 12.7083 2.18747 12.9063C2.12497 13.0469 2.07289 13.1823 2.0156 13.3177C2.08331 13.0938 2.15101 12.8646 2.22393 12.6302ZM13.4791 1.9323C13.6354 1.97917 13.6875 1.98959 13.776 2.01563C13.9062 2.0625 14.0416 2.10417 14.1771 2.15105C12.8541 2.22396 11.5208 2.50521 10.2187 2.95313C8.5781 3.76563 7.18747 4.92188 6.06247 6.15625C8.10414 3.11459 10.5 1.13021 13.4791 1.9323ZM24 3.79688C22.3229 2.61459 20.4583 1.73438 18.5573 1.2448C15.1562 0.375004 11.8854 0.786463 9.09893 2.4323C5.87497 4.33334 3.47393 7.73438 1.96352 12.5469C1.7031 13.375 1.48435 14.1771 1.30727 14.9531C1.25518 14.3854 1.21351 13.8021 1.18227 13.2031C1.17706 13.1302 1.11456 13.0729 1.03643 13.0729C0.963514 13.0781 0.906223 13.1458 0.906223 13.2188C0.953098 14.125 1.02602 14.9896 1.13018 15.8229C0.276015 20.3594 0.958307 23.9583 3.17185 26.5417C4.50518 28.0938 6.28122 29.1458 8.21352 29.849C10.2448 31.3073 12.4791 32.0417 14.6406 32.1979C16.7968 32.3594 19.1146 31.9375 21.3073 30.9427C21.5885 30.8281 21.7135 30.75 21.7135 30.75C25.8698 28.724 29.5156 24.6146 30.7083 18.4948C31.8646 12.5885 28.625 7.04688 24 3.79688Z" fill="#5094BA"/>
<path d="M23.6458 20.1771C23.6146 19.9635 23.5469 19.7552 23.4479 19.5625C23.3437 19.3698 23.2083 19.2031 23.0521 19.0573C22.7344 18.776 22.3802 18.6094 22.0156 18.4792C21.2865 18.2292 20.526 18.1719 19.776 18.2448C19.401 18.2865 19.0313 18.3594 18.6719 18.4896C18.3125 18.6146 17.9583 18.7969 17.6719 19.0885C17.526 19.2344 17.4063 19.4115 17.3333 19.6146C17.2552 19.8125 17.2396 20.0313 17.2604 20.2344C17.3177 20.651 17.5156 20.9948 17.75 21.2917C17.8698 21.4427 18.0156 21.5729 18.1719 21.6927C18.3281 21.8021 18.5 21.8906 18.6875 21.9531C19.0521 22.0677 19.4427 22.0781 19.8021 22.0052C20.5313 21.8646 21.1823 21.5104 21.7552 21.0729C21.4479 21.2656 21.1302 21.4271 20.7969 21.5573C20.4688 21.6875 20.125 21.7865 19.776 21.8229C19.4323 21.8594 19.0833 21.8333 18.7708 21.7083C18.6198 21.6458 18.4792 21.5573 18.349 21.4531C18.224 21.349 18.1094 21.2292 18.0104 21.0885C17.8177 20.8177 17.6667 20.5 17.6406 20.1979C17.6146 19.8906 17.7396 19.6094 17.974 19.401C18.2031 19.1875 18.5052 19.0417 18.8229 18.9427C19.1406 18.8385 19.4792 18.7813 19.8229 18.7604C20.5 18.7135 21.1979 18.7969 21.8229 19.026C22.1302 19.1406 22.4323 19.3021 22.6458 19.5C22.75 19.6042 22.8385 19.7188 22.9063 19.849C22.9687 19.974 23.0104 20.1146 23.026 20.2552C23.0469 20.401 23.0417 20.5521 23.0104 20.6979C22.9844 20.849 22.9427 21 22.875 21.1406C22.7448 21.4271 22.5573 21.6927 22.3281 21.9271C21.875 22.3906 21.2708 22.7188 20.6302 22.8906C19.9896 23.0625 19.2969 23.099 18.6406 22.9844C17.974 22.875 17.3385 22.6146 16.7188 22.2969C15.4688 21.6615 14.2917 20.7813 12.8438 20.3177C12.4688 20.2135 12.0885 20.1771 11.7188 20.1719C11.3438 20.1667 10.974 20.1927 10.6146 20.2396C9.89062 20.3333 9.17708 20.4896 8.48438 20.6823C7.09375 21.0781 5.73958 21.5781 4.4375 22.1875C5.79167 21.7188 7.16667 21.3021 8.5625 21C9.25521 20.849 9.95833 20.7292 10.6563 20.6719C11.3542 20.625 12.0677 20.6198 12.6927 20.8177C12.8437 20.8646 13.0104 20.9375 13.1667 21.0052C13.3281 21.0781 13.4844 21.151 13.6406 21.2344C13.9479 21.3958 14.2552 21.5677 14.5625 21.75C15.1719 22.1094 15.776 22.5052 16.4219 22.8542C17.0729 23.2031 17.776 23.4948 18.5313 23.6302C19.2813 23.7604 20.0573 23.7292 20.8021 23.5313C21.5417 23.3281 22.2448 22.9479 22.7917 22.3802C23.0677 22.099 23.2969 21.7708 23.4635 21.3958C23.6198 21.026 23.7083 20.6042 23.6458 20.1771Z" fill="#D8D3D7"/>
<path d="M23.2134 4.63542C23.1561 4.63542 23.104 4.63021 23.0467 4.625C23.854 5.33854 24.6144 6.16146 25.3071 7.10417C25.1248 6.96354 24.9321 6.82292 24.7446 6.6875C24.63 6.60938 24.5103 6.53125 24.4009 6.45834C23.9165 5.88021 23.0936 5.19271 22.2446 4.55208C22.1509 4.54688 22.0571 4.53646 21.9634 4.52604C21.979 4.53646 21.9946 4.55208 22.0103 4.5625C22.755 5.19271 23.6092 5.76042 24.3384 6.41667C23.8123 6.0625 23.2707 5.72917 22.7186 5.41667C22.453 5.19271 22.1873 4.96354 21.9217 4.73958C21.8228 4.65625 21.7238 4.57292 21.6248 4.49479C21.0155 4.4375 20.4009 4.375 19.7759 4.30729C15.8123 3.875 12.1092 3.74479 8.82275 3.76042C7.77588 4.45834 6.854 5.28646 6.06234 6.15625C6.6665 5.25 7.30713 4.44271 7.98421 3.77083C7.729 3.77083 7.4738 3.77604 7.229 3.78125C5.17171 5.57292 3.5363 8.11979 2.354 11.3906C2.44255 11.4115 2.53109 11.4271 2.62484 11.4479C3.77067 8.3125 5.36442 5.83854 7.29671 4.09375C6.38005 5.125 5.53109 6.39063 4.73942 7.78125C3.69254 9.22917 3.00505 10.6094 2.70817 11.4583C5.21859 11.875 7.49984 11.0104 15.8592 8.67709C22.5207 6.82292 23.5623 8.35938 27.0363 9.83854C26.4113 9 25.9165 8.53646 25.8957 8.51563L25.8696 8.48959C25.7498 8.29688 25.63 8.10938 25.505 7.92709C24.9842 7.43229 24.4478 6.9375 23.9009 6.45313C24.8853 7.08854 25.8123 7.79688 26.63 8.58854C26.9165 8.875 27.1925 9.16667 27.4582 9.45833C27.6873 9.71875 27.8957 9.98438 28.0988 10.2552C28.2707 10.3177 28.453 10.3802 28.6353 10.4427C27.5155 8.28125 25.7394 6.27084 23.2134 4.63542Z" fill="#D8D3D7"/>
<path d="M25.297 4.79688C25.1408 4.78646 24.9845 4.77604 24.8335 4.76562C26.8022 6.36458 28.4429 8.40104 29.4845 10.6927C29.5939 10.724 29.7033 10.7552 29.8179 10.7865C28.8179 8.48437 27.2241 6.43229 25.297 4.79688Z" fill="#D8D3D7"/>
<path d="M27.5781 10.0573L27.5833 10.0625C27.5833 10.0625 27.5833 10.0625 27.5885 10.0625C27.5833 10.0625 27.5781 10.0573 27.5781 10.0573Z" fill="#D8D3D7"/>
<path d="M2.82281 22.6667C2.09885 21.25 1.62489 19.7344 1.5051 18.1563C1.83323 19.8229 2.28114 21.3281 2.82281 22.6667ZM1.20302 17.1146C1.14573 19.2396 1.74469 21.2708 2.7551 23.1302C2.87489 22.9948 3.01031 22.8646 3.14573 22.7344C2.41656 20.974 1.84885 18.9271 1.5051 16.5677C1.51031 16.5417 1.51031 16.5156 1.51031 16.4948C1.34885 16.4896 1.18219 16.4896 1.01552 16.4896C0.531145 19.5365 0.770728 22.1354 1.73427 24.2708C1.79677 24.1979 1.86448 24.1146 1.92698 24.0365C1.09885 22.1094 0.854061 19.7969 1.20302 17.1146Z" fill="#0074D9"/>
<path d="M10.8335 19.3542C17.12 19.4063 18.6095 16.2969 22.6772 15.2917C24.5054 14.8438 27.1512 15.0469 29.5158 15.4011C29.4689 15.1719 29.4168 14.9427 29.3595 14.7188C28.5158 14.5208 27.5575 14.3229 26.4741 14.125C20.7345 13.0833 17.7814 14.125 15.0106 16.5156C12.547 18.6406 8.38037 16.724 2.11475 16.5052C2.23454 18.2031 2.646 20.1615 3.51058 22.4011C5.23975 20.849 7.72933 19.3229 10.8335 19.3542Z" fill="#2B7499"/>
<path d="M29.6562 14.7865C29.6979 15 29.7396 15.2188 29.7708 15.4427C29.9479 15.4688 30.1198 15.5 30.2917 15.5261C30.2708 15.3229 30.25 15.125 30.224 14.9219C30.0417 14.8802 29.849 14.8281 29.6562 14.7865Z" fill="#0074D9"/>
<path d="M30.9063 15.099C30.8177 15.0781 30.724 15.0521 30.625 15.026C30.6458 15.2135 30.6563 15.401 30.6615 15.5938C30.7552 15.6094 30.849 15.625 30.9375 15.6406C30.9323 15.4583 30.9219 15.2813 30.9063 15.099Z" fill="#0074D9"/>
<path d="M29.0939 21.4375C29.0835 21.4427 29.0731 21.4479 29.0627 21.4531C29.0106 21.5937 28.9533 21.7396 28.896 21.8802C28.9637 21.7344 29.0314 21.5885 29.0939 21.4375Z" fill="#D8D3D7"/>
<path d="M22.6771 25.7448C19.7448 27.2031 14.1302 26.125 5.65625 27.0313C6.57812 27.9844 7.57813 28.8438 8.60417 29.5938C11.8437 29.6823 15.724 30.224 17.8906 30.026C20.4531 29.7917 22.3021 28.3854 25.1823 26.9583C26.6979 25.5677 27.9896 23.8385 28.8958 21.8802C28.9479 21.7396 29 21.599 29.0521 21.4531C26.0938 22.6667 25.8125 24.1875 22.6771 25.7448Z" fill="#D8D3D7"/>
<path d="M5.6512 27.0312C5.54704 27.0417 5.43766 27.0573 5.32829 27.0677C5.98454 27.901 6.69287 28.6302 7.43245 29.2448C6.25016 28.7292 5.14079 28.0625 4.19808 27.2031C4.09391 27.2187 3.98975 27.2292 3.88037 27.2448C3.86996 27.25 3.85954 27.25 3.84912 27.25C4.9012 28.25 6.16162 29.0104 7.521 29.5781C7.78141 29.5781 8.04704 29.5781 8.31787 29.5833C7.36996 28.901 6.47412 28.0521 5.6512 27.0312Z" fill="#D8D3D7"/>
<path d="M29.9792 21.2083C29.875 21.224 29.7708 21.2448 29.6719 21.2656C29.0052 23.125 28.0885 24.75 27 26.125C27.1615 26.0573 27.3281 25.9896 27.5 25.9271C28.5104 24.5677 29.3594 22.9948 29.9792 21.2083Z" fill="#D8D3D7"/>
<path d="M29.2604 21.3802C28.5521 23.3333 27.375 25.1771 25.7188 26.6979C25.9635 26.5833 26.2135 26.4688 26.4688 26.3542C27.9167 24.8646 28.9531 23.1198 29.5885 21.2865C29.4792 21.3125 29.3698 21.3438 29.2604 21.3802Z" fill="#D8D3D7"/>
<path d="M1.97412 13.5104C4.99495 12.375 8.07308 11.4167 11.1825 10.5625C12.7345 10.1198 14.3022 9.75 15.8804 9.38021C16.672 9.20833 17.4689 9.05208 18.2866 8.92188C19.1356 8.79167 19.9585 8.73438 20.8022 8.73438C21.6408 8.73438 22.547 8.82813 23.4064 9.11979C24.271 9.40625 25.0366 9.85417 25.7137 10.3333C26.0575 10.5729 26.3856 10.8177 26.7137 11.0677C26.8804 11.1927 27.0783 11.349 27.2606 11.5417C27.3543 11.6458 27.4481 11.7604 27.5366 11.9115C27.62 12.0625 27.7189 12.2656 27.7189 12.5417C27.7189 12.8229 27.5835 13.1094 27.4325 13.2656C27.2866 13.4323 27.1408 13.5208 27.0054 13.5938C26.7397 13.7292 26.5054 13.7917 26.2762 13.8385C25.8179 13.9323 25.3908 13.9583 24.9637 13.9688C23.2762 13.9948 21.6512 13.75 20.0575 13.2813C19.6616 13.1406 19.2658 13.0313 18.8543 12.7344C18.7502 12.651 18.6304 12.5469 18.5679 12.3385C18.5054 12.1146 18.6252 11.9063 18.7189 11.8177C18.922 11.6146 19.12 11.5365 19.3179 11.4531C20.1095 11.1563 20.9064 11.0365 21.7137 10.9427C20.9481 11.1927 20.1772 11.4635 19.5054 11.8385C19.3491 11.9323 19.1825 12.0521 19.1147 12.151C19.0783 12.2083 19.1043 12.2083 19.1043 12.1823C19.1043 12.1667 19.1356 12.2135 19.1981 12.2448C19.4637 12.3906 19.8647 12.474 20.2397 12.5417C21.771 12.8177 23.3752 12.8854 24.896 12.7604C25.271 12.724 25.646 12.6667 25.9689 12.5729C26.1304 12.526 26.2814 12.4687 26.37 12.4167C26.4116 12.3906 26.4377 12.3646 26.422 12.375C26.4064 12.3854 26.3491 12.474 26.3543 12.5521C26.3804 12.7031 26.3595 12.5885 26.2606 12.5104C26.1616 12.4167 26.0418 12.3229 25.8804 12.2135C25.5575 11.9896 25.2293 11.7708 24.9012 11.5625C24.245 11.151 23.6095 10.776 22.9377 10.5677C22.271 10.3594 21.5575 10.2917 20.797 10.2969C20.4168 10.3021 20.0262 10.3073 19.6356 10.3281C19.2397 10.349 18.896 10.3906 18.5054 10.4427C17.7397 10.5521 16.9533 10.6927 16.172 10.8438C14.6043 11.1198 13.0366 11.4635 11.4637 11.7604C8.31787 12.3906 5.16162 13.0156 1.97412 13.5104Z" fill="#D8D3D7"/>
<path d="M23.1094 11.5156C21.7084 11.3802 20.5417 11.5885 20.5053 11.9792C20.4688 12.3698 21.573 12.7969 22.974 12.9323C24.3751 13.0625 25.5417 12.8542 25.5782 12.4688C25.6146 12.0781 24.5105 11.651 23.1094 11.5156Z" fill="#2B7499"/>
<path d="M19.8281 19.125C18.9375 19.0365 18.1666 19.5 18.1041 20.1511C18.0416 20.8021 18.7135 21.4011 19.6041 21.4844C20.4948 21.5729 21.2708 21.1146 21.3333 20.4636C21.3958 19.8073 20.7239 19.2083 19.8281 19.125Z" fill="#2B7499"/>
</svg>
