<svg width="25" height="24" viewBox="0 0 25 24" fill="none" xmlns="http://www.w3.org/2000/svg">
<mask id="mask0_122_2637" style="mask-type:luminance" maskUnits="userSpaceOnUse" x="0" y="0" width="25" height="24">
<path d="M0.125 0H24.7552V24H0.125V0Z" fill="white"/>
</mask>
<g mask="url(#mask0_122_2637)">
<path d="M20.9946 5.93749C21.156 6.11458 21.3175 6.29687 21.4737 6.47916C21.6144 6.72395 21.7498 6.97395 21.8696 7.23437C21.6925 6.97395 21.505 6.72395 21.3071 6.48437C21.0727 6.1302 20.8227 5.79166 20.5571 5.46354C20.7029 5.61979 20.8487 5.78125 20.9946 5.93749ZM22.3071 8.93229C22.3435 9.14062 22.3644 9.34895 22.3904 9.55729C22.4425 10.0312 22.4685 10.5052 22.479 10.974C22.1196 8.83333 21.0987 6.80729 19.4685 5.23958C19.2915 5.0677 19.1092 4.91145 18.9321 4.76562C19.229 4.95833 19.5206 5.16145 19.7967 5.38541C20.4321 5.87499 21.0206 6.42708 21.4998 7.0677C21.6248 7.23958 21.7446 7.41145 21.8487 7.59374C21.9633 7.83333 22.0675 8.07291 22.1508 8.32291C22.2133 8.52604 22.2706 8.72916 22.3071 8.93229ZM22.5415 7.86458C23.005 8.54166 23.4165 9.26562 23.6769 10.0417C23.9477 10.8177 24.0571 11.651 23.9998 12.4792C23.9477 13.3073 23.7498 14.1302 23.4894 14.9271L23.281 15.526C23.2081 15.724 23.1352 15.9167 23.0519 16.1146C23.0467 16.125 23.0415 16.1354 23.0362 16.1458C23.2237 15.5417 23.3696 14.9323 23.4633 14.3177C23.531 13.8958 23.5675 13.4792 23.5883 13.0521C23.604 12.6354 23.604 12.2135 23.5675 11.7917C23.4998 10.9531 23.229 10.099 22.9477 9.31249C22.8487 9.04687 22.7394 8.78125 22.6144 8.52604C22.4998 8.1302 22.354 7.73958 22.1873 7.36458C22.3123 7.52604 22.4269 7.6927 22.5415 7.86458ZM22.4737 9.55208C22.4529 9.33854 22.4321 9.1302 22.3904 8.92187C22.3696 8.78645 22.3331 8.65625 22.2967 8.52604C22.3852 8.76041 22.4581 8.99479 22.5206 9.23437C22.6092 9.58333 22.6665 9.93749 22.7081 10.2969C22.7654 10.9479 22.755 11.6042 22.6925 12.25L22.6248 12.7812C22.63 12.401 22.6092 12.0156 22.5727 11.6354C22.5831 10.9427 22.5519 10.2448 22.4737 9.55208ZM22.406 14.8698C22.4112 14.8333 22.4217 14.7969 22.4269 14.7656C22.4269 14.7604 22.4269 14.7604 22.4269 14.7604C22.4321 14.75 22.4373 14.7344 22.4425 14.7187C22.4321 14.7708 22.4165 14.8229 22.406 14.8698ZM22.531 16.7396C22.3852 17.1354 22.1248 17.4062 21.9373 17.7812C21.755 18.1667 21.4894 18.4948 21.2237 18.8281C21.0571 19.026 20.8852 19.224 20.7081 19.4167C20.8331 19.2396 20.9477 19.0625 21.0623 18.875C21.9373 17.4323 22.479 15.8125 22.7654 14.1615C22.8331 13.75 22.8956 13.3333 22.9269 12.9167C22.9425 12.7083 22.9581 12.5 22.9633 12.2917L22.979 11.6979C23.005 11.099 22.9842 10.4948 22.906 9.89583C23.0935 10.5104 23.2342 11.1406 23.281 11.7865C23.3175 12.2031 23.3123 12.6198 23.3019 13.0417C23.2758 13.4583 23.2446 13.8802 23.1717 14.2969C23.0467 15.125 22.8227 15.9479 22.531 16.7396ZM19.4321 21.2396C18.6508 21.9062 17.7654 22.4635 16.8227 22.8542C16.8227 22.8542 16.8227 22.849 16.8279 22.849C17.0206 22.7344 17.2081 22.6094 17.3956 22.4792C17.4477 22.4479 17.505 22.4167 17.5623 22.3854C18.2967 21.9479 18.9685 21.4167 19.5987 20.849C20.229 20.2708 20.8227 19.6562 21.3644 18.9948C21.6352 18.6667 21.906 18.3229 22.0883 17.9375C22.1717 17.7708 22.2915 17.6094 22.4165 17.4375C21.6404 18.8646 20.656 20.1823 19.4321 21.2396ZM14.6508 23.4375C14.0519 23.5208 13.4425 23.5417 12.8383 23.5156C12.8904 23.5104 12.9477 23.5052 13.005 23.5052L13.3071 23.4792C13.5154 23.4635 13.7185 23.4531 13.9217 23.4167L14.531 23.3281L14.8904 23.25C14.9842 23.2396 15.0727 23.2292 15.1665 23.2135C15.2862 23.1979 15.4008 23.1823 15.5206 23.1667C15.2342 23.276 14.9477 23.3646 14.6508 23.4375ZM12.6508 23.2604C12.5987 23.2604 12.5467 23.2604 12.4894 23.2552C12.5935 23.25 12.6925 23.2448 12.7915 23.2344C13.604 23.1667 14.4112 23.0052 15.1977 22.776C15.9842 22.5469 16.755 22.2448 17.4998 21.8906C17.6873 21.7969 17.8696 21.7083 18.0467 21.6042C17.9008 21.7396 17.7498 21.8594 17.5987 21.9844C17.5154 22.026 17.4373 22.0677 17.3592 22.1146C16.6404 22.4896 15.8696 22.7656 15.0883 22.9583L14.4946 23.0833L13.8956 23.1719C13.6977 23.2031 13.4946 23.2135 13.2967 23.2292L12.9946 23.2552C12.9477 23.2604 12.906 23.2604 12.8644 23.2604C12.7915 23.2656 12.7237 23.2656 12.6508 23.2604ZM11.2654 23.1458C10.9008 23.0937 10.5415 23.026 10.1821 22.9427C9.86958 22.8698 9.55708 22.776 9.25499 22.6771C10.8019 23.1458 12.505 23.2396 14.1665 22.9375C13.7081 23.0312 13.2498 23.099 12.7862 23.1354C12.2758 23.1823 11.7706 23.1823 11.2654 23.1458ZM10.6404 23.1927L10.4477 23.1458C10.6717 23.1823 10.9008 23.2135 11.1248 23.2292C10.9633 23.2187 10.8019 23.2083 10.6404 23.1927ZM7.91124 22.7396C7.12999 22.5677 6.36437 22.3229 5.64041 21.9948C4.91645 21.6615 4.23937 21.2292 3.6352 20.7187C3.55708 20.6562 3.48937 20.5833 3.41124 20.5156C3.34353 20.4479 3.26541 20.3854 3.1977 20.3125C3.06229 20.1667 2.91645 20.026 2.79145 19.8698C2.53104 19.5729 2.30187 19.2448 2.09354 18.901C1.87999 18.5625 1.70812 18.2031 1.54666 17.8333C1.39562 17.4583 1.2602 17.0781 1.16645 16.6823C1.15083 16.6354 1.14041 16.5885 1.12999 16.5469C1.15083 16.599 1.17166 16.6562 1.19249 16.7083C1.27062 16.9115 1.36958 17.099 1.46333 17.2865C1.50499 17.3802 1.56229 17.474 1.61437 17.5625C1.66645 17.6562 1.71333 17.75 1.77583 17.8385C2.21854 18.5521 2.76541 19.2031 3.3852 19.7656C4.00499 20.3281 4.69249 20.8229 5.41124 21.2448C6.55187 21.9219 7.75499 22.5156 9.0102 22.9687C8.64562 22.901 8.27583 22.8229 7.91124 22.7396ZM0.869577 14.2135C0.843535 13.8021 0.827911 13.3906 0.853952 12.974C0.916452 11.9687 1.1352 10.9687 1.48416 10.0104C1.22895 11.5 1.21333 13.0417 1.48416 14.5469C1.64041 15.3854 1.87999 16.2135 2.23416 16.9948C2.41124 17.3854 3.33833 18.8333 3.62479 19.1562C4.01541 19.6042 4.45812 20 4.94249 20.349C5.28104 20.6719 5.65604 21.0052 6.00499 21.276C5.85395 21.1927 5.70291 21.1042 5.55187 21.0104C4.84354 20.5937 4.17687 20.1146 3.5727 19.5625C2.96853 19.0104 2.44249 18.3802 2.0102 17.6875C1.95291 17.6042 1.90604 17.5104 1.85395 17.4219C1.80708 17.3333 1.74979 17.2448 1.70812 17.1562C1.61958 16.9687 1.52583 16.7865 1.45291 16.599C1.29145 16.2187 1.16645 15.8281 1.06749 15.4323C0.968535 15.0312 0.911244 14.625 0.869577 14.2135ZM1.84354 9.12499C1.94249 8.90625 2.04666 8.68749 2.15604 8.47395C1.98416 8.93229 1.84874 9.40104 1.75499 9.87499C1.68208 10.2917 1.64041 10.7083 1.62479 11.125C1.61437 11.5417 1.6352 11.9583 1.67166 12.375C1.68729 12.4844 1.6977 12.599 1.71333 12.7083C1.70812 12.7604 1.70812 12.8073 1.6977 12.8594C1.68208 13.026 1.68729 13.1823 1.6977 13.3437C1.71853 13.6562 1.77062 13.9687 1.83312 14.2708C1.96333 14.8854 2.16124 15.4792 2.42166 16.0469C2.79145 16.8802 3.29666 17.6458 3.89041 18.3333L3.92687 18.401L4.09354 18.6562L4.43729 19.1615C4.83312 19.7031 5.26541 20.2187 5.73937 20.6875C5.71853 20.6771 5.70291 20.6667 5.68208 20.6562C4.95291 20.2344 4.28624 19.6979 3.73416 19.0573C3.45291 18.7448 3.20291 18.401 2.97374 18.0469C2.74979 17.6927 2.55187 17.3177 2.37479 16.9323C2.02583 16.1615 1.79666 15.349 1.64041 14.5208C1.34874 12.8646 1.40083 11.1667 1.74458 9.54166C1.77583 9.40104 1.80708 9.26562 1.84354 9.12499ZM1.83833 11.724C1.8227 11.8542 1.80187 11.9844 1.78624 12.1094C1.7602 11.7812 1.74979 11.4583 1.7602 11.125C1.77583 10.776 1.80708 10.4323 1.86437 10.0885C1.83312 10.3802 1.81229 10.6667 1.81229 10.9583C1.80708 11.2135 1.8227 11.4687 1.83833 11.724ZM2.06749 14.3177C2.09874 14.4792 2.1352 14.6458 2.17687 14.8073C2.22895 15.0156 2.70291 16.1875 2.85395 16.4687C2.48416 15.9844 2.28104 15.2187 2.24979 15.1198C2.15604 14.8281 2.0727 14.5365 2.0102 14.2344C1.98416 14.1094 1.91124 13.7448 1.89041 13.6146C1.92687 13.7708 2.02062 14.1667 2.06749 14.3177ZM1.91124 13.1615C1.91124 13.1406 1.87479 13.026 1.87479 13.0052C1.87479 12.9948 1.87999 12.8906 1.87999 12.8854C1.87999 12.875 1.92166 12.2292 1.92166 12.224C1.93208 12.7708 1.91124 13.1198 1.91124 13.1615ZM2.73937 7.58333C2.93729 7.22395 3.16645 6.8802 3.42166 6.55208C3.53624 6.40625 3.66124 6.26562 3.78624 6.12499C3.70291 6.26041 3.62479 6.39062 3.55187 6.53124C3.3852 6.83854 3.24458 7.15625 3.11958 7.47916C2.50499 8.60416 2.10395 9.83333 1.9477 11.1146C1.91645 11.2708 1.8852 11.4323 1.86437 11.5885C1.83833 11.3802 1.82791 11.1719 1.82791 10.9635C1.83312 10.5469 1.86437 10.1406 1.92687 9.73437C2.08833 8.98437 2.35395 8.24999 2.73937 7.58333ZM2.48937 7.17708C2.81229 6.41666 3.21333 5.6927 3.6977 5.03124C3.94249 4.70312 4.20291 4.38541 4.49458 4.09895C4.78104 3.81249 5.09874 3.54687 5.40604 3.27083C6.03624 2.73958 6.66645 2.21354 7.35916 1.77083C8.04666 1.3177 8.77062 0.927076 9.55187 0.682286C10.3331 0.437494 11.1612 0.348953 11.9842 0.427077C12.8071 0.494787 13.6196 0.718743 14.4112 0.994786L14.9998 1.21874C15.1977 1.29687 15.3904 1.3802 15.5779 1.46874C15.9269 1.61979 16.2602 1.79687 16.5935 1.97395C15.979 1.70833 15.3487 1.47916 14.7081 1.27083C13.8904 1.02604 13.031 0.932286 12.1769 0.963536C11.8227 0.984369 11.4685 1.02083 11.1196 1.07812C10.3331 1.11979 9.55187 1.14583 8.81229 1.40104C7.23416 1.92708 5.78104 2.95833 4.66124 4.17187C4.10395 4.78125 3.64562 5.5052 3.20812 6.21354C3.15604 6.29687 3.10916 6.3802 3.06229 6.46354C2.80187 6.8177 2.55708 7.18229 2.33312 7.55729C2.3852 7.42708 2.43208 7.30208 2.48937 7.17708ZM16.9008 2.48958C17.406 2.72916 17.8956 2.99479 18.3748 3.28645C18.6248 3.5052 18.8696 3.73958 19.1092 3.97395C18.4842 3.55208 17.8071 3.20833 17.0987 2.92708C16.3279 2.60937 15.5154 2.38541 14.6925 2.22916C13.0415 1.92187 11.3227 1.90624 9.65604 2.24479C8.82791 2.42187 8.0102 2.67708 7.23937 3.05729C6.97374 3.18749 6.70812 3.32812 6.45291 3.48437C7.46333 2.74479 8.5727 2.14583 9.74979 1.7552C10.1456 1.61979 10.5467 1.52083 10.9529 1.43749C11.3592 1.36458 11.7706 1.31249 12.1821 1.29687C13.005 1.26041 13.8227 1.35416 14.604 1.59374C15.3852 1.84374 16.1612 2.13541 16.9008 2.48958ZM18.0102 3.79687C17.2915 3.3802 16.5258 3.04687 15.7185 2.82291C15.2498 2.6927 14.7706 2.59895 14.2862 2.54687C14.0987 2.51562 13.906 2.48958 13.7185 2.46874C11.5571 2.04166 9.20291 2.30208 6.99979 3.54687C6.78104 3.66666 6.56749 3.80208 6.35916 3.93749C6.29666 3.97395 6.22895 4.01041 6.16124 4.04687C5.7602 4.27604 5.37479 4.53124 5.00499 4.81249C5.0727 4.73958 5.14562 4.67187 5.21854 4.60416C5.52583 4.3177 5.85916 4.05729 6.20812 3.8177C6.55708 3.58333 6.92687 3.3802 7.30187 3.19791C8.06229 2.82812 8.86958 2.57291 9.68729 2.40104C11.3279 2.07291 13.0258 2.08854 14.656 2.39583C15.4685 2.55729 16.2654 2.78125 17.031 3.09374C17.7967 3.39583 18.531 3.78645 19.1977 4.26041C19.4529 4.4427 19.7029 4.63541 19.9373 4.84374C20.0102 4.92708 20.0883 5.01041 20.1612 5.09374C20.3956 5.37499 20.6248 5.66145 20.8435 5.95833C20.5987 5.6927 20.3435 5.4427 20.0779 5.20833C19.4581 4.66145 18.7237 4.21874 18.0102 3.79687ZM17.8852 3.89583C17.5258 3.69791 17.1821 3.48958 16.8175 3.31249C16.4477 3.13541 16.0675 2.98958 15.6769 2.86458C15.3696 2.77083 15.0571 2.6927 14.7394 2.6302C15.0675 2.68229 15.3956 2.74999 15.7133 2.84374C16.5154 3.0677 17.281 3.40625 17.9946 3.8177C18.6821 4.22916 19.3279 4.70833 19.9269 5.23958C19.9217 5.23437 19.9217 5.23437 19.9165 5.22916C19.2758 4.72916 18.5779 4.30729 17.8852 3.89583ZM18.8904 20.7552C18.7915 20.8698 18.6873 20.9844 18.5883 21.0885C18.5206 21.1615 18.4529 21.2292 18.3852 21.2917C18.2654 21.3802 18.1404 21.4635 18.0102 21.5312C17.8383 21.6354 17.6456 21.7187 17.4633 21.8125C17.0727 22 16.6717 22.1719 16.2654 22.3229C17.1925 21.9427 18.0831 21.4219 18.8904 20.7552ZM15.5571 3.02604C15.5779 3.03125 15.604 3.03645 15.6248 3.04166C15.9998 3.16145 16.3696 3.30208 16.729 3.47395C17.0571 3.67187 17.3852 3.89583 17.7029 4.15104C17.5883 4.08333 17.4737 4.02083 17.3592 3.96354C16.7915 3.59374 16.1925 3.28125 15.5571 3.02604ZM12.4321 21.7552C12.8175 21.7135 13.3279 21.6198 13.9112 21.4375C13.9842 21.4583 14.0571 21.4792 14.13 21.5L13.604 21.6042L12.9842 21.6875C12.8019 21.7187 12.6144 21.7396 12.4321 21.7552ZM6.77062 21.3281C7.16645 21.4844 7.57791 21.599 7.98937 21.7031C8.70291 21.8646 9.43208 21.9531 10.156 21.9844C10.2081 21.9948 10.2654 22.0104 10.3227 22.0208C10.6248 22.099 10.9321 22.1406 11.2446 22.1719C12.0675 22.2396 12.8904 22.125 13.6717 21.875C14.0415 21.8021 14.4112 21.7083 14.7706 21.5937C15.4269 21.625 16.0779 21.4479 16.6352 21.0729C16.8383 20.9323 17.0623 20.776 17.2862 20.5937C17.4477 20.5156 17.604 20.4375 17.7602 20.3542C17.9321 20.2604 18.104 20.1615 18.2706 20.0521C16.1144 21.9323 13.2967 22.7344 10.6456 22.5937C10.531 22.5729 10.4112 22.5573 10.3019 22.5365C9.99458 22.4896 9.70291 22.4115 9.40604 22.349C9.10916 22.2656 8.81229 22.1979 8.52583 22.099C8.23937 22.0104 7.95291 21.8958 7.67166 21.7865C7.39041 21.6667 7.10916 21.5469 6.84354 21.4115C6.81229 21.3958 6.78624 21.3802 6.75499 21.3646C6.71333 21.3333 6.67687 21.3021 6.6352 21.276C6.68208 21.2917 6.72374 21.3125 6.77062 21.3281ZM12.0154 22.0417C11.7654 22.0573 11.5102 22.0521 11.255 22.0312C11.2394 22.0312 11.2237 22.026 11.2081 22.026C11.479 22.0417 11.7446 22.0521 12.0154 22.0417ZM11.7446 21.8125C11.7133 21.8177 11.6769 21.8177 11.6456 21.8229C11.0519 21.8021 10.4581 21.7344 9.87479 21.6042C9.10395 21.4375 8.35916 21.1719 7.65083 20.8229C9.65083 21.6198 11.4581 21.724 11.7394 21.7708C11.8331 21.7865 11.9998 21.7865 12.2342 21.776C12.0727 21.7865 11.906 21.7969 11.7446 21.8125ZM7.34354 20.9427C7.77583 21.1667 8.21854 21.3594 8.67687 21.5156L8.76541 21.5469L8.98416 21.625L9.42687 21.7708C9.47375 21.7865 9.51541 21.7969 9.56229 21.8125C9.04145 21.7656 8.52583 21.6823 8.01541 21.5677C7.60916 21.4687 7.20812 21.349 6.81749 21.1979C6.62479 21.1198 6.43208 21.0365 6.24458 20.9479C6.11958 20.8385 5.99979 20.7292 5.8852 20.6146C5.43729 20.1719 5.03104 19.6771 4.68729 19.151C5.48416 19.875 6.3852 20.474 7.34354 20.9427ZM3.46854 5.93229C3.3852 6.03645 3.30187 6.14583 3.21854 6.24999C3.22375 6.24479 3.22895 6.23437 3.23416 6.22916C3.67166 5.52083 4.18208 4.86979 4.74458 4.26562C5.85916 3.05208 7.27062 2.14583 8.84354 1.62499C9.37999 1.44791 9.92687 1.30208 10.4842 1.21354C10.2081 1.27604 9.92687 1.35416 9.65604 1.44791C8.02583 1.99479 6.53104 2.92187 5.24458 4.06249C4.59874 4.6302 4.0102 5.26041 3.46854 5.93229ZM5.11958 4.91666C4.60395 5.39062 4.14041 5.92187 3.73937 6.48958C3.92166 6.16145 4.12999 5.84895 4.35395 5.55208C4.59874 5.32291 4.85395 5.11458 5.11958 4.91666ZM21.1977 14.974C21.1821 15.0469 21.1665 15.125 21.1508 15.1979C20.9998 15.7865 20.8123 16.3698 20.5727 16.9271C20.38 17.3542 20.1717 17.7708 19.9321 18.1719C19.5987 18.6667 19.229 19.1198 18.8279 19.526C18.4685 19.7969 18.0935 20.0365 17.7029 20.25C17.6977 20.2552 17.6925 20.2552 17.6925 20.2552C18.0935 19.9062 18.5102 19.4844 18.9165 18.9896C19.2654 18.6198 19.5883 18.224 19.8748 17.8021C20.4633 16.9427 20.906 15.9844 21.1977 14.974ZM21.3644 17.7292C21.6769 17.1458 21.9321 16.5417 22.1248 15.9323C21.8227 16.9219 21.4112 17.8802 20.8696 18.7604C20.4165 19.5104 19.8592 20.1927 19.2237 20.7865C19.505 20.4531 19.7654 20.099 20.0102 19.7344C20.1092 19.599 20.2081 19.4583 20.3071 19.3177C20.6925 18.8385 21.0519 18.3073 21.3644 17.7292ZM21.229 14.276C21.0831 14.9375 20.8696 15.5833 20.5935 16.1979C20.8696 15.5365 21.104 14.8125 21.281 14.0052C21.2654 14.0937 21.2498 14.1875 21.229 14.276ZM19.0362 3.70833C19.1612 3.79166 19.2862 3.88541 19.4112 3.97395C19.8279 4.35937 20.2185 4.76562 20.5831 5.20833C20.4842 5.10416 20.3852 4.99999 20.2758 4.90104C20.0154 4.65104 19.7394 4.42187 19.4425 4.20833C19.2029 3.96354 18.9581 3.72395 18.7029 3.48958C18.8175 3.56249 18.9269 3.63541 19.0362 3.70833ZM24.7498 11.3698C24.7237 11.2187 24.6873 11.0729 24.656 10.9271C24.604 10.7187 24.5467 10.5156 24.4842 10.3125C24.354 9.90625 24.2081 9.51041 24.0362 9.12499C23.6977 8.35416 23.2862 7.61458 22.8019 6.92708C21.8487 5.54687 20.6248 4.35937 19.2342 3.42187C19.0362 3.28125 18.8279 3.15625 18.6248 3.02604C18.0467 2.58854 17.4373 2.1927 16.8071 1.84374C16.4321 1.64062 16.0519 1.4427 15.6612 1.27083C15.4685 1.18229 15.2706 1.09895 15.0727 1.02083L14.479 0.796869C13.6717 0.51041 12.8435 0.291661 11.9946 0.218744C11.1456 0.14062 10.2915 0.22916 9.48937 0.489577C8.68208 0.744785 7.94249 1.14583 7.24979 1.60416C6.54666 2.05208 5.91124 2.58854 5.28104 3.12499C4.97374 3.40104 4.65604 3.66666 4.35916 3.96354C4.06749 4.26041 3.79666 4.58333 3.54666 4.91666C3.05187 5.58854 2.64562 6.32812 2.3227 7.09895C2.14041 7.53645 1.98416 7.97916 1.84874 8.43229C1.12999 9.84374 0.656037 11.3906 0.567494 12.9687C0.541453 13.3958 0.551868 13.8229 0.583119 14.2448C0.629994 14.6719 0.692494 15.0937 0.796661 15.5052C0.812286 15.5677 0.827912 15.6302 0.843536 15.6875C0.656037 15.2812 0.603952 15.6406 0.895619 16.7656C0.994578 17.1667 1.1352 17.5625 1.29145 17.9479C1.45812 18.3281 1.64041 18.7031 1.85916 19.0521C2.07791 19.4062 2.31749 19.7448 2.58833 20.0573C2.71854 20.2187 2.86437 20.3594 3.00499 20.5104C3.07791 20.5833 3.15604 20.651 3.22895 20.724C3.30708 20.7917 3.37999 20.8646 3.45812 20.9271C4.08833 21.4583 4.78624 21.8958 5.52583 22.2396C6.27062 22.5729 7.05708 22.8229 7.84874 22.9948C8.75499 23.2031 9.67687 23.3594 10.6092 23.4479C10.8071 23.4948 10.9998 23.5417 11.2029 23.5729L11.4477 23.6146C10.3279 23.5729 10.4581 23.8125 11.9529 23.9375C12.38 23.974 12.8019 23.9687 13.229 23.9479C13.6508 23.9167 14.0727 23.8646 14.4842 23.7708C14.6925 23.724 14.9008 23.6719 15.104 23.6094C16.7498 23.3073 18.3071 22.5104 19.5779 21.4115C20.88 20.2812 21.9112 18.8698 22.7081 17.3542C22.9008 16.974 23.0883 16.5885 23.2498 16.1927C23.3331 15.9948 23.4112 15.7917 23.4842 15.5937L23.6925 14.9896C23.9529 14.1771 24.156 13.3385 24.2081 12.4844C24.2602 11.6354 24.1456 10.7708 23.8696 9.97395C23.5935 9.17187 23.1769 8.43749 22.7029 7.74999C22.4112 7.3177 22.0935 6.91145 21.755 6.51562C21.4946 6.05729 21.1977 5.61458 20.8696 5.20312C21.4737 5.79166 22.0258 6.4375 22.5102 7.13541C22.979 7.80729 23.3748 8.52604 23.7029 9.28124C23.8696 9.65624 24.0102 10.0417 24.13 10.4323C24.1925 10.625 24.2498 10.8229 24.2967 11.0208C24.3331 11.1615 24.3644 11.3073 24.3904 11.4479C24.406 11.5417 24.4946 11.6042 24.5935 11.5885C24.6977 11.5729 24.7706 11.474 24.7498 11.3698Z" fill="#C2B396"/>
</g>
<path d="M5.21341 7.04688C5.0207 7.19271 4.86966 7.38542 4.78633 7.60417C4.69778 7.82813 4.69778 8.07292 4.78112 8.29167C4.86445 8.51042 4.99987 8.70834 5.16653 8.87501L5.29153 9.00521L5.56237 9.23438L5.70299 9.33855C6.09883 9.60938 6.54153 9.78646 6.99987 9.92709C7.4582 10.0677 7.92695 10.1615 8.39049 10.3385C8.50507 10.3802 8.61966 10.4427 8.72903 10.5104C8.83841 10.5833 8.93737 10.6823 9.01028 10.7969C9.07799 10.9167 9.11445 11.0573 9.11966 11.1875C9.12487 11.2552 9.11445 11.3229 9.10924 11.3854C9.09883 11.4479 9.08841 11.5104 9.07278 11.5729C9.04153 11.6979 8.99987 11.8177 8.95299 11.9323L8.80195 12.2656C8.75508 12.375 8.7082 12.4844 8.66653 12.5938C8.61966 12.7031 8.5832 12.8177 8.54153 12.9323C8.23945 13.8385 8.07799 14.7917 8.00508 15.7448C7.93737 16.6979 7.98424 17.6667 8.19778 18.599C8.30716 19.0573 8.46341 19.5156 8.7082 19.9167C8.83841 20.1146 8.97903 20.3021 9.15091 20.4583C9.19258 20.5 9.24466 20.5313 9.28633 20.5677C9.3332 20.6042 9.38007 20.6406 9.43216 20.6667L9.5832 20.75L9.74987 20.8125C9.96341 20.8854 10.203 20.9219 10.4374 20.9063C10.6717 20.8958 10.9061 20.849 11.1353 20.7917C11.5936 20.6667 12.0363 20.4531 12.3801 20.1198C12.7238 19.7969 12.9738 19.3698 13.1145 18.9167C13.2551 18.4583 13.3124 17.974 13.2759 17.5L13.2707 17.474L13.2915 17.4583C13.9686 17.0052 14.6405 16.5521 15.3124 16.0938L17.3332 14.7188L19.3488 13.349L21.3697 11.9792L21.3749 11.974C21.5572 11.8698 21.7342 11.75 21.8957 11.6146C21.9738 11.5521 22.0467 11.4792 22.1145 11.4063C22.1769 11.3333 22.229 11.25 22.2395 11.1875C22.2759 11.0833 22.078 10.9844 21.8801 10.9531C21.6822 10.9115 21.4686 10.901 21.2603 10.8906C21.0415 10.8854 20.8332 10.901 20.6249 10.9167C20.5207 10.9167 20.4165 10.9427 20.3124 10.9583C20.2082 10.9792 20.0988 10.9844 19.9999 11.0156C19.7967 11.0677 19.5884 11.1146 19.3957 11.1979C19.1926 11.2604 18.9999 11.3542 18.802 11.4375C18.0311 11.7969 17.3228 12.2917 16.5936 12.7604C16.2238 12.9948 15.8436 13.224 15.427 13.3906C15.3228 13.4219 15.2186 13.474 15.1092 13.5C14.9999 13.5208 14.8905 13.5521 14.7759 13.5729C14.5624 13.6042 14.3488 13.6354 14.1301 13.6563C13.2603 13.7448 12.3749 13.724 11.5103 13.5938C11.2967 13.5573 11.078 13.5156 10.8645 13.4688C10.8124 13.4583 10.7603 13.4479 10.7134 13.4427C10.6613 13.4323 10.6145 13.4219 10.5624 13.4219C10.4634 13.4167 10.3645 13.4271 10.2655 13.4427C9.86445 13.5208 9.52591 13.8073 9.28112 14.1406C8.79153 14.8281 8.58841 15.7135 8.66133 16.5625C8.69257 16.9896 8.80195 17.4115 8.99466 17.7969C9.18216 18.1823 9.46341 18.526 9.79674 18.7969L9.78112 18.8177C9.43737 18.5521 9.14049 18.2135 8.93216 17.8281C8.72903 17.4427 8.59883 17.0156 8.55195 16.5729C8.49987 16.1354 8.53633 15.6927 8.62487 15.2604C8.72383 14.8281 8.89049 14.4115 9.1457 14.0417C9.27591 13.8594 9.42695 13.6927 9.60924 13.5521C9.78633 13.4115 9.99466 13.3021 10.2238 13.2552C10.3384 13.2344 10.4582 13.2188 10.5728 13.224C10.6301 13.224 10.6874 13.2396 10.7447 13.2448C10.8019 13.25 10.8592 13.2604 10.9113 13.2708C11.1197 13.3177 11.3332 13.3542 11.5415 13.3854C12.3905 13.5052 13.2551 13.5104 14.104 13.4115C14.3124 13.3906 14.5259 13.3594 14.7395 13.3229C14.8436 13.3073 14.9426 13.276 15.0415 13.2552C15.1405 13.2344 15.2395 13.1875 15.3332 13.1563C15.7238 12.9948 16.0936 12.776 16.453 12.5469C17.1769 12.0781 17.8957 11.5729 18.6926 11.1979C19.0936 11.0104 19.5103 10.8594 19.9426 10.7604C20.0519 10.7344 20.1613 10.724 20.2707 10.7031C20.3801 10.6875 20.4895 10.6615 20.604 10.6615C20.8228 10.651 21.0467 10.6354 21.2655 10.6406C21.4842 10.651 21.7082 10.6615 21.9322 10.7083C22.0415 10.7344 22.1561 10.7656 22.2759 10.8333C22.302 10.849 22.328 10.8698 22.3592 10.8958C22.3853 10.9167 22.4061 10.9531 22.4322 10.9844C22.4738 11.0521 22.4895 11.1458 22.4738 11.2188C22.4478 11.375 22.3697 11.474 22.2915 11.5625C22.2134 11.651 22.1301 11.7292 22.0415 11.7969C21.8645 11.9427 21.6822 12.0625 21.4895 12.1771L21.4947 12.1719L19.4582 13.5156L17.4165 14.8542L15.3801 16.1875C14.6978 16.6354 14.0155 17.0781 13.3384 17.5313L13.3592 17.4896C13.3957 17.9792 13.3332 18.4688 13.1874 18.9375C13.0415 19.4063 12.7915 19.8438 12.4374 20.1823C12.0832 20.526 11.6301 20.7552 11.1613 20.8854C10.9269 20.9427 10.6874 21 10.4426 21.0156C10.1978 21.0365 9.94778 21.0052 9.7082 20.9323L9.53112 20.8698L9.36445 20.7813C9.30716 20.7552 9.26028 20.7188 9.2082 20.6823C9.15612 20.6406 9.10403 20.6094 9.06237 20.5677L8.92174 20.4375C8.88008 20.3958 8.83841 20.3438 8.79674 20.3021C8.71341 20.2083 8.65091 20.1042 8.57799 20C8.31237 19.5833 8.13528 19.1146 8.01549 18.6406C7.7707 17.6927 7.72903 16.7031 7.78633 15.7292C7.84883 14.7552 8.03112 13.7917 8.34883 12.8646C8.38528 12.75 8.42695 12.6354 8.47903 12.5208C8.5207 12.4063 8.56757 12.2917 8.61966 12.1823L8.7707 11.8542C8.81237 11.75 8.85403 11.6354 8.88528 11.526C8.8957 11.474 8.90612 11.4167 8.91653 11.3594C8.92174 11.3073 8.93216 11.25 8.92695 11.1979C8.92695 11.0885 8.8957 10.9844 8.84362 10.8958C8.73945 10.7135 8.53633 10.5938 8.32278 10.5052C7.89049 10.3281 7.41133 10.224 6.95299 10.0729C6.48945 9.92188 6.03633 9.72917 5.63528 9.43751L5.48945 9.32813L5.21862 9.08334L5.09362 8.94271C4.92174 8.76563 4.79153 8.55209 4.7082 8.31771C4.63008 8.08334 4.63528 7.81251 4.73424 7.58334C4.8332 7.35417 4.99987 7.16667 5.19778 7.02605L5.21341 7.04688Z" fill="#E1D6C4"/>
<mask id="mask1_122_2637" style="mask-type:luminance" maskUnits="userSpaceOnUse" x="8" y="10" width="18" height="14">
<path d="M8 10.6667H25.0052V24H8V10.6667Z" fill="white"/>
</mask>
<g mask="url(#mask1_122_2637)">
<path d="M19.4322 21.2396C18.651 21.9063 17.7656 22.4635 16.8229 22.8542C16.8229 22.8542 16.8229 22.849 16.8281 22.849C17.0208 22.7344 17.2083 22.6094 17.3958 22.4792C17.4479 22.4479 17.5051 22.4167 17.5624 22.3854C18.2968 21.9479 18.9687 21.4167 19.5989 20.849C20.2291 20.2708 20.8229 19.6563 21.3645 18.9948C21.6354 18.6667 21.9062 18.3229 22.0885 17.9375C22.1718 17.7708 22.2916 17.6094 22.4166 17.4375C21.6406 18.8646 20.6562 20.1823 19.4322 21.2396ZM18.0104 21.5313C17.8385 21.6354 17.6458 21.7188 17.4635 21.8125C17.0729 22 16.6718 22.1719 16.2656 22.3229C17.1926 21.9427 18.0833 21.4219 18.8906 20.7552C18.7916 20.8698 18.6874 20.9844 18.5885 21.0885C18.5208 21.1615 18.4531 21.2292 18.3854 21.2917C18.2656 21.3802 18.1406 21.4635 18.0104 21.5313ZM17.7031 20.25C17.6979 20.2552 17.6926 20.2552 17.6926 20.2552C18.0937 19.9063 18.5104 19.4844 18.9166 18.9896C19.2656 18.6198 19.5885 18.224 19.8749 17.8021C20.4635 16.9427 20.9062 15.9844 21.1979 14.974C21.1822 15.0469 21.1666 15.125 21.151 15.1979C20.9999 15.7865 20.8124 16.3698 20.5729 16.9271C20.3801 17.3542 20.1718 17.7708 19.9322 18.1719C19.5989 18.6667 19.2291 19.1198 18.8281 19.526C18.4687 19.7969 18.0937 20.0365 17.7031 20.25ZM21.2812 14.0052C21.2656 14.0938 21.2499 14.1875 21.2291 14.276C21.0833 14.9375 20.8697 15.5833 20.5937 16.1979C20.8697 15.5365 21.1041 14.8125 21.2812 14.0052ZM22.1249 15.9323C21.8229 16.9219 21.4114 17.8802 20.8697 18.7604C20.4166 19.5104 19.8593 20.1927 19.2239 20.7865C19.5051 20.4531 19.7656 20.099 20.0104 19.7344C20.1093 19.599 20.2083 19.4583 20.3072 19.3177C20.6926 18.8385 21.052 18.3073 21.3645 17.7292C21.677 17.1458 21.9322 16.5417 22.1249 15.9323ZM22.427 14.7656C22.427 14.7604 22.427 14.7604 22.427 14.7604C22.4322 14.75 22.4374 14.7344 22.4426 14.7188C22.4322 14.7708 22.4166 14.8229 22.4062 14.8698C22.4114 14.8333 22.4218 14.7969 22.427 14.7656ZM23.9843 12.6823C23.9114 13.4427 23.7291 14.1927 23.4895 14.9271L23.2812 15.526C23.2083 15.724 23.1354 15.9167 23.052 16.1146C23.0468 16.125 23.0416 16.1354 23.0364 16.1458C23.2239 15.5417 23.3697 14.9323 23.4635 14.3177C23.5312 13.8958 23.5676 13.4792 23.5885 13.0521C23.5937 12.8333 23.5989 12.6094 23.5989 12.3906C23.4999 12.3281 23.4062 12.2708 23.3072 12.2135C23.3124 12.4896 23.3124 12.7656 23.302 13.0417C23.276 13.4583 23.2447 13.8802 23.1718 14.2969C23.0468 15.125 22.8229 15.9479 22.5312 16.7396C22.3854 17.1354 22.1249 17.4063 21.9374 17.7813C21.7551 18.1667 21.4895 18.4948 21.2239 18.8281C21.0572 19.026 20.8854 19.224 20.7083 19.4167C20.8333 19.2396 20.9479 19.0625 21.0624 18.875C21.9374 17.4323 22.4791 15.8125 22.7656 14.1615C22.8333 13.75 22.8958 13.3333 22.927 12.9167C22.9426 12.7083 22.9583 12.5 22.9635 12.2917L22.9687 12.0521C22.8854 12.0156 22.802 11.9792 22.7187 11.9479C22.7135 12.0521 22.7031 12.151 22.6926 12.25L22.6249 12.7813C22.6301 12.4896 22.6197 12.1979 22.5937 11.9063C20.8801 11.3229 18.8645 11.6875 18.177 12.0781C16.8489 12.8281 15.1874 14.3646 14.2291 14.0365C13.276 13.7031 8.83327 14.3646 8.67182 17.0781C8.50515 19.7813 11.4531 19.2813 13.0676 20.1615C13.5781 20.4323 14.151 20.9896 14.6874 21.6198C14.7135 21.6094 14.7447 21.6042 14.7708 21.5938C15.427 21.625 16.0781 21.4479 16.6354 21.0729C16.8385 20.9323 17.0624 20.776 17.2864 20.5938C17.4479 20.5156 17.6041 20.4375 17.7604 20.3542C17.9322 20.2604 18.1041 20.1615 18.2708 20.0521C17.2864 20.9115 16.1614 21.5469 14.9791 21.9688C15.1666 22.2031 15.3541 22.4427 15.526 22.6771C16.1979 22.4583 16.8593 22.1979 17.4999 21.8906C17.6874 21.7969 17.8697 21.7083 18.0468 21.6042C17.901 21.7396 17.7499 21.8594 17.5989 21.9844C17.5156 22.026 17.4374 22.0677 17.3593 22.1146C16.802 22.4063 16.2239 22.6354 15.6249 22.8125C15.7708 23.0104 15.9062 23.2031 16.0312 23.3854C17.3333 22.9948 18.5468 22.3021 19.5781 21.4115C20.8801 20.2813 21.9114 18.8698 22.7083 17.3542C22.901 16.974 23.0885 16.5885 23.2499 16.1927C23.3333 15.9948 23.4114 15.7917 23.4843 15.5938L23.6926 14.9896C23.9166 14.2969 24.0937 13.5833 24.1718 12.8594C24.1145 12.7969 24.0468 12.7396 23.9843 12.6823Z" fill="#CEC6B3"/>
</g>
<path d="M18.9009 19.0104C19.729 16.6927 20.4686 14.3021 20.2499 13.7031C19.7915 12.4531 18.1769 12.8698 17.5936 13.7031C17.0103 14.5365 16.5155 15.2813 15.2082 15.1406C13.9009 14.9948 12.1144 16.6615 14.4582 17.8906C15.5571 18.4635 16.1874 19.8385 16.5415 21.1354C16.5728 21.1146 16.604 21.0938 16.6353 21.0729C16.8384 20.9323 17.0624 20.776 17.2863 20.5938C17.4478 20.5156 17.604 20.4375 17.7603 20.3542C17.9321 20.2604 18.104 20.1615 18.2707 20.0521C17.7394 20.5156 17.1717 20.9115 16.5728 21.2448C16.6509 21.5417 16.7134 21.8281 16.7655 22.1042C17.1926 21.901 17.6092 21.6667 18.0103 21.4063C18.2238 20.8594 18.4478 20.2552 18.6717 19.6406C18.3644 19.8646 18.0363 20.0677 17.703 20.25C17.6978 20.2552 17.6926 20.2552 17.6926 20.2552C18.0884 19.9115 18.4999 19.5 18.9009 19.0104Z" fill="#E1D6C4"/>
<path d="M17.5627 22.3854C17.5939 22.3698 17.62 22.349 17.6512 22.3333C17.7241 22.1511 17.797 21.9583 17.8752 21.7552C17.7866 21.8333 17.6929 21.9063 17.5991 21.9844C17.5158 22.0261 17.4377 22.0677 17.3595 22.1146C17.1825 22.2083 17.0002 22.2917 16.8179 22.375C16.8439 22.5261 16.8647 22.6771 16.8856 22.8125C17.0575 22.7083 17.2293 22.599 17.396 22.4792C17.4481 22.4479 17.5054 22.4167 17.5627 22.3854Z" fill="#E1D6C4"/>
<path d="M17.9012 21.6875C17.9168 21.6458 17.9325 21.6094 17.9481 21.5677C17.7918 21.6563 17.6304 21.7292 17.4637 21.8125C17.2345 21.9219 17.0054 22.0261 16.771 22.125C16.7762 22.1511 16.7814 22.1823 16.7866 22.2083C17.0262 22.1094 17.2658 22 17.5002 21.8906C17.6356 21.8229 17.771 21.7552 17.9012 21.6875Z" fill="#E1D6C4"/>
<path d="M17.5884 22.4948C17.3592 22.6146 17.1248 22.724 16.8853 22.8229C16.8957 22.9115 16.9061 22.9896 16.9165 23.0677C17.0988 22.9896 17.2811 22.9063 17.4582 22.8177C17.4998 22.7188 17.5467 22.6094 17.5884 22.4948Z" fill="#E1D6C4"/>
<path d="M20.9946 5.93749C21.1561 6.11458 21.3175 6.29687 21.4738 6.47916C21.6144 6.72395 21.7498 6.97395 21.8696 7.23437C21.6925 6.97395 21.505 6.72395 21.3071 6.48437C21.0728 6.1302 20.8228 5.79166 20.5571 5.46354C20.703 5.61979 20.8488 5.78125 20.9946 5.93749ZM20.078 5.20833C19.4582 4.66145 18.7238 4.21874 18.0103 3.79687C17.2915 3.3802 16.5259 3.04687 15.7186 2.82291C15.2498 2.6927 14.7707 2.59895 14.2863 2.54687C14.0988 2.51562 13.9061 2.48958 13.7186 2.46874C11.5571 2.04166 9.20296 2.30208 6.99984 3.54687C6.78109 3.66666 6.56755 3.80208 6.35921 3.93749C6.29671 3.97395 6.229 4.01041 6.1613 4.04687C5.76025 4.27604 5.37484 4.53124 5.00505 4.81249C5.07275 4.73958 5.14567 4.67187 5.21859 4.60416C5.52588 4.3177 5.85921 4.05729 6.20817 3.8177C6.55713 3.58333 6.92692 3.3802 7.30192 3.19791C8.06234 2.82812 8.86963 2.57291 9.68734 2.40104C11.328 2.07291 13.0259 2.08854 14.6561 2.39583C15.4686 2.55729 16.2655 2.78125 17.0311 3.09374C17.7967 3.39583 18.5311 3.78645 19.1978 4.26041C19.453 4.4427 19.703 4.63541 19.9373 4.84374C20.0103 4.92708 20.0884 5.01041 20.1613 5.09374C20.3957 5.37499 20.6248 5.66145 20.8436 5.95833C20.5988 5.6927 20.3436 5.4427 20.078 5.20833ZM19.9165 5.22916C19.2759 4.72916 18.578 4.30729 17.8853 3.89583C17.5259 3.69791 17.1821 3.48958 16.8175 3.31249C16.4478 3.13541 16.0675 2.98958 15.6769 2.86458C15.3696 2.77083 15.0571 2.6927 14.7394 2.6302C15.0675 2.68229 15.3957 2.74999 15.7134 2.84374C16.5155 3.0677 17.2811 3.40625 17.9946 3.8177C18.6821 4.22916 19.328 4.70833 19.9269 5.23958C19.9217 5.23437 19.9217 5.23437 19.9165 5.22916ZM17.3592 3.96354C16.7915 3.59374 16.1925 3.28125 15.5571 3.02604C15.578 3.03125 15.604 3.03645 15.6248 3.04166C15.9998 3.16145 16.3696 3.30208 16.729 3.47395C17.0571 3.67187 17.3853 3.89583 17.703 4.15104C17.5884 4.08333 17.4738 4.02083 17.3592 3.96354ZM3.73942 6.48958C3.92171 6.16145 4.13005 5.84895 4.354 5.55208C4.5988 5.32291 4.854 5.11458 5.11963 4.91666C4.604 5.39062 4.14046 5.92187 3.73942 6.48958ZM3.46859 5.93229C3.38525 6.03645 3.30192 6.14583 3.21859 6.24999C3.2238 6.24479 3.229 6.23437 3.23421 6.22916C3.67171 5.52083 4.18213 4.86979 4.74463 4.26562C5.85921 3.05208 7.27067 2.14583 8.84359 1.62499C9.38005 1.44791 9.92692 1.30208 10.4842 1.21354C10.2082 1.27604 9.92692 1.35416 9.65609 1.44791C8.02588 1.99479 6.53109 2.92187 5.24463 4.06249C4.5988 4.6302 4.01025 5.26041 3.46859 5.93229ZM12.1821 1.29687C13.005 1.26041 13.8228 1.35416 14.604 1.59374C15.3853 1.84374 16.1613 2.13541 16.9009 2.48958C17.4061 2.72916 17.8957 2.99479 18.3748 3.28645C18.6248 3.5052 18.8696 3.73958 19.1092 3.97395C18.4842 3.55208 17.8071 3.20833 17.0988 2.92708C16.328 2.60937 15.5155 2.38541 14.6925 2.22916C13.0415 1.92187 11.3228 1.90624 9.65609 2.24479C8.82796 2.42187 8.01025 2.67708 7.23942 3.05729C6.9738 3.18749 6.70817 3.32812 6.45296 3.48437C7.46338 2.74479 8.57275 2.14583 9.74984 1.7552C10.1457 1.61979 10.5467 1.52083 10.953 1.43749C11.3592 1.36458 11.7707 1.31249 12.1821 1.29687ZM19.0363 3.70833C19.1613 3.79166 19.2863 3.88541 19.4113 3.97395C19.828 4.35937 20.2186 4.76562 20.5832 5.20833C20.4842 5.10416 20.3853 4.99999 20.2759 4.90104C20.0155 4.65104 19.7394 4.42187 19.4425 4.20833C19.203 3.96354 18.9582 3.72395 18.703 3.48958C18.8175 3.56249 18.9269 3.63541 19.0363 3.70833ZM19.2342 3.42187C19.0363 3.28125 18.828 3.15625 18.6248 3.02604C18.0467 2.58854 17.4373 2.1927 16.8071 1.84374C16.4321 1.64062 16.0519 1.4427 15.6613 1.27083C15.4686 1.18229 15.2707 1.09895 15.0728 1.02083L14.479 0.796869C13.6717 0.51041 12.8436 0.291661 11.9946 0.218744C11.1457 0.14062 10.2915 0.22916 9.48942 0.489577C8.68213 0.744785 7.94255 1.14583 7.24984 1.60416C6.54671 2.05208 5.9113 2.58854 5.28109 3.12499C4.9738 3.40104 4.65609 3.66666 4.35921 3.96354C4.06755 4.26041 3.79671 4.58333 3.54671 4.91666C3.05192 5.58854 2.64567 6.32812 2.32275 7.09895C2.38004 7.1302 2.43213 7.15624 2.48421 7.18229C2.48421 7.18229 2.48421 7.17708 2.48942 7.17708C2.81234 6.41666 3.21338 5.6927 3.69775 5.03124C3.94254 4.70312 4.20296 4.38541 4.49463 4.09895C4.78109 3.81249 5.0988 3.54687 5.40609 3.27083C6.0363 2.73958 6.6665 2.21354 7.35921 1.77083C8.04671 1.3177 8.77067 0.927076 9.55192 0.682286C10.3332 0.437494 11.1613 0.348953 11.9842 0.427077C12.8071 0.494787 13.6196 0.718743 14.4113 0.994786L14.9998 1.21874C15.1978 1.29687 15.3905 1.3802 15.578 1.46874C15.9269 1.61979 16.2603 1.79687 16.5936 1.97395C15.979 1.70833 15.3488 1.47916 14.7082 1.27083C13.8905 1.02604 13.0311 0.932286 12.1769 0.963536C11.8228 0.984369 11.4686 1.02083 11.1196 1.07812C10.3332 1.11979 9.55192 1.14583 8.81234 1.40104C7.23421 1.92708 5.78109 2.95833 4.6613 4.17187C4.104 4.78125 3.64567 5.5052 3.20817 6.21354C3.15609 6.29687 3.10921 6.3802 3.06234 6.46354C2.88005 6.70833 2.70817 6.95833 2.54671 7.21354C2.65088 7.27083 2.75505 7.32291 2.854 7.37499C3.02588 7.08854 3.21859 6.8177 3.42171 6.55208C3.5363 6.40625 3.6613 6.26562 3.7863 6.12499C3.70296 6.26041 3.62484 6.39062 3.55192 6.53124C3.38525 6.83854 3.24463 7.15625 3.11963 7.47916C3.11442 7.48958 3.10921 7.49479 3.104 7.5052C5.38005 8.70312 6.04671 9.05729 9.08317 8.49479C12.4478 7.86979 15.4373 7.86979 17.5519 7.78645C18.3384 7.7552 19.7967 7.74479 21.2707 7.56249C20.7915 6.71874 20.1873 5.93229 19.4686 5.23958C19.2915 5.0677 19.1092 4.91145 18.9321 4.76562C19.229 4.95833 19.5207 5.16145 19.7967 5.38541C20.4321 5.87499 21.0207 6.42708 21.4998 7.0677C21.604 7.20312 21.6978 7.34374 21.7863 7.48437C21.9269 7.46354 22.0675 7.4427 22.2082 7.41666C22.203 7.40104 22.1925 7.38541 22.1873 7.36458C22.1978 7.3802 22.2082 7.39583 22.2238 7.41145C22.2915 7.40104 22.3644 7.38541 22.4373 7.36979C22.2186 7.07812 21.9946 6.79687 21.755 6.51562C21.4946 6.05729 21.1978 5.61458 20.8696 5.20312C21.4738 5.79166 22.0259 6.4375 22.5103 7.13541C22.5519 7.19791 22.5988 7.26041 22.6405 7.32812C22.7655 7.29687 22.8905 7.27083 23.0155 7.23437C22.9425 7.1302 22.8748 7.02604 22.8019 6.92708C21.8488 5.54687 20.6248 4.35937 19.2342 3.42187Z" fill="#CEC6B3"/>
<path d="M19.349 5.83855C18.8177 4.8073 13.026 2.03647 10.2552 3.12501C7.48438 4.21355 4.875 5.83855 4.875 5.83855C4.875 5.83855 7.29687 7.2448 11.0365 6.1823C14.7708 5.1198 19.875 6.8698 19.349 5.83855Z" fill="#E1D6C4"/>
<path d="M4.03133 10.2344C4.03133 10.2344 2.22404 13.8281 3.47925 15.0469C4.73446 16.2656 5.59904 18.1094 6.43238 17.2969C7.27092 16.4844 7.74488 13.2969 7.0105 12.3906C6.27613 11.4844 5.72404 9.19272 4.03133 10.2344Z" fill="#CEC6B3"/>
<path d="M4.75542 11.6562C4.50542 11.5885 4.27625 11.8021 4.31792 12.0573C4.42208 12.7552 4.64604 14.0469 4.87521 14.2969C5.1825 14.6406 5.40125 15.5781 5.87 15.1094C6.33354 14.6406 7.29708 14.375 6.33354 12.9115C5.77625 12.0677 5.16687 11.7604 4.75542 11.6562Z" fill="#E1D6C4"/>
</svg>
