<svg width="75" height="69" viewBox="0 0 75 69" fill="none" xmlns="http://www.w3.org/2000/svg">
<path d="M55.0727 51.1302C45.531 60.3229 30.3227 60.0156 21.1612 50.4427C19.9685 49.1979 19.2706 47.9583 18.9217 46.7552C19.6873 47.9115 20.5675 49.0208 21.5571 50.0573C30.505 59.4115 45.3696 59.7135 54.6873 50.7292C64.005 41.75 64.3071 26.8281 55.3592 17.4792C49.8279 11.6979 42.0415 9.375 34.6977 10.5625C33.8852 10.6198 33.0988 10.724 32.3435 10.8698C34.2185 10.0781 36.2915 9.52083 38.5154 9.38542C44.38 9.02083 50.1821 11.6146 55.7602 17.0937C60.1717 21.4271 62.5831 27.3021 62.5571 33.6302C62.5258 40.1979 59.7967 46.5781 55.0727 51.1302ZM18.656 45.1667C20.6717 49.5 24.6665 53.75 32.3383 56C40.1196 58.2813 46.9373 55.9479 51.8748 51.3854C54.1404 49.8385 56.1092 47.8646 57.6248 45.5833C59.229 43.1719 60.3071 40.4271 60.7967 37.5781C61.2863 34.7292 61.156 31.7917 60.4685 28.9948C60.0727 27.4219 59.4894 25.901 58.755 24.4531C56.7706 19.2917 52.5831 14.7969 45.5675 12.2656C42.6456 11.2135 39.9737 10.6823 37.5362 10.5417C43.9269 10.2917 50.3956 12.6771 55.1665 17.6615C64.0154 26.9063 63.7185 41.6563 54.505 50.5365C45.2915 59.4219 30.5987 59.1198 21.7498 49.875C20.5935 48.6615 19.5883 47.3542 18.7446 45.9792C18.6977 45.7083 18.6717 45.4323 18.656 45.1667ZM18.4946 43.3594C18.2342 42.6406 18.0258 41.9271 17.8592 41.2292C18.0779 41.7865 18.3279 42.3333 18.5935 42.8698C18.5571 43.0313 18.5206 43.1927 18.4946 43.3594ZM22.4112 16.9948C23.9894 15.474 25.7237 14.2292 27.5623 13.2448C24.3019 15.5469 22.1456 18.099 21.4946 18.9167C21.4737 18.9479 21.4581 18.9687 21.4529 18.974C20.1352 20.3177 19.4894 21.5208 19.2706 22.6823C17.9998 24.8385 17.1092 27.224 16.6873 29.6875C16.2133 32.2813 16.255 34.9583 16.7706 37.5417C16.906 39.6354 17.3383 42.0781 18.3696 44.526C18.3644 44.8125 18.3696 45.099 18.3904 45.3854C13.1925 36.3438 14.5779 24.5469 22.4112 16.9948ZM18.7915 43.2656C19.2967 44.2344 19.8696 45.1667 20.5154 46.0469C22.2081 48.3854 24.38 50.375 26.8383 51.8958C29.2915 53.4271 32.0519 54.4479 34.8956 54.9688C37.7394 55.4688 40.6769 55.474 43.5154 54.901C45.2862 54.5521 47.0154 53.9844 48.6508 53.224C44.2029 56.125 38.656 57.2969 32.4894 55.4896C24.3956 53.1198 20.4998 48.4583 18.6925 43.8906C18.7185 43.6823 18.7498 43.474 18.7915 43.2656ZM17.3331 33.9271C17.5154 31.7396 17.9842 29.5885 18.6612 27.5885C17.2862 32.0417 17.4269 36.8698 19.1092 41.25C18.9477 41.6563 18.8019 42.0677 18.6873 42.4896C18.2654 41.6615 17.9008 40.8021 17.5883 39.9167C17.1769 37.5521 17.2081 35.4271 17.3331 33.9271ZM16.729 36.6146C16.3383 34.3333 16.3487 31.9844 16.7394 29.6979C17.1665 27.3437 18.0102 25.0677 19.2185 23.0104C19.1508 23.5677 19.1769 24.1146 19.2758 24.6667C17.979 27.4115 17.0779 30.6094 16.8019 33.8854C16.7394 34.651 16.7029 35.5781 16.729 36.6146ZM59.2602 25.9219C59.6821 26.9323 60.0258 27.974 60.281 29.0417C60.9685 31.8125 61.0258 34.7292 60.5102 37.526C59.9946 40.3281 58.8904 43.0156 57.2863 45.3542C56.3956 46.651 55.354 47.8438 54.1977 48.9115C56.2758 46.3646 57.88 43.3906 58.8956 40.2552C60.3904 35.6458 60.6508 30.5677 59.2602 25.9219ZM58.3904 40.0885C57.031 44.2917 54.5935 48.2031 51.354 51.1354C51.3123 51.1667 51.2706 51.1979 51.229 51.224C48.854 52.7604 46.1821 53.8229 43.4112 54.3594C40.6404 54.8958 37.7706 54.9219 34.9894 54.4271C32.2081 53.9323 29.5258 52.9167 27.0987 51.4635C24.6717 50.0104 22.5258 48.0885 20.7967 45.8385C20.0727 44.901 19.4373 43.901 18.88 42.8542C18.979 42.4323 19.1092 42.0208 19.255 41.6146C20.2185 43.9896 21.63 46.224 23.505 48.1823C31.4373 56.474 44.5623 56.7396 52.8227 48.776C61.0779 40.8177 61.3435 27.6406 53.4112 19.349C46.2237 11.8385 32.505 11.0417 25.9842 16.7708C23.8592 18.6354 21.104 20.3281 19.4894 24.224C19.4217 23.599 19.4581 22.974 19.6352 22.3333C19.7446 22.1615 19.854 21.9896 19.9685 21.8177C21.5883 19.4687 23.6977 17.4687 26.0935 15.9531C28.4946 14.4427 31.1665 13.375 33.9477 12.8437C35.3383 12.5833 36.7498 12.4375 38.1612 12.4219C39.5727 12.4115 40.9894 12.526 42.3852 12.7708C45.1717 13.25 47.88 14.2344 50.3227 15.6927C51.5362 16.4219 52.6925 17.2656 53.755 18.2135C54.7498 19.1042 55.656 20.0937 56.4737 21.1562C60.13 26.8073 60.4008 33.8802 58.3904 40.0885ZM31.3331 11.6458C35.1456 10.6771 39.7967 10.75 45.3904 12.7708C49.38 14.2083 52.4321 16.2969 54.6717 18.7917C54.4165 18.5365 54.1612 18.2917 53.9008 18.0521C52.8435 17.0781 51.6977 16.2031 50.4737 15.4427C48.031 13.9219 45.2967 12.8646 42.4633 12.3333C39.6248 11.8281 36.6873 11.8125 33.8592 12.3906C31.031 12.9635 28.3071 14.0677 25.9112 15.6719C23.5154 17.2708 21.4321 19.3385 19.854 21.7396C19.8383 21.7656 19.8227 21.7917 19.8071 21.8177C20.1352 20.9792 20.7133 20.1042 21.6456 19.1562C21.6456 19.151 21.6717 19.125 21.7029 19.0833C22.0675 18.625 22.9112 17.6094 24.1612 16.4062C25.479 15.1354 27.255 13.651 29.3904 12.3698C30.031 12.099 30.6769 11.8542 31.3331 11.6458ZM55.9477 16.901C50.3123 11.3698 44.4425 8.75 38.4998 9.11458C35.7758 9.28646 33.281 10.0781 31.0935 11.1458C26.5623 12.3229 23.1873 14.9375 20.8071 17.5521C15.38 23.5104 13.1092 31.9271 14.2862 34.4688C14.3487 34.6042 14.505 34.6615 14.6404 34.599C14.7706 34.5365 14.8279 34.3802 14.7654 34.2448C13.9633 32.5104 15.0883 26.875 18.3956 21.6198C13.906 29.0885 13.9112 38.5677 18.4737 46.0469C18.7342 47.5313 19.479 49.0677 20.9685 50.625C30.229 60.3073 45.6092 60.6198 55.255 51.3229C60.031 46.7187 62.7915 40.2708 62.8227 33.6302C62.854 27.2292 60.4112 21.2865 55.9477 16.901Z" fill="#FDD57E"/>
<path d="M45.3908 12.7708C46.0991 13.026 46.7814 13.3021 47.4325 13.5938C47.5366 13.4479 47.6408 13.3021 47.745 13.1563C47.0522 12.8385 46.3283 12.5417 45.5679 12.2656C42.8335 11.2813 40.3231 10.7552 38.0106 10.5781C37.8752 10.7448 37.7397 10.9115 37.5991 11.0833C39.9637 11.224 42.5575 11.7448 45.3908 12.7708Z" fill="#E5C37C"/>
<path d="M48.12 12.6302C48.1668 12.5573 48.2241 12.4844 48.2762 12.4115C45.1147 10.9531 41.6929 10.2344 38.271 10.2604C38.1981 10.3542 38.1252 10.4375 38.0522 10.5313C41.4897 10.4688 44.9377 11.1719 48.12 12.6302Z" fill="#E5C37C"/>
<path d="M38.1613 12.4219C39.5728 12.4115 40.9894 12.526 42.3853 12.7708C43.9842 13.0469 45.5623 13.4896 47.0728 14.0937C47.1457 13.9896 47.2186 13.8906 47.2915 13.7917C45.7394 13.1354 44.1196 12.6458 42.4634 12.3333C40.6092 12.0052 38.7186 11.8854 36.8384 12C36.6978 12.1667 36.5571 12.3385 36.4165 12.5104C36.9946 12.4583 37.578 12.4271 38.1613 12.4219Z" fill="#E5C37C"/>
<path d="M17.8073 43.0208C17.9739 42.9479 18.1354 42.8698 18.2969 42.7917C18.125 42.2708 17.9844 41.7448 17.8594 41.2292C18.0573 41.7292 18.2708 42.2135 18.5052 42.6927C18.6666 42.6146 18.8229 42.5365 18.9844 42.4583C19.0625 42.1719 19.1562 41.8906 19.2552 41.6146C19.3333 41.8073 19.4166 42 19.5 42.1875C28.8333 37.1979 38.8021 25.4948 46.6719 14.6406C43 13.0729 38.6927 12.849 35.901 13.0677C30.0052 20 23.3906 26.6458 17.8125 31.8906C17.526 35.0417 17.9583 38.25 19.1094 41.25C18.9479 41.6562 18.8021 42.0677 18.6875 42.4896C18.2656 41.6615 17.901 40.8021 17.5885 39.9167C17.1771 37.5521 17.2083 35.4271 17.3333 33.9271C17.3802 33.3281 17.4531 32.7344 17.5469 32.1406C17.3385 32.3333 17.1302 32.526 16.9271 32.7187C16.8802 33.1042 16.8385 33.4948 16.8021 33.8854C16.7396 34.651 16.7031 35.5781 16.7291 36.6146C16.5364 35.4792 16.4427 34.3229 16.4427 33.1719C16.4114 33.1979 16.3854 33.224 16.3541 33.25C16.3489 34.6875 16.4896 36.1302 16.7708 37.5417C16.8802 39.2031 17.1771 41.0885 17.8073 43.0208Z" fill="#E5C37C"/>
<path d="M17.3022 43.2396C16.0314 40.3698 15.37 37.2969 15.3075 34.2188C15.2241 34.2969 15.1356 34.375 15.0522 34.4531C15.1356 37.4896 15.8075 40.5104 17.0575 43.3385C17.1408 43.3073 17.2189 43.2708 17.3022 43.2396Z" fill="#E5C37C"/>
<path d="M39.2082 9.08855C39.1353 9.17709 39.0623 9.27084 38.9946 9.35938C42.2655 9.25001 45.5207 10.0573 48.7238 11.7708C48.7707 11.6979 48.8228 11.6302 48.8748 11.5521C45.6978 9.84376 42.4634 9.01563 39.2082 9.08855Z" fill="#E5C37C"/>
<path d="M27.099 51.4635C25.9635 50.7813 24.8854 49.9948 23.8802 49.1198C23.7344 49.1927 23.5833 49.2604 23.4375 49.3229C24.4896 50.2865 25.6302 51.1458 26.8385 51.8958C27.4479 52.276 28.0781 52.625 28.724 52.9427C28.9687 52.8646 29.2083 52.7813 29.4479 52.6979C28.6458 52.3333 27.8594 51.9167 27.099 51.4635Z" fill="#E0BD79"/>
<path d="M58.2446 23.2448C58.1144 23.3958 57.9842 23.5469 57.854 23.6927C58.6665 25.5104 59.1873 27.4219 59.4425 29.3698C59.604 29.1823 59.755 28.9948 59.9113 28.8125C59.7603 27.8333 59.5415 26.8698 59.2603 25.9219C59.6144 26.7656 59.9113 27.6302 60.1509 28.5156C60.1978 28.4583 60.2446 28.401 60.2915 28.3438C59.9113 27 59.3905 25.6979 58.755 24.4531C58.5988 24.0469 58.4321 23.6458 58.2446 23.2448Z" fill="#E0BD79"/>
<path d="M21.1613 50.4427C21.13 50.4167 21.1092 50.3854 21.0832 50.3594C20.9946 50.3958 20.9061 50.4323 20.8228 50.4688C20.8696 50.5208 20.9165 50.5729 20.9686 50.625C22.1925 51.9063 23.5207 53.0208 24.9321 53.9688C25.0519 53.9479 25.1717 53.9219 25.2967 53.8906C23.8175 52.9219 22.4321 51.7708 21.1613 50.4427Z" fill="#E0BD79"/>
<path d="M24.271 48.9427C25.9064 50.4844 27.7293 51.7083 29.6668 52.6198C41.4793 48.3906 51.8335 38.3802 58.8647 30.0625C58.5262 28.1771 57.9272 26.3281 57.0679 24.5781C45.6252 37.2708 33.2606 44.7448 24.271 48.9427Z" fill="#E0BD79"/>
<path d="M26.5519 53.5885C26.7967 53.5208 27.0467 53.4531 27.2915 53.3854C25.3332 52.3229 23.7446 51.0938 22.4634 49.7604C22.2863 49.8438 22.1092 49.9219 21.9321 49.9948C23.1717 51.3021 24.6925 52.5208 26.5519 53.5885Z" fill="#E0BD79"/>
<path d="M59.6354 21.6198C59.5729 21.6927 59.5104 21.7656 59.4531 21.8385C60.349 23.375 61.0625 25.0208 61.5781 26.7396C61.6458 26.6563 61.7083 26.5677 61.776 26.4844C61.25 24.7813 60.5313 23.151 59.6354 21.6198Z" fill="#E0BD79"/>
<path d="M58.7915 22.6146C59.6717 24.2396 60.3488 25.9427 60.8175 27.6927C60.8853 27.6094 60.953 27.5208 61.0207 27.4375C60.5415 25.7031 59.8592 24.0104 58.9738 22.401C58.9113 22.474 58.8488 22.5469 58.7915 22.6146Z" fill="#E0BD79"/>
<path d="M26.0469 53.7188C26.1667 53.6875 26.2865 53.6563 26.4063 53.625C24.7865 52.6354 23.2708 51.4323 21.8854 50.0156C21.8021 50.0521 21.7135 50.0885 21.625 50.125C22.9792 51.5313 24.4635 52.724 26.0469 53.7188Z" fill="#E0BD79"/>
<path d="M62.4113 30.8854C62.5103 31.7865 62.5623 32.7031 62.5571 33.6302C62.5259 40.1979 59.7967 46.5781 55.0728 51.1302C49.5728 56.4323 42.1821 58.5729 35.1613 57.599C35.0519 57.6771 34.9478 57.75 34.8384 57.8229C42.0259 58.9063 49.6196 56.7552 55.255 51.3229C60.0311 46.7188 62.7915 40.2708 62.8228 33.6302C62.828 32.599 62.7655 31.5729 62.6457 30.5677C62.5675 30.6719 62.4894 30.7761 62.4113 30.8854Z" fill="#F2CAA7"/>
<path d="M54.6875 50.7292C59.9948 45.6146 62.3802 38.5677 61.7917 31.724C61.7135 31.8333 61.6302 31.9375 61.5521 32.0469C62.0365 38.7188 59.6771 45.5521 54.5052 50.5365C49.4219 55.4375 42.6719 57.5417 36.1563 56.8958C36.0469 56.974 35.9427 57.0469 35.8281 57.125C42.5156 57.8802 49.4687 55.7604 54.6875 50.7292Z" fill="#F2CAA7"/>
<path d="M59.1458 35.1354C52.375 43.5469 45.2813 49.9479 39.2969 54.5625C44.1823 54.3646 49.0156 52.4427 52.8229 48.776C56.7031 45.0313 58.8229 40.1354 59.1458 35.1354Z" fill="#F2CAA7"/>
<path d="M51.875 51.3854C54.1406 49.8385 56.1094 47.8646 57.625 45.5833C59.2292 43.1719 60.3073 40.4271 60.7969 37.5781C61.0729 35.974 61.151 34.3385 61.0417 32.7188C60.974 32.8073 60.9063 32.8958 60.8385 32.9896C60.8958 34.5104 60.7813 36.0365 60.5104 37.526C59.9948 40.3281 58.8906 43.0156 57.2865 45.3542C56.3958 46.651 55.3542 47.8437 54.1979 48.9115C56.276 46.3646 57.8802 43.3906 58.8958 40.2552C59.5573 38.2031 59.9792 36.0677 60.1198 33.9115C59.9219 34.1667 59.724 34.4167 59.526 34.6667C59.349 36.5052 58.9635 38.3333 58.3906 40.0885C57.0313 44.2917 54.5937 48.2031 51.3542 51.1354C51.3125 51.1667 51.2708 51.1979 51.2292 51.224C48.8542 52.7604 46.1823 53.8229 43.4115 54.3594C41.9583 54.6406 40.4844 54.7813 39.0104 54.7813C38.7708 54.9635 38.5313 55.1458 38.2917 55.3229C40.0417 55.3854 41.7969 55.25 43.5156 54.901C45.2865 54.5521 47.0156 53.9844 48.651 53.224C45.3073 55.401 41.349 56.6042 36.974 56.3021C36.75 56.4688 36.526 56.625 36.3125 56.7865C42.4375 57.401 47.7969 55.151 51.875 51.3854Z" fill="#F2CAA7"/>
<path d="M19.4427 48.3802C19.5104 48.4115 19.5833 48.4427 19.6563 48.4635C19.3229 47.8906 19.0885 47.3177 18.9219 46.7552C19.3281 47.3698 19.7708 47.974 20.2396 48.5573C20.349 48.5625 20.4583 48.5573 20.5729 48.5469C19.901 47.724 19.2917 46.8646 18.7448 45.9792C18.6979 45.7083 18.6719 45.4323 18.6563 45.1667C19.1875 46.3073 19.8542 47.4427 20.6927 48.5365C20.8802 48.5156 21.0833 48.4792 21.2969 48.4323C20.1406 46.9687 19.3021 45.4271 18.6927 43.8906C18.7187 43.6823 18.75 43.474 18.7917 43.2656C19.2969 44.2344 19.8698 45.1667 20.5156 46.0469C21.0469 46.7813 21.625 47.4792 22.2396 48.1354C22.375 48.0885 22.5156 48.0313 22.6563 47.974C21.9948 47.3021 21.3698 46.5885 20.7969 45.8385C20.0729 44.901 19.4375 43.901 18.8802 42.8542C18.974 42.4635 19.0885 42.0781 19.2292 41.7031C19.099 41.7917 18.9688 41.8854 18.8438 41.974C18.7917 42.1458 18.7344 42.3177 18.6875 42.4896C18.6354 42.3906 18.5885 42.2917 18.5417 42.1927C18.4687 42.2396 18.401 42.2865 18.3385 42.3333C18.4219 42.5156 18.5052 42.6927 18.5938 42.8698C18.5573 43.0313 18.5208 43.1927 18.4948 43.3594C18.3802 43.0521 18.2813 42.7448 18.1875 42.4375C18.0313 42.5469 17.875 42.6563 17.724 42.7604C17.9063 43.3438 18.125 43.9323 18.3698 44.526C18.3646 44.8125 18.3698 45.099 18.3906 45.3854C17.9635 44.6406 17.5781 43.875 17.2396 43.0938C17.1615 43.1458 17.0885 43.1927 17.0156 43.2448C17.4375 44.2031 17.9219 45.1406 18.474 46.0469C18.6042 46.7813 18.849 47.526 19.2448 48.2813C19.3125 48.3125 19.375 48.3437 19.4427 48.3802Z" fill="#F2CAA7"/>
<path d="M55.7604 17.0937C56.4375 17.7604 57.0677 18.4635 57.651 19.1979C57.7187 19.1354 57.7813 19.0677 57.8438 19.0104C57.2604 18.276 56.625 17.5729 55.9479 16.901C53.5677 14.5677 51.1458 12.75 48.6979 11.4583C48.6458 11.5312 48.5937 11.6042 48.5469 11.6771C50.9792 12.9635 53.3906 14.7656 55.7604 17.0937Z" fill="#F2CAA7"/>
<path d="M47.2554 13.5208C50.3491 14.8958 52.7918 16.7031 54.672 18.7917C54.4168 18.5365 54.1616 18.2917 53.9012 18.0521C52.8439 17.0781 51.6981 16.2031 50.4741 15.4427C49.4064 14.776 48.2814 14.1979 47.1147 13.7188C47.0418 13.8177 46.9689 13.9219 46.896 14.0208C48.0835 14.4844 49.2293 15.0417 50.3231 15.6927C51.5366 16.4219 52.6929 17.2656 53.7554 18.2135C54.6043 18.974 55.3856 19.8073 56.1095 20.6927C56.2554 20.5469 56.396 20.4115 56.5366 20.276C54.5106 17.375 51.5679 14.875 47.5731 13.0729C47.4689 13.224 47.3647 13.3698 47.2554 13.5208Z" fill="#F2CAA7"/>
<path d="M53.4113 19.349C51.3905 17.2344 49.0259 15.6354 46.4946 14.5677C36.8228 27.8229 26.1509 36.7292 19.2759 41.6615C20.1717 43.8542 21.4478 45.9271 23.1248 47.7708C31.1405 44.125 47.6873 28.7604 55.2342 21.5312C54.6821 20.776 54.078 20.0469 53.4113 19.349Z" fill="#F2CAA7"/>
<path d="M47.9429 12.5521C50.5835 13.7344 53.0418 15.4375 55.1668 17.6615C55.8335 18.3542 56.4429 19.0781 57.0002 19.8281C57.0679 19.7656 57.1304 19.6979 57.1929 19.6406C56.6304 18.8906 56.021 18.1667 55.3595 17.4792C53.2241 15.2448 50.7502 13.526 48.0939 12.3281C48.0418 12.4063 47.9897 12.4792 47.9429 12.5521Z" fill="#F2CAA7"/>
<path d="M50.7709 12.6823C67.7709 -1.0052 70.8646 -0.223951 73.0104 1.70313C78.0104 6.18751 68.8073 14.9479 45.9323 38.1042C23.0573 61.2604 6.99483 71.7656 1.31774 66.2136C-2.53122 62.4531 12.9219 54.4115 16.1042 48.7344C16.1042 48.7344 16.0625 48.6667 15.9688 48.5625C12.9271 54.0625 -3.10413 62.2656 0.984408 66.5365C6.81774 72.6406 23.1198 61.625 46.7813 38.2031C71.8073 13.4271 78.6459 5.21355 72.5 0.781259C68.9948 -1.74478 59.5886 5.08855 50.7448 12.6667L50.7709 12.6823Z" fill="#C69EA5"/>
<path d="M72.0887 1.71354C70.2501 -0.208332 62.4533 4.79688 51.9324 13.4792L52.3699 13.8073C57.6251 10.151 61.4168 8.44792 62.3074 9.38542C64.0887 11.2448 53.9949 23.0781 40.2501 36.3229C26.5105 49.5729 14.323 59.2135 12.5418 57.3542C11.5626 56.3281 13.8699 51.9635 18.4845 46.0885L18.4793 46.0469L18.2814 45.7292C8.45846 56.6198 2.58867 64.8438 4.51054 66.8542C7.31263 69.7813 25.3126 58.2031 43.9741 40.2135C62.6303 22.224 74.8908 4.64063 72.0887 1.71354Z" fill="#FBE2E5"/>
<path d="M68.3803 4.625C67.1355 3.32291 63.7709 5.95312 57.547 9.92708C61.0886 8.19791 66.2553 4.55208 67.5366 5.95833C69.547 8.16145 55.9584 24.3229 41.3751 38.3854C26.7918 52.4375 11.2814 63.8073 9.21885 61.651C8.08864 60.4687 12.573 53.25 17.3855 46.9687C16.3491 48.125 14.3491 50.6771 14.3491 50.6771C8.7501 58.1458 5.94281 61.9427 7.36989 63.4375C9.96364 66.151 25.1095 55.7812 42.2293 39.276C59.3491 22.776 70.9741 7.33854 68.3803 4.625Z" fill="#C69EA5"/>
</svg>
