<svg width="47" height="37" viewBox="0 0 47 37" fill="none" xmlns="http://www.w3.org/2000/svg">
<path d="M25.6509 0.885417C27.0207 1.04167 28.3644 1.40104 29.6353 1.94792C30.8957 2.49479 32.0884 3.21354 33.1613 4.08854C34.2342 4.95833 35.203 5.95833 36.0884 7.03125L36.7238 7.86458L37.0363 8.28125L37.328 8.71875L37.9061 9.58854L38.4373 10.4948C38.7603 11.0104 39.0311 11.5573 39.3071 12.099C36.6457 7.14063 31.5155 4.36979 29.0988 3.61458C25.1405 2.375 13.8123 -0.453124 7.98422 12.0417C7.95297 12.1146 7.92692 12.1823 7.90088 12.2552C5.2863 18.8438 6.72901 26.4115 11.703 31.4479C11.9321 31.6771 12.1613 31.9063 12.4061 32.125C11.5832 31.4792 10.8175 30.75 10.1248 29.9479C9.20817 28.8958 8.38005 27.75 7.77067 26.4844C7.46338 25.8542 7.21338 25.1927 6.97901 24.526C6.76547 23.8542 6.56755 23.1771 6.42172 22.4844C6.11963 21.099 5.96859 19.6823 5.94255 18.2552C5.93213 17.5469 5.95817 16.8333 6.02067 16.125C6.07797 15.4115 6.29151 14.7292 6.50505 14.0469C6.95817 12.6875 7.51026 11.3646 8.15088 10.0833C8.79151 8.80729 9.52588 7.56771 10.4009 6.44271C10.8436 5.88542 11.3175 5.35417 11.8488 4.89063C12.1196 4.66146 12.3957 4.4375 12.6925 4.25521C12.9842 4.0625 13.2967 3.89063 13.604 3.71875C14.8384 3.03125 16.1196 2.44271 17.4425 1.96875C18.7603 1.5 20.1248 1.14583 21.4998 0.947917C22.88 0.744792 24.2759 0.72396 25.6509 0.885417ZM37.8696 10.4844C37.8696 10.4844 39.6457 12.7917 39.6561 13.8854C38.3905 11.4479 37.8696 10.4844 37.8696 10.4844ZM39.3123 14.5885C38.0467 12.151 37.5259 11.1875 37.5259 11.1875C37.5259 11.1875 39.3019 13.4948 39.3123 14.5885ZM40.3123 14.2604C40.8384 15.5573 41.2342 16.9219 41.4738 18.3073C41.578 19.0052 41.6561 19.7135 41.6769 20.4167C41.6925 21.125 41.6613 21.8333 41.578 22.5365C41.3905 23.9427 40.9998 25.3281 40.3696 26.6042C40.0623 27.2448 39.703 27.8594 39.3019 28.4427C38.8957 29.0208 38.4478 29.5729 37.9634 30.0938C37.3123 30.8021 36.5884 31.4375 35.8228 32.0208C37.4634 30.2135 38.8905 27.7344 40.0207 24.3802C41.6248 19.6094 41.078 15.6927 39.5571 12.5833C39.828 13.1302 40.078 13.6927 40.3123 14.2604ZM28.6769 35.6979C28.2498 35.6719 24.828 36.0365 24.828 36.0365C25.0623 35.8333 28.3644 35.5938 28.7967 35.5521C29.229 35.5104 31.5936 34.6146 31.5936 34.6146C31.5936 34.6146 29.104 35.724 28.6769 35.6979ZM14.4998 33.4271C14.4998 33.4271 14.8228 33.4635 15.2394 33.5573C15.6509 33.6563 16.3436 34.3021 16.8592 34.5521C17.3748 34.8021 20.5832 35.6719 20.5832 35.6719C20.5832 35.6719 18.6092 35.2083 17.6925 35.0365C16.7707 34.8594 15.7238 33.9271 15.1665 33.7083C14.6092 33.4948 14.4998 33.4271 14.4998 33.4271ZM22.8175 36.2448C21.4321 36.2344 20.0519 36.0781 18.7186 35.75C18.0519 35.5833 17.3957 35.375 16.7603 35.1146C16.1301 34.8542 15.5155 34.526 14.8905 34.2344C13.6613 33.599 12.4373 32.9531 11.3071 32.1667C10.1665 31.3854 9.09359 30.5052 8.20817 29.4531C7.31755 28.401 6.64567 27.1667 6.23422 25.8333C5.81234 24.5052 5.62484 23.099 5.54151 21.6875L5.51026 20.625C5.49984 20.2708 5.50505 19.9167 5.51026 19.5625C5.52588 18.8542 5.58838 18.1458 5.6613 17.4375C5.98421 14.6198 6.73942 11.8229 8.07276 9.3125C9.40088 6.80729 11.354 4.63021 13.755 3.1875C14.953 2.46354 16.2446 1.91146 17.5675 1.5L18.5728 1.21875L19.5884 1.01042C19.9269 0.927084 20.2707 0.890627 20.6144 0.843751L21.13 0.770834C21.3019 0.744793 21.4738 0.72396 21.6457 0.713543C22.0571 0.677084 22.4686 0.656251 22.8748 0.640626C22.4113 0.666667 21.9478 0.713542 21.4842 0.781251C20.0936 0.989584 18.7238 1.34375 17.3957 1.81771C16.0675 2.30208 14.7759 2.89583 13.5363 3.58854C13.229 3.76563 12.9165 3.93229 12.6196 4.13021C12.3175 4.32292 12.0363 4.55208 11.7655 4.78125C11.2238 5.26042 10.7446 5.79688 10.2967 6.35938C9.41651 7.49479 8.68213 8.73959 8.04151 10.026C7.40088 11.3177 6.8488 12.6458 6.40088 14.0104C6.18213 14.6927 5.96859 15.3906 5.9113 16.1146C5.8488 16.8281 5.82276 17.5469 5.83838 18.2656C5.86442 19.6927 6.02067 21.1198 6.32797 22.5104C6.4738 23.2031 6.67692 23.8854 6.89567 24.5573C7.13005 25.2292 7.38005 25.8906 7.69776 26.526C8.30713 27.7917 8.86963 29.0885 9.79672 30.1406C11.1978 31.7604 13.0103 33.0729 14.9478 34.026C16.0571 34.6823 17.2759 35.2031 18.6092 35.4896C20.1821 35.8333 21.7707 36.1094 23.3436 36.2396C23.1665 36.2448 22.9946 36.2448 22.8175 36.2448ZM42.578 10.6458C42.3644 9.96354 42.0832 9.30208 41.7759 8.65625C41.4478 8.02083 41.0988 7.39583 40.6873 6.8125C40.2759 6.23438 39.828 5.67708 39.328 5.17188C39.0884 4.91146 38.8228 4.67708 38.5623 4.4375C38.4373 4.3125 38.2915 4.20834 38.1561 4.09375C38.0207 3.98438 37.8905 3.86458 37.7446 3.76563C36.6092 2.92188 35.3644 2.23959 34.0519 1.73438C32.7394 1.23438 31.3748 0.890627 29.9894 0.671876C27.2394 0.218751 24.4269 0.0312512 21.6144 0.286459C21.4425 0.296875 21.2655 0.31771 21.0936 0.343751L20.5675 0.416668C20.2186 0.46875 19.8644 0.505209 19.5207 0.588543L18.4842 0.807293L17.4582 1.09896C16.104 1.52083 14.7811 2.08854 13.5571 2.83333C11.0884 4.31771 9.08838 6.56771 7.73422 9.13021C6.38005 11.6979 5.61963 14.5469 5.29672 17.4063C5.22901 18.125 5.16651 18.8438 5.15609 19.5625C5.14567 19.9167 5.14567 20.2813 5.15088 20.6406L5.18734 21.7135C5.27588 23.1458 5.46859 24.5833 5.90088 25.9531C6.33317 27.3177 7.0363 28.599 7.95297 29.6771C8.86442 30.7656 9.96338 31.6563 11.1196 32.4427C12.2759 33.2396 13.5103 33.8854 14.7446 34.5208C15.38 34.8229 15.9894 35.1458 16.6405 35.4115C17.2915 35.6771 17.9634 35.8854 18.6405 36.0521C19.9998 36.3854 21.4061 36.5417 22.8071 36.5469C23.8696 36.5573 24.9425 36.474 25.9998 36.3229C29.13 36.224 32.1144 35.3698 34.6717 33.1458C34.7342 33.1042 34.7967 33.0729 34.8592 33.0313C36.0467 32.2448 37.1717 31.3333 38.1509 30.2708C38.6405 29.7448 40.2811 27.3646 40.5936 26.7135C41.2342 25.4115 41.63 23.9948 41.8123 22.5625C41.9009 21.849 41.9269 21.125 41.9113 20.4063C41.8905 19.6875 41.8071 18.974 41.6978 18.2656C41.453 16.8542 41.0519 15.4792 40.5155 14.1667C40.2394 13.5156 39.9582 12.8646 39.6248 12.2396C39.2967 11.6198 38.9946 10.9792 38.6196 10.3854L38.0832 9.47396L37.4946 8.59375L37.203 8.15625L36.8853 7.73958L36.2446 6.90104C35.3488 5.81771 34.3696 4.8125 33.2811 3.93229C32.1925 3.05208 30.9842 2.32813 29.7082 1.77604C28.4217 1.22396 27.0623 0.864585 25.6717 0.708334C25.2342 0.656252 24.7863 0.630208 24.3436 0.614584C26.2082 0.630208 28.0728 0.8125 29.9113 1.11979C31.2759 1.33333 32.6092 1.67708 33.8853 2.16667C35.1613 2.66146 36.3696 3.32813 37.4634 4.14583C37.604 4.24479 37.729 4.35938 37.8644 4.46875C37.9946 4.57813 38.1353 4.67708 38.2603 4.79688C38.5103 5.03125 38.7655 5.25521 38.9946 5.51042C39.479 6 39.9061 6.53646 40.3019 7.09896C40.6978 7.66146 41.0363 8.26563 41.354 8.88021C41.6457 9.51042 41.9165 10.1458 42.1248 10.8125C42.979 13.4688 43.4634 13.3854 42.578 10.6458Z" fill="#96E4F1"/>
<path d="M6.58854 13.8021C6.55208 13.7917 6.51563 13.776 6.47917 13.7656C6.45313 13.849 6.42708 13.9271 6.40104 14.0104C6.33854 14.2083 6.27604 14.4115 6.21875 14.6094C6.25 14.6302 6.28125 14.651 6.3125 14.6719C6.375 14.4635 6.44271 14.2552 6.50521 14.0469C6.53646 13.9635 6.5625 13.8854 6.58854 13.8021Z" fill="#4BD8EA"/>
<path d="M5.82275 14.3438C5.93213 14.4167 6.0415 14.4896 6.15088 14.5625C6.21338 14.2813 6.28109 14 6.35921 13.7188C6.23942 13.6771 6.12484 13.6354 6.01025 13.5938C5.94255 13.8438 5.88004 14.0938 5.82275 14.3438Z" fill="#4BD8EA"/>
<path d="M7.2915 14.0521C7.19255 14.4115 7.104 14.7761 7.02588 15.1354C21.2238 24.2813 33.6457 24.6667 40.3228 23.3958C40.5363 22.6406 40.6978 21.9011 40.8071 21.1875C31.3644 22.0625 14.8228 16.7188 7.2915 14.0521Z" fill="#4BD8EA"/>
<path d="M41.8125 22.5625C41.875 22.0625 41.9063 21.5521 41.9115 21.0521C41.8385 21.0625 41.7552 21.0729 41.6771 21.0833C41.6667 21.5729 41.6354 22.0573 41.5781 22.5365C41.5521 22.7448 41.5208 22.9479 41.4844 23.1511C41.5677 23.1302 41.651 23.1094 41.7344 23.0833C41.7656 22.9115 41.7917 22.7396 41.8125 22.5625Z" fill="#4BD8EA"/>
<path d="M9.94775 6.82812C9.50504 7.4375 9.0988 8.07813 8.729 8.73438C8.76546 8.75 8.80192 8.77083 8.84359 8.79167C9.21859 8.13542 9.61963 7.5 10.0623 6.89063C10.0259 6.86979 9.98421 6.84896 9.94775 6.82812Z" fill="#4BD8EA"/>
<path d="M8.125 8.42708C8.23437 8.48438 8.34896 8.54167 8.46875 8.60417C8.85417 7.94792 9.29167 7.31771 9.76563 6.72396C9.64583 6.66146 9.53125 6.59375 9.42188 6.53125C8.94792 7.13542 8.51563 7.77083 8.125 8.42708Z" fill="#4BD8EA"/>
<path d="M40.8491 16.7813C40.771 16.2188 40.6616 15.6823 40.521 15.1563C38.1408 15.3073 35.4793 15.3333 34.5002 14.8229C32.5575 13.8125 31.8231 15.8958 26.9897 14.9219C23.8127 14.2813 15.9637 10.1458 10.9481 7.38022C10.4845 7.91668 10.0314 8.51043 9.59912 9.15626C14.4897 11.5208 23.4585 15.4115 24.7762 15.9896C26.5158 16.7604 31.5054 16.599 34.1252 15.875C35.5522 15.4844 38.4793 16.1198 40.8491 16.7813Z" fill="#4BD8EA"/>
<path d="M40.646 15.151C40.8439 15.7135 41.021 16.2865 41.1668 16.8698C41.2502 16.8958 41.3335 16.9167 41.4168 16.9427C41.271 16.3281 41.0887 15.724 40.8804 15.1354C40.8022 15.1406 40.7241 15.1458 40.646 15.151Z" fill="#4BD8EA"/>
<path d="M38.5623 29.4115C38.3696 29.6458 38.1717 29.8698 37.9634 30.0938C37.6821 30.3958 37.3957 30.6823 37.0884 30.9636C37.1561 31.0261 37.2186 31.0833 37.2759 31.1458C37.578 30.8698 37.8696 30.5781 38.1509 30.2708C38.2863 30.1198 38.5259 29.8177 38.7967 29.4479C38.7186 29.4323 38.6405 29.4219 38.5623 29.4115Z" fill="#4BD8EA"/>
<path d="M35.3179 28.9011C31.3127 28.2344 29.3387 29.6667 26.7502 29.8594C24.1668 30.0573 18.646 29.1354 12.3595 25.3438C9.90641 23.8594 8.13037 22.7761 6.88037 22.0052C7.0887 23.224 7.42204 24.4167 7.87516 25.5729C8.41162 25.9375 8.9585 26.3177 9.51058 26.7083C13.3022 29.3906 17.9793 30.3854 22.6616 31.3802C27.3439 32.375 33.495 30.474 34.9481 29.9531C35.4897 29.7552 36.1877 30.1615 36.8595 30.75C37.1877 30.3021 37.5054 29.8177 37.8179 29.2969C37.0575 29.1823 36.2189 29.0521 35.3179 28.9011Z" fill="#4BD8EA"/>
<path d="M6.32829 22.5104C6.47412 23.2031 6.67725 23.8854 6.896 24.5573C6.94808 24.7136 7.00537 24.8646 7.06266 25.0156C7.10433 25.0469 7.146 25.0781 7.19287 25.1042C7.11996 24.9115 7.04704 24.7188 6.97933 24.5261C6.76579 23.8542 6.56787 23.1771 6.42204 22.4844C6.35954 22.1979 6.30746 21.9115 6.25537 21.625C6.21891 21.599 6.18245 21.5781 6.146 21.5521C6.19808 21.875 6.26058 22.1927 6.32829 22.5104Z" fill="#4BD8EA"/>
<path d="M5.54183 21.6875L5.5262 21.1719C5.396 21.0885 5.271 21.0156 5.16162 20.9479L5.18766 21.7135C5.23454 22.4583 5.30746 23.1979 5.42725 23.9323C5.55746 24.0208 5.69287 24.1094 5.82829 24.1979C5.67725 23.3698 5.59391 22.5313 5.54183 21.6875Z" fill="#4BD8EA"/>
<path d="M29.099 3.61458C26.0417 2.65624 18.5885 0.755202 12.6719 5.6927C14.1719 5.66145 17.4635 5.6302 19.8281 5.84374C22.9844 6.12499 24.7917 5.62499 28.7083 6.79166C32.1406 7.8177 35.9948 8.57812 36.8958 8.74999C34.2188 5.86458 30.901 4.17708 29.099 3.61458Z" fill="#E6FCFA"/>
<path d="M40.6668 21.9896C40.62 22.1979 40.6147 22.2188 40.6147 22.2188C42.9585 22.651 45.12 23.7969 44.9116 24.6042C44.2866 27.0365 33.9377 25.9167 22.5314 22.9583C11.1252 19.9948 2.04703 15.5521 2.67203 13.1198C2.9012 12.2396 4.66682 11.8125 6.93245 11.6667C3.5887 11.6927 1.44286 12.276 1.14078 13.4427C0.448074 16.1354 9.89078 20.9115 22.2345 24.1146C34.5731 27.3229 45.1408 27.7344 45.8335 25.0417C46.1356 23.875 43.0887 22.3958 40.6668 21.9896Z" fill="#7CCACE"/>
<path d="M40.7968 21.2552L40.7916 21.2708C40.8645 21.2812 47.2656 23.2552 46.3802 26.6771C45.5885 29.75 34.6823 28.5156 21.7395 24.6823C8.79163 20.8542 -0.0104553 16.0885 0.958294 12.4792C1.24996 11.3906 4.20309 10.8802 6.901 10.9271L6.92704 10.8646C4.32288 10.8333 1.20309 11.1406 0.776002 12.599C-0.218788 15.9687 8.67183 20.9479 21.8698 25.0156C35.8281 29.3177 45.8854 29.8906 46.5364 26.4323C47.1406 23.2135 41.0468 21.25 40.7968 21.2552Z" fill="white"/>
</svg>
