<svg width="40" height="40" viewBox="0 0 40 40" fill="none" xmlns="http://www.w3.org/2000/svg">
<path d="M38.2397 13.9688C37.8751 12.7813 37.4116 11.6302 36.8491 10.5208C36.5834 9.95313 36.1928 9.43229 35.8022 8.95833C35.4116 8.48437 35.0053 8.02083 34.7032 7.51042C34.5522 7.25521 34.4272 6.98958 34.3439 6.70833C34.3178 6.61979 34.2814 6.52604 34.2449 6.44271C39.0834 11 40.2449 17.3177 39.0105 23.1354C39.0939 22.5313 39.1564 21.9271 39.1824 21.3177C39.3074 18.8385 38.9689 16.3438 38.2397 13.9688ZM38.948 21.3073C38.8699 23.2187 38.5105 25.125 37.8387 26.9219C37.4012 27.9792 36.8855 29.0104 36.297 29.9948C35.2918 31.5365 34.0157 32.8958 32.5418 33.9896C31.5574 34.7187 30.4897 35.3385 29.3751 35.8438C28.4637 36.2552 27.5262 36.6094 26.573 36.8958C26.8074 36.8073 27.0418 36.7135 27.2762 36.6146C29.5522 35.6406 31.6824 34.2813 33.4324 32.5052C34.3022 31.6198 35.0939 30.6563 35.7866 29.625C36.4689 28.5885 37.0522 27.4792 37.5053 26.3229C38.4168 24 38.7762 21.4792 38.6095 19C38.4532 16.5208 37.7814 14.0833 36.7084 11.849C35.6407 9.61458 34.1616 7.57813 32.3282 5.91667C31.4116 5.08854 30.4064 4.35937 29.3126 3.78125C28.2241 3.20313 27.047 2.78125 25.8282 2.59896L25.823 2.64063C27.0366 2.83854 28.198 3.27604 29.2709 3.85938C30.2397 4.39063 31.1355 5.04167 31.9584 5.77083C29.3959 3.625 25.9584 2.20833 21.573 2.00521C21.5105 2 21.4532 2 21.3855 2C21.3595 1.99479 21.323 1.98437 21.2918 1.97917C19.5157 1.625 17.672 1.57292 15.8751 1.84896C17.9064 1.30729 20.0366 1.15104 22.1303 1.29167C23.3491 1.375 24.5574 1.5625 25.7449 1.83854C26.5053 2.01563 27.2605 2.23437 28.0001 2.49479C28.0782 2.52604 28.1564 2.55729 28.2345 2.59375C30.172 3.42188 31.823 4.41667 33.2241 5.54688C33.3647 5.70313 33.5001 5.86458 33.6199 6.03646C33.7866 6.27604 33.922 6.53646 34.0053 6.80729C34.0991 7.11979 34.2397 7.41667 34.4012 7.69271C34.7293 8.23958 35.1512 8.70833 35.5418 9.17708C35.9376 9.64583 36.297 10.1198 36.5626 10.6667C37.1199 11.7552 37.5887 12.8906 37.9584 14.0573C38.698 16.3906 39.047 18.8542 38.948 21.3073ZM15.1512 38.3958C8.79699 36.125 5.67719 32.3333 4.22928 28.5885C5.04178 29.901 5.9949 31.125 7.06261 32.2396C7.92719 33.1354 8.85949 33.9531 9.85428 34.6875C10.0991 34.875 10.3699 35.0573 10.6459 35.2083C10.922 35.3594 11.2032 35.4896 11.4897 35.6146C12.0522 35.8594 12.6199 36.0885 13.1251 36.401C13.3803 36.5521 13.6147 36.7292 13.8126 36.9427C14.0314 37.1771 14.3074 37.3802 14.5834 37.5313C15.1459 37.8437 15.7553 38.0313 16.3699 38.1563C17.5939 38.4063 18.8491 38.4375 20.0834 38.3594C21.7449 38.2448 23.3855 37.9323 24.9741 37.4479C25.3022 37.3802 25.6303 37.3021 25.9532 37.2135C27.1459 36.8906 28.3074 36.4688 29.4324 35.9635C30.5574 35.4635 31.6355 34.8385 32.6251 34.1042C33.4428 33.5052 34.1928 32.8281 34.8751 32.0833C30.4689 37.8333 23.2866 41.2917 15.1512 38.3958ZM3.33344 25.3125C3.94282 26.4375 4.73449 27.3958 5.69282 28.1198C6.25011 29.1458 6.92199 30.125 7.70844 31.0469C7.87511 31.2448 8.04699 31.4323 8.22407 31.6198C9.91157 33.8646 12.4272 35.9271 16.1824 36.9271C16.9741 37.2188 17.7866 37.4479 18.6199 37.5938C19.5574 37.7708 20.5001 37.8438 21.448 37.8385C20.9897 37.9063 20.5262 37.9583 20.0574 37.9896C18.8491 38.0677 17.6251 38.0417 16.4376 37.8073C15.8491 37.6823 15.2709 37.5104 14.7553 37.224C14.5001 37.0781 14.2709 36.9115 14.0678 36.6927C13.8439 36.4583 13.5782 36.2656 13.3074 36.099C12.7657 35.7656 12.1824 35.5417 11.6251 35.3021C11.3439 35.1823 11.0678 35.0573 10.8022 34.9167C10.5366 34.7708 10.2918 34.6094 10.047 34.4271C9.0574 33.7083 8.13032 32.9063 7.27615 32.0313C5.91678 30.6406 4.7397 29.0573 3.80219 27.3438C3.59907 26.6563 3.44803 25.974 3.33344 25.3125ZM3.16157 23.9375C2.98969 22.0833 3.11469 20.4375 3.28136 19.2604C3.41678 18.2708 3.62511 17.3021 3.89074 16.3542C3.88553 16.4583 3.88032 16.5677 3.87511 16.6719C3.22928 20.1615 3.65115 23.8281 5.19282 27.1354C4.32824 26.2708 3.64074 25.1823 3.16157 23.9375ZM1.50532 18.901C1.47928 16.4479 2.0574 13.9896 3.16157 11.7969C3.70844 10.7031 4.38032 9.66667 5.15115 8.71354C5.91678 7.75521 6.75532 6.85417 7.67199 6.04167C8.44803 5.34896 9.28136 4.71875 10.1616 4.17188C9.56782 4.60938 9.00011 5.07813 8.47407 5.59896C8.32303 5.75 8.17719 5.90625 8.02615 6.0625C7.94282 6.13021 7.85948 6.19271 7.78136 6.26563C5.4324 8.28125 3.69282 10.9167 2.71365 13.9583C1.57303 17.4948 1.64594 21.1146 2.72928 23.9844C2.78136 24.5208 2.85428 25.0521 2.94803 25.5729C2.05219 23.4635 1.52615 21.1927 1.50532 18.901ZM4.1199 14.3125C3.53657 15.8646 3.09907 17.5104 2.86469 19.1979C2.71365 20.2396 2.64594 21.2604 2.64594 22.2604C2.08344 19.7865 2.20324 16.9115 3.11469 14.0885C3.48969 12.9167 4.39594 10.6667 6.23449 8.44792C5.57303 9.54167 5.04699 10.724 4.67199 11.9427C4.4324 12.7188 4.25532 13.5104 4.1199 14.3125ZM8.78657 31.3698C8.78657 31.3698 9.41157 31.5677 9.69282 32.2292C9.96886 32.8906 11.7189 34.1719 11.7189 34.1719C10.9012 33.9792 9.36469 32.1563 9.2449 31.9167C9.12511 31.6719 8.78657 31.3698 8.78657 31.3698ZM9.04178 31.9219C9.44803 32.8906 12.0105 34.7552 12.0105 34.7552C10.8178 34.474 8.56782 31.8125 8.39074 31.4583C8.21886 31.1094 7.72407 30.6667 7.72407 30.6667C7.72407 30.6667 8.64074 30.9479 9.04178 31.9219ZM11.7762 5.14583C9.08865 6.04688 6.41157 9.08854 4.66157 12.9948C4.7449 12.6667 4.83865 12.3438 4.93761 12.026C5.53657 10.125 6.50011 8.34375 7.77615 6.82813C7.89594 6.71875 8.02094 6.60417 8.14594 6.49479C10.9741 4.06771 15.2293 2.13542 21.5574 2.42708C21.9012 2.44271 22.2397 2.46875 22.5782 2.5C22.9532 2.60417 23.3282 2.72396 23.698 2.85417C19.6668 2.15104 15.4168 2.89583 11.7762 5.14583ZM23.6616 37.4219C23.3387 37.5 23.0209 37.5677 22.698 37.6354C21.3439 37.7396 19.9845 37.6875 18.6512 37.4323C18.4793 37.401 18.3074 37.3646 18.1355 37.3229C19.2345 37.4896 20.422 37.5781 21.7084 37.5573C22.3803 37.5469 23.0314 37.5 23.6616 37.4219ZM31.922 32.9323C32.4376 32.4948 32.9168 32.026 33.3647 31.5365C32.7709 32.276 32.1147 32.9583 31.3907 33.5781C28.9012 35.7188 25.6564 37.0781 21.7032 37.1354C18.5887 37.1771 16.0626 36.625 14.0105 35.7083C13.9741 35.6875 13.9428 35.6719 13.9116 35.651C19.7449 38.1927 26.7657 37.3646 31.922 32.9323ZM35.6668 11.2865C35.1355 10.3594 34.5209 9.46875 33.8022 8.63021C31.4168 5.82813 28.3282 3.99479 25.0209 3.14583C24.5939 2.95833 24.1564 2.79167 23.7189 2.64063C29.7084 3.54687 33.6043 6.96875 35.6668 11.2865ZM37.7918 17.6667C37.5678 15.0885 36.8647 12.5469 35.6355 10.2865C35.9532 10.8281 36.2449 11.3802 36.5105 11.9479C37.5522 14.1615 38.198 16.5729 38.3334 19.0208C38.4793 21.4583 38.0991 23.9323 37.2032 26.2031C36.7605 27.3385 36.1824 28.4219 35.5053 29.4375C35.0991 30.0469 34.6459 30.625 34.172 31.1823C35.3907 29.5156 36.3178 27.6198 36.9324 25.6146C37.8334 23.0625 38.1251 20.3385 37.7918 17.6667ZM14.2709 2.36458C16.1564 1.85417 18.1407 1.73437 20.073 1.97917C16.3855 2.01563 13.1199 2.84896 10.323 4.46354C11.5366 3.58854 12.8751 2.89062 14.2709 2.36458ZM33.0834 4.89583C32.922 4.75 32.7605 4.60937 32.5939 4.47396C31.6043 3.69792 30.5001 3.10937 29.3595 2.61979C29.2657 2.57813 29.1668 2.54167 29.0678 2.50521C28.8491 2.40104 28.6303 2.30208 28.4012 2.20833C18.8699 -1.86458 12.2137 1.00521 8.07824 4.55729C7.71886 4.86458 7.38553 5.17708 7.06261 5.48958C2.30219 10.151 -0.0467649 16.9115 0.614694 19.349C0.645943 19.4687 0.776151 19.5313 0.890735 19.4844C0.994902 19.4479 1.04699 19.3385 1.02094 19.2344C0.458444 17.1146 2.56261 10.4844 7.35949 5.79167C10.6043 2.61458 15.823 -0.447917 23.2553 1.02604C22.8907 0.984375 22.5262 0.947918 22.1564 0.921875C19.6876 0.760417 17.172 1.01042 14.8126 1.80208C13.8803 2.11979 12.9689 2.50521 12.0991 2.96875C10.448 3.70833 8.92719 4.73437 7.58865 5.9375C6.67199 6.76563 5.82303 7.67188 5.04699 8.63021C4.26574 9.58854 3.58865 10.6302 3.03136 11.7344C1.91157 13.9427 1.32303 16.4219 1.33344 18.901C1.33865 21.3802 1.91678 23.849 2.92199 26.1146C3.00011 26.2969 3.08865 26.474 3.17719 26.651C3.50011 27.9688 3.96886 29.224 4.58865 30.3906C6.62511 34.224 10.1303 37.0521 15.0157 38.7917C25.7814 42.6302 34.922 35.6042 38.3855 26.6823C41.2189 19.3906 40.3803 10.4583 33.0834 4.89583Z" fill="#FAB9A5"/>
<path d="M38.3854 26.6823C38.401 26.6458 38.4167 26.6094 38.4271 26.5729C38.2188 26.7292 38.0052 26.8854 37.7865 27.0417C37.3646 28.0625 36.8646 29.0469 36.2969 29.9948C35.2917 31.5365 34.0156 32.8958 32.5417 33.9896C31.5573 34.7188 30.4948 35.3385 29.375 35.8438C28.4687 36.2552 27.526 36.6094 26.5729 36.8958C26.8073 36.8073 27.0417 36.7135 27.276 36.6146C29.5521 35.6406 31.6823 34.2813 33.4375 32.5052C34.3073 31.6198 35.0937 30.6563 35.7865 29.625C36.2083 28.9844 36.5885 28.3229 36.9271 27.6302C36.7448 27.75 36.5677 27.8646 36.375 27.9896C36.1094 28.4844 35.8177 28.9688 35.5052 29.4375C35.099 30.0469 34.651 30.625 34.1719 31.1823C34.8333 30.2813 35.4115 29.3021 35.8958 28.2865C35.4844 28.5365 35.0625 28.7917 34.625 29.0365C28.4479 32.4896 24.6146 34.6146 22.6042 36.974C25.9323 36.6198 29.1927 35.2865 31.9219 32.9323C32.4375 32.4948 32.9167 32.026 33.3646 31.5365C32.7708 32.276 32.1146 32.9583 31.3958 33.5781C29.0729 35.5729 26.099 36.8906 22.5 37.1042C22.3802 37.25 22.2708 37.3958 22.1615 37.5417C22.6771 37.526 23.1719 37.4844 23.6615 37.4219C23.3437 37.5 23.0208 37.5677 22.6979 37.6354C22.4896 37.651 22.276 37.6615 22.0729 37.6719C21.9583 37.8385 21.8542 38.0052 21.7552 38.1771C22.8437 38.0156 23.9219 37.7708 24.9792 37.4479C25.3073 37.3802 25.6302 37.3021 25.9583 37.2135C27.1458 36.8906 28.3073 36.4688 29.4323 35.9635C30.5573 35.4635 31.6354 34.8385 32.625 34.1042C33.4427 33.5052 34.1979 32.8281 34.8802 32.0833C31.5937 36.3698 26.7604 39.3854 21.151 39.4375C21.0833 39.5729 21.0208 39.7188 20.9531 39.8646C29.0573 39.8906 35.5833 33.9115 38.3854 26.6823Z" fill="#ECA762"/>
<path d="M23.6928 30.2083C24.8907 27.3021 27.6772 25.5313 32.9688 21.8177C34.6824 20.6198 36.3855 19.75 37.9063 19.1198C37.8855 18.6354 37.849 18.151 37.7865 17.6667C37.7397 17.1042 37.6667 16.5521 37.573 15.9948C35.5678 15.974 33.1199 16.375 30.3438 17.6771C22.448 21.3854 19.8126 28.1823 18.5261 31.7969C18.0313 33.1823 16.6563 34.6615 15.1199 36.125C16.5157 36.6094 17.9636 36.9115 19.4272 37.0208C21.2449 34.724 22.9688 31.9635 23.6928 30.2083Z" fill="#ECA762"/>
<path d="M38.4844 16.0312C38.6771 16.9219 38.8125 17.8281 38.8906 18.7344C38.974 18.7031 39.0573 18.6719 39.1406 18.6406C39.0729 17.776 38.9479 16.9115 38.776 16.0625C38.6771 16.0521 38.5833 16.0417 38.4844 16.0312Z" fill="#ECA762"/>
<path d="M37.9062 16.0052C38.125 16.974 38.2708 17.9583 38.3333 18.9479C38.4219 18.9115 38.5104 18.8802 38.599 18.8438C38.5313 17.8906 38.3854 16.9427 38.1719 16.0156C38.0833 16.0104 37.9948 16.0052 37.9062 16.0052Z" fill="#ECA762"/>
<path d="M16.4375 37.8073C15.849 37.6823 15.2656 37.5052 14.7552 37.224C14.5885 37.1302 14.4375 37.026 14.2917 36.9115C14.2031 36.9896 14.1198 37.0677 14.0312 37.151C14.2031 37.2969 14.3906 37.4271 14.5833 37.5365C15.1458 37.849 15.7552 38.0313 16.3646 38.1615C17 38.2917 17.6458 38.3594 18.2917 38.3854C18.3958 38.2656 18.5 38.1458 18.6042 38.026C17.875 38.0156 17.151 37.9479 16.4375 37.8073Z" fill="#ECA762"/>
<path d="M17.276 39.4479C17.3906 39.3333 17.5156 39.2135 17.6354 39.0938C16.8177 38.9219 15.9896 38.6927 15.151 38.3958C14.5521 38.1771 13.9792 37.9479 13.4323 37.7083C13.3177 37.8125 13.2031 37.9167 13.0938 38.0208C13.7083 38.2969 14.349 38.5521 15.0156 38.7917C15.776 39.0625 16.526 39.2813 17.276 39.4479Z" fill="#ECA762"/>
<path d="M18.6197 37.5938C18.7187 37.6146 18.8228 37.6302 18.9218 37.6458C18.9635 37.599 19.0051 37.5521 19.0468 37.5C18.9166 37.4792 18.7812 37.4583 18.651 37.4323C18.4791 37.401 18.3072 37.3646 18.1353 37.3229C18.4478 37.375 18.7708 37.4115 19.0937 37.4479C19.1978 37.3177 19.3072 37.1875 19.4114 37.0521C17.802 36.9115 16.3697 36.5938 15.0989 36.1458C14.9843 36.2552 14.8697 36.3646 14.7551 36.474C15.2083 36.6406 15.6822 36.7917 16.1822 36.9271C16.9739 37.2188 17.7864 37.4479 18.6197 37.5938Z" fill="#ECA762"/>
<path d="M39.7083 16.1927C39.5677 16.1667 39.4167 16.1406 39.2656 16.1198C39.3854 16.9167 39.4531 17.724 39.4635 18.526C39.6094 18.4792 39.75 18.4323 39.8906 18.3854C39.875 17.651 39.8073 16.9219 39.7083 16.1927Z" fill="#ECA762"/>
<path d="M1.91138 18.1875C2.03638 18.349 2.16659 18.5 2.31242 18.6406C2.35929 17.1563 2.61971 15.6146 3.1145 14.0886C3.2395 13.6875 3.43221 13.1563 3.70304 12.5521C3.47388 12.6927 3.25513 12.8438 3.052 13C2.927 13.3125 2.81763 13.6354 2.71346 13.9583C2.25513 15.375 1.99471 16.8021 1.91138 18.1875Z" fill="#ECA762"/>
<path d="M22.25 2.47397C22.3594 2.47918 22.4687 2.48959 22.5781 2.50001C22.9531 2.60418 23.3281 2.72397 23.6979 2.85418C23.1823 2.76564 22.6667 2.69793 22.1406 2.65626C20.9896 4.65626 19.7187 6.48959 18.5313 7.42189C16.0104 9.40105 9.55208 9.92709 5.26042 11.7604C5.05208 12.1615 4.84896 12.5729 4.66146 12.9948C4.74479 12.6667 4.83854 12.3438 4.9375 12.0261C4.95313 11.9792 4.96875 11.9271 4.98438 11.8802C4.86979 11.9323 4.75521 11.9896 4.64063 12.0469C4.41667 12.7865 4.24479 13.5469 4.11979 14.3125C3.55208 15.8281 3.11979 17.4427 2.875 19.0938C3.00521 19.1823 3.13542 19.2604 3.27083 19.3333C3.27083 19.3073 3.27604 19.2813 3.28125 19.2604C3.41667 18.2708 3.625 17.3021 3.89063 16.3542C3.88542 16.4583 3.88021 16.5677 3.875 16.6719C3.70313 17.5938 3.60938 18.5313 3.58854 19.474C5.18229 20.1094 6.95833 19.4844 6.78125 16.4896C6.41146 10.2865 11.4635 11.3281 19.8125 7.98959C22.5365 6.90105 24.1719 5.10418 25.125 3.17189C25.0937 3.16147 25.0573 3.15105 25.0208 3.14584C24.5937 2.95834 24.1563 2.79168 23.7188 2.64064C24.2396 2.71876 24.75 2.81772 25.2396 2.9323C25.3021 2.80209 25.3594 2.67188 25.4115 2.53647C24.4896 2.31251 23.5104 2.15626 22.4792 2.06772C22.401 2.20314 22.3229 2.33855 22.25 2.47397Z" fill="#FDD46A"/>
<path d="M23.2551 1.02604C23.1874 1.01563 23.1249 1.01042 23.0572 1C22.9947 1.11979 22.927 1.23437 22.8645 1.35417C23.8124 1.45313 24.7551 1.60937 25.6822 1.82292C25.7447 1.63542 25.8072 1.44792 25.8593 1.26042C24.9687 0.979167 24.1093 0.755209 23.2708 0.59375C23.203 0.723959 23.1353 0.854166 23.0624 0.989583C23.1301 0.999999 23.1926 1.01042 23.2551 1.02604Z" fill="#ECA762"/>
<path d="M1.552 17.6042C1.65617 16.224 1.94263 14.8646 2.40617 13.5625C2.31763 13.651 2.22909 13.75 2.14575 13.8438C1.77596 14.9583 1.52596 16.1146 1.41138 17.2865C1.45304 17.3958 1.49471 17.5 1.552 17.6042Z" fill="#ECA762"/>
<path d="M1.21356 16.3646C1.37502 15.6875 1.60939 14.9375 1.90626 14.1562C1.84376 14.2448 1.78647 14.3333 1.72918 14.4271C1.32814 15.0938 1.18231 15.75 1.21356 16.3646Z" fill="#ECA762"/>
<path d="M5.53117 31.1927C5.53117 31.1927 4.56763 29.4583 4.22909 28.5886C4.74471 29.4219 5.31763 30.224 5.94263 30.9844C6.02596 30.9375 6.10929 30.8906 6.19784 30.8438C5.28638 29.7604 4.48429 28.5886 3.802 27.3438C3.59888 26.6563 3.44784 25.974 3.33325 25.3125C3.94263 26.4375 4.73429 27.3958 5.69263 28.1198C6.10409 28.8802 6.58846 29.625 7.12492 30.3333C13.1301 26.8698 26.677 17.375 35.5364 11.0625C35.0364 10.2136 34.4583 9.40105 33.802 8.63022C32.0103 6.52605 29.8228 4.96876 27.4426 3.95834C19.9114 20.2448 11.8437 18.349 3.8645 22.9531C4.12492 24.3802 4.56763 25.7865 5.19263 27.1354C4.32804 26.2708 3.64054 25.1823 3.16138 23.9375C3.14054 23.75 3.13013 23.5677 3.11971 23.3854C2.95304 23.4792 2.78117 23.5781 2.61971 23.6771C2.65617 23.7761 2.69263 23.8802 2.72909 23.9844C2.78117 24.5208 2.85408 25.0521 2.94784 25.5729C2.70825 25.0104 2.49471 24.4323 2.31242 23.849C2.24992 23.8854 2.18221 23.9271 2.1145 23.9636C2.34367 24.6979 2.60929 25.4167 2.92179 26.1146C2.99992 26.2969 3.08846 26.474 3.177 26.6511C3.49992 27.9688 3.96867 29.224 4.58846 30.3906C4.76554 30.724 4.95825 31.0521 5.15617 31.3698C5.28117 31.3125 5.40617 31.25 5.53117 31.1927Z" fill="#E58B4E"/>
<path d="M35.9166 10.7865C35.9791 10.7448 36.0364 10.7031 36.0937 10.6615C35.0989 8.89584 33.8333 7.27605 32.328 5.91667C31.4114 5.08855 30.4062 4.35938 29.3124 3.78126C28.8645 3.54167 28.4062 3.33334 27.9322 3.15105C27.9166 3.17709 27.9062 3.19792 27.8958 3.21876C28.3645 3.40105 28.828 3.6198 29.2708 3.85938C30.2395 4.39063 31.1353 5.04167 31.9583 5.77084C30.776 4.77605 29.4062 3.94271 27.8437 3.31251C27.7655 3.43751 27.6874 3.5573 27.6145 3.6823C31.3541 5.17709 33.9635 7.85938 35.5468 11.0521C35.6666 10.9688 35.7864 10.8802 35.901 10.7969C35.8124 10.625 35.7291 10.4583 35.6353 10.2865C35.7291 10.4531 35.828 10.6198 35.9166 10.7865Z" fill="#E58B4E"/>
<path d="M3.92716 25.5052C3.78654 25.5417 3.65112 25.5833 3.5105 25.6198C3.86467 26.224 4.27612 26.7761 4.73966 27.2656C4.8855 27.224 5.04175 27.1771 5.19279 27.1354C4.71362 26.6563 4.29175 26.1094 3.92716 25.5052Z" fill="#ECA762"/>
<path d="M22.3437 20.1667C25.6197 16.6719 29.9426 12.6979 34.0155 8.88542C33.9478 8.80209 33.8749 8.71355 33.802 8.63021C32.1614 6.70313 30.1874 5.23438 28.0468 4.22917C27.3801 7.58855 26.0416 11.6823 22.828 15.2031C16.5103 22.1094 14.1614 17.7292 10.1926 18.8177C8.60409 19.2552 6.00513 20.276 3.64575 21.3333C3.70825 22.0417 3.81242 22.75 3.96346 23.4531C9.09888 22.401 15.7968 20.9844 14.8749 22.0365C13.8697 23.1823 9.84367 23.9792 4.4895 25.3594C4.68742 25.9635 4.92179 26.5521 5.19263 27.1354C12.6718 24.9167 16.9687 25.901 22.3437 20.1667Z" fill="#FDD46A"/>
<path d="M33.224 5.54688C33.3646 5.70313 33.5 5.86459 33.6198 6.03646C33.7865 6.27605 33.9219 6.53646 34.0052 6.8073C34.099 7.1198 34.2396 7.41667 34.401 7.69271C34.5104 7.8698 34.625 8.03646 34.7448 8.20313C34.8333 8.125 34.9167 8.04167 35.0052 7.96355C34.8958 7.81771 34.7917 7.66667 34.7031 7.51042C34.5521 7.25521 34.4271 6.98959 34.3438 6.70834C34.3177 6.6198 34.2813 6.52605 34.2448 6.44271C34.6458 6.81771 35.026 7.20834 35.375 7.61459C35.4792 7.51563 35.5885 7.41667 35.6875 7.31771C34.9323 6.45834 34.0677 5.64584 33.0833 4.89584C32.9219 4.75001 32.7604 4.60938 32.5938 4.47396C31.6042 3.69792 30.5 3.10938 29.3594 2.6198C29.2656 2.57813 29.1667 2.54167 29.0677 2.50521C28.849 2.40105 28.6302 2.30209 28.401 2.20834C28.3958 2.20313 28.3958 2.20313 28.3906 2.19792C28.3698 2.34375 28.349 2.48438 28.3281 2.63021C30.224 3.45313 31.849 4.43751 33.224 5.54688Z" fill="#ECA762"/>
<path d="M3.13029 23.625C3.07821 22.9115 3.06779 22.224 3.08341 21.5885C2.93758 21.6563 2.79175 21.724 2.65112 21.7917C2.64592 21.9479 2.64591 22.1042 2.64591 22.2604C2.61467 22.1198 2.58341 21.974 2.55737 21.8333C2.42716 21.8906 2.29696 21.9583 2.16675 22.0156C2.28654 22.6094 2.44279 23.1771 2.6355 23.7188C2.79696 23.6875 2.96362 23.6615 3.13029 23.625Z" fill="#ECA762"/>
<path d="M29.3125 3.78126C28.9583 3.59376 28.5937 3.42188 28.224 3.27084C28.2187 3.29168 28.2083 3.31772 28.2031 3.34376C28.5677 3.50001 28.9271 3.67189 29.2708 3.85939C30.2396 4.39064 31.1354 5.04168 31.9583 5.77084C30.8646 4.85418 29.6094 4.06772 28.1875 3.45314C28.1615 3.59897 28.1354 3.7448 28.1094 3.89064C30.6719 5.01564 32.6771 6.71876 34.1615 8.75522C34.2969 8.62501 34.4375 8.48959 34.5781 8.36459C33.901 7.47918 33.151 6.66147 32.3281 5.91668C31.4115 5.08855 30.4063 4.35938 29.3125 3.78126Z" fill="#ECA762"/>
<path d="M2.29175 23.7917C2.12508 23.2552 1.98446 22.7083 1.86987 22.1615C1.80737 22.1927 1.73967 22.2188 1.68237 22.25C1.78654 22.7813 1.92196 23.3125 2.07821 23.8333C2.14591 23.8229 2.21883 23.8021 2.29175 23.7917Z" fill="#ECA762"/>
<path d="M3.89054 27.5C3.85929 27.4479 3.83325 27.3958 3.802 27.3438C3.63534 26.7708 3.49992 26.2031 3.39575 25.6458C3.19784 25.6979 2.9895 25.7552 2.78638 25.8073C2.83325 25.9115 2.87492 26.0156 2.92179 26.1146C2.99992 26.2969 3.08846 26.474 3.177 26.6511C3.25513 26.9792 3.34367 27.2969 3.44263 27.6146C3.59367 27.5781 3.7395 27.5417 3.89054 27.5Z" fill="#ECA762"/>
<path d="M37.6927 22.4948C37.2396 22.8073 36.7917 23.1198 36.3542 23.4479C34.5781 24.7344 32.8021 26 30.9688 27.1927L28.2448 29.0104C27.349 29.6406 26.4583 30.2708 25.5781 30.9167C22.9687 32.8333 20.3594 34.7656 17.8594 36.8281C18.2656 36.9011 18.6771 36.9531 19.0885 36.9948C19.6823 36.5104 20.2813 36.0313 20.875 35.5521C22.5729 34.1823 24.2917 32.8438 26.0208 31.5156L28.6042 29.5052C29.4583 28.8281 30.3125 28.1458 31.1771 27.4792C32.0469 26.8281 32.9219 26.1719 33.8333 25.5729C34.2813 25.2656 34.7448 24.974 35.2031 24.6823C35.6719 24.4011 36.1406 24.125 36.6094 23.849L37.5781 23.2917C37.6302 23.0156 37.6823 22.7448 37.724 22.474L37.6927 22.4948Z" fill="#E58B4E"/>
<path d="M38.3646 22.0313L38.2344 22.1198C38.1979 22.4063 38.1563 22.6979 38.1094 22.9844L38.4531 22.7865C38.4948 22.4948 38.5365 22.1979 38.5625 21.901C38.5 21.9427 38.4323 21.9844 38.3646 22.0313Z" fill="#E58B4E"/>
<path d="M16.6458 37.8438C16.526 37.9427 16.4115 38.0417 16.2969 38.1458C16.3177 38.151 16.3385 38.1563 16.3594 38.1615C16.724 38.2344 17.0885 38.2865 17.4583 38.3229C17.5885 38.2135 17.724 38.1042 17.8542 37.9948C17.4479 37.9687 17.0469 37.9167 16.6458 37.8438Z" fill="#E58B4E"/>
<path d="M18.4062 37.5521C18.4583 37.5104 18.5155 37.4635 18.5728 37.4167C18.427 37.3906 18.2812 37.3594 18.1353 37.3229C18.2916 37.349 18.4426 37.3698 18.5989 37.3906C18.7551 37.2656 18.9062 37.1458 19.0572 37.0208C18.6353 36.974 18.2291 36.9167 17.828 36.849C17.651 36.9948 17.4791 37.1458 17.302 37.2917C17.6666 37.3906 18.0312 37.4844 18.4062 37.5521Z" fill="#E58B4E"/>
<path d="M39.3021 21.4271C39.2604 21.75 39.2135 22.0625 39.1562 22.375L39.4375 22.2135L39.6302 22.099C39.6823 21.7813 39.724 21.4635 39.7604 21.1406C39.6094 21.2344 39.4531 21.3333 39.3021 21.4271Z" fill="#E58B4E"/>
<path d="M16.3802 39.224C16.5104 39.1094 16.6458 39 16.776 38.8906C16.4479 38.8073 16.1094 38.7083 15.776 38.6042C15.6563 38.7135 15.5313 38.8177 15.4062 38.9271C15.7344 39.0365 16.0573 39.1354 16.3802 39.224Z" fill="#E58B4E"/>
<path d="M39.1719 21.5104C39.1354 21.5313 39.0937 21.5573 39.0573 21.5833C39.0156 21.6094 38.974 21.6354 38.9323 21.6615C38.9167 21.9583 38.8906 22.2344 38.8594 22.5313L39.099 22.4115C39.1302 22.1094 39.1563 21.8125 39.1719 21.5104Z" fill="#E58B4E"/>
<path d="M3.69271 15.5885C4.14583 15.1042 4.60417 14.6302 5.07813 14.1615C6.97917 12.3073 9.01042 10.5833 11.0781 8.89583C13.1406 7.20833 15.2292 5.54167 17.3385 3.90104C17.849 3.5 18.3646 3.09896 18.875 2.70312C18.3385 2.76042 17.8021 2.84896 17.2656 2.95833C17.1302 3.05729 16.9948 3.16146 16.8542 3.26563C15.7813 4.0625 14.7135 4.86979 13.6458 5.6875C12.5833 6.5 11.5417 7.34896 10.5052 8.19792C8.45313 9.92708 6.4375 11.7135 4.60417 13.6979C4.44271 13.8698 4.29167 14.0469 4.13542 14.2188C4.13021 14.2552 4.125 14.2813 4.11979 14.3125C3.95833 14.7396 3.80729 15.1719 3.67188 15.6094C3.67708 15.6042 3.6875 15.599 3.69271 15.5885Z" fill="#E58B4E"/>
<path d="M19.8438 1.95314C19.9167 1.89584 19.9896 1.83855 20.0625 1.78126C19.7031 1.73959 19.3542 1.70834 18.9948 1.69272C18.9115 1.75522 18.8333 1.81251 18.75 1.8698C19.1146 1.88543 19.4792 1.91147 19.8438 1.95314Z" fill="#E58B4E"/>
<path d="M20.1042 0.895831C19.9271 1.02083 19.7552 1.14583 19.5781 1.27083C19.974 1.25 20.3698 1.23958 20.7656 1.24479C20.9167 1.11979 21.0729 0.999998 21.224 0.880206C20.8594 0.874998 20.4896 0.874998 20.125 0.885414L20.1042 0.895831Z" fill="#E58B4E"/>
<path d="M17.8699 2.52083C18.3178 2.47396 18.7709 2.44271 19.2449 2.42188C19.4324 2.27604 19.6199 2.13021 19.8074 1.98438C19.3699 1.99479 18.9324 2.01563 18.5053 2.04688C18.2917 2.20313 18.0834 2.35937 17.8699 2.52083Z" fill="#E58B4E"/>
<path d="M2.42179 17.1146C2.427 17.1042 2.427 17.1094 2.43221 17.1042C2.47908 16.7813 2.53117 16.4427 2.59367 16.1198C2.41659 16.3646 2.2395 16.6146 2.07284 16.8698C2.06242 16.8854 2.04679 16.901 2.03638 16.9219C1.99471 17.2135 1.96346 17.5052 1.94263 17.8021C2.09367 17.5677 2.25513 17.3385 2.42179 17.1146Z" fill="#E58B4E"/>
<path d="M21.401 0.739588C21.5624 0.619796 21.7187 0.494797 21.8801 0.369797C21.578 0.32813 21.2812 0.29688 20.9843 0.276047L20.427 0.666672C20.7499 0.682297 21.0728 0.708338 21.401 0.739588Z" fill="#E58B4E"/>
</svg>
