<svg width="32" height="32" viewBox="0 0 32 32" fill="none" xmlns="http://www.w3.org/2000/svg">
<path d="M3.77318 21.9849C5.99002 24.2042 8.94215 25.5365 12.0734 25.7308C15.2047 25.925 18.299 24.9679 20.7733 23.0396L29.2869 31.5507C29.5889 31.8423 29.9932 32.0036 30.413 31.9999C30.8328 31.9963 31.2343 31.828 31.5311 31.5312C31.8279 31.2345 31.9963 30.8331 31.9999 30.4135C32.0036 29.9938 31.8422 29.5896 31.5506 29.2877L23.037 20.7766C25.0514 18.1921 26.0038 14.9368 25.6999 11.6745C25.396 8.41216 23.8587 5.3886 21.4016 3.22043C18.9445 1.05226 15.7525 -0.0972067 12.4768 0.00644707C9.20106 0.110101 6.08824 1.45907 3.77318 3.77825C2.57698 4.97349 1.62806 6.39265 0.980643 7.95463C0.333227 9.51661 0 11.1908 0 12.8816C0 14.5723 0.333227 16.2465 0.980643 17.8085C1.62806 19.3705 2.57698 20.7896 3.77318 21.9849ZM6.03687 6.04448C7.61949 4.46235 9.70187 3.47775 11.9292 3.25842C14.1566 3.03909 16.3911 3.5986 18.2521 4.84162C20.1131 6.08464 21.4854 7.93427 22.1352 10.0754C22.785 12.2165 22.6721 14.5166 21.8157 16.5838C20.9594 18.651 19.4125 20.3575 17.4388 21.4124C15.465 22.4673 13.1864 22.8054 10.9912 22.3692C8.79607 21.9329 6.82011 20.7492 5.40002 19.0198C3.97994 17.2904 3.20359 15.1223 3.20326 12.8848C3.19886 11.6133 3.44708 10.3537 3.93351 9.17891C4.41993 8.00414 5.13488 6.93763 6.03687 6.04127V6.04448Z" fill="#D9D9D9"/>
</svg>
