<svg width="264" height="24" viewBox="0 0 264 24" fill="none" xmlns="http://www.w3.org/2000/svg">
<path d="M4.01562 23H0.390625C0.307292 23 0.265625 22.9479 0.265625 22.8438L0.296875 0.859375C0.296875 0.776042 0.348958 0.734375 0.453125 0.734375H4.01562C4.11979 0.734375 4.17188 0.776042 4.17188 0.859375L4.14062 9.5625H8.9375V0.859375C8.9375 0.776042 8.97917 0.734375 9.0625 0.734375H12.625C12.7292 0.734375 12.7812 0.776042 12.7812 0.859375L12.8438 22.8438C12.8438 22.9479 12.7917 23 12.6875 23H9.09375C8.98958 23 8.9375 22.9479 8.9375 22.8438V13.4375H4.14062V22.8438C4.14062 22.9479 4.09896 23 4.01562 23ZM17.575 22.8438L21.5438 0.859375C21.5646 0.776042 21.6167 0.734375 21.7 0.734375H26.3406C26.424 0.734375 26.476 0.776042 26.4969 0.859375L30.3094 22.8438C30.3198 22.9479 30.2781 23 30.1844 23H26.6375C26.5333 23 26.476 22.9479 26.4656 22.8438L26.1219 20.5H21.7625L21.4188 22.8438C21.4083 22.9479 21.3563 23 21.2625 23H17.7C17.6167 23 17.575 22.9479 17.575 22.8438ZM23.8406 8.09375L22.4031 17.0781H25.4813L24.1688 8.09375L23.9813 6.90625L23.8406 8.09375ZM40.7438 23.3125C39.5875 23.3125 38.5302 23.0208 37.5719 22.4375C36.624 21.8542 35.8688 21.0729 35.3063 20.0938C34.7542 19.1042 34.4781 18.0052 34.4781 16.7969L34.5094 6.8125C34.5094 5.625 34.7802 4.55208 35.3219 3.59375C35.8635 2.625 36.6083 1.84896 37.5563 1.26562C38.5146 0.671875 39.5771 0.375 40.7438 0.375C41.9313 0.375 42.9885 0.661458 43.9156 1.23438C44.8531 1.80729 45.5979 2.58333 46.15 3.5625C46.7125 4.53125 46.9938 5.61458 46.9938 6.8125V8.28125C46.9938 8.36458 46.9521 8.40625 46.8688 8.40625H43.275C43.1917 8.40625 43.15 8.36458 43.15 8.28125V6.8125C43.15 6.10417 42.9208 5.49479 42.4625 4.98438C42.0042 4.47396 41.4313 4.21875 40.7438 4.21875C39.9833 4.21875 39.4 4.47917 38.9938 5C38.5875 5.52083 38.3844 6.125 38.3844 6.8125V16.7969C38.3844 17.5781 38.6135 18.2188 39.0719 18.7188C39.5302 19.2083 40.0875 19.4531 40.7438 19.4531C41.4313 19.4531 42.0042 19.1823 42.4625 18.6406C42.9208 18.0885 43.15 17.474 43.15 16.7969V15.3125C43.15 15.2292 43.1917 15.1875 43.275 15.1875H46.9C46.9833 15.1875 47.025 15.2292 47.025 15.3125V16.7969C47.025 17.9948 46.7438 19.0885 46.1813 20.0781C45.6083 21.0573 44.8531 21.8438 43.9156 22.4375C42.9781 23.0208 41.9208 23.3125 40.7438 23.3125ZM56.3031 23H52.6781C52.5948 23 52.5531 22.9479 52.5531 22.8438L52.6156 0.890625C52.6156 0.786458 52.6573 0.734375 52.7406 0.734375H56.3344C56.4177 0.734375 56.4594 0.786458 56.4594 0.890625V8.46875L61.475 0.859375C61.5583 0.776042 61.6365 0.734375 61.7094 0.734375H65.3812C65.475 0.734375 65.4958 0.776042 65.4437 0.859375L59.9125 9.6875L66.1156 22.875C66.1677 22.9583 66.1156 23 65.9594 23H62.0531C61.949 23 61.8865 22.9583 61.8656 22.875L57.5375 13.4688L56.4281 15.2188V22.8438C56.4281 22.9479 56.3865 23 56.3031 23ZM69.675 22.8438L73.6438 0.859375C73.6646 0.776042 73.7167 0.734375 73.8 0.734375H78.4406C78.524 0.734375 78.576 0.776042 78.5969 0.859375L82.4094 22.8438C82.4198 22.9479 82.3781 23 82.2844 23H78.7375C78.6333 23 78.576 22.9479 78.5656 22.8438L78.2219 20.5H73.8625L73.5188 22.8438C73.5083 22.9479 73.4563 23 73.3625 23H69.8C69.7167 23 69.675 22.9479 69.675 22.8438ZM75.9406 8.09375L74.5031 17.0781H77.5813L76.2688 8.09375L76.0813 6.90625L75.9406 8.09375ZM92.5 23H88.8906C88.7969 23 88.75 22.9479 88.75 22.8438V4.59375H84.5938C84.4896 4.59375 84.4375 4.54167 84.4375 4.4375L84.4688 0.859375C84.4688 0.776042 84.5104 0.734375 84.5938 0.734375H96.75C96.8646 0.734375 96.9219 0.776042 96.9219 0.859375V4.4375C96.9219 4.54167 96.8802 4.59375 96.7969 4.59375H92.5938L92.625 22.8438C92.625 22.9479 92.5833 23 92.5 23ZM105.434 23H101.809C101.726 23 101.684 22.9479 101.684 22.8438L101.716 0.859375C101.716 0.776042 101.768 0.734375 101.872 0.734375H105.434C105.539 0.734375 105.591 0.776042 105.591 0.859375L105.559 9.5625H110.356V0.859375C110.356 0.776042 110.398 0.734375 110.481 0.734375H114.044C114.148 0.734375 114.2 0.776042 114.2 0.859375L114.262 22.8438C114.262 22.9479 114.21 23 114.106 23H110.512C110.408 23 110.356 22.9479 110.356 22.8438V13.4375H105.559V22.8438C105.559 22.9479 105.518 23 105.434 23ZM125.994 23.3125C124.858 23.3125 123.811 23.0208 122.853 22.4375C121.905 21.8542 121.14 21.0781 120.556 20.1094C119.983 19.1302 119.697 18.0573 119.697 16.8906L119.728 6.75C119.728 5.5625 120.015 4.49479 120.588 3.54688C121.15 2.58854 121.91 1.82292 122.869 1.25C123.827 0.666667 124.869 0.375 125.994 0.375C127.16 0.375 128.207 0.661458 129.134 1.23438C130.072 1.80729 130.822 2.57812 131.384 3.54688C131.957 4.50521 132.244 5.57292 132.244 6.75L132.275 16.8906C132.275 18.0573 131.994 19.125 131.431 20.0938C130.858 21.0729 130.098 21.8542 129.15 22.4375C128.202 23.0208 127.15 23.3125 125.994 23.3125ZM125.994 19.4531C126.64 19.4531 127.202 19.1927 127.681 18.6719C128.16 18.1406 128.4 17.5469 128.4 16.8906L128.369 6.75C128.369 6.04167 128.145 5.44271 127.697 4.95312C127.249 4.46354 126.681 4.21875 125.994 4.21875C125.338 4.21875 124.775 4.45833 124.306 4.9375C123.838 5.41667 123.603 6.02083 123.603 6.75V16.8906C123.603 17.5885 123.838 18.1927 124.306 18.7031C124.775 19.2031 125.338 19.4531 125.994 19.4531ZM141.381 23H138.178C138.011 23 137.928 22.9271 137.928 22.7812L137.897 0.984375C137.897 0.817708 137.98 0.734375 138.147 0.734375H141.038L146.444 13.3438L146.288 0.984375C146.288 0.817708 146.381 0.734375 146.569 0.734375H149.741C149.866 0.734375 149.928 0.817708 149.928 0.984375L149.959 22.8125C149.959 22.9375 149.907 23 149.803 23H146.991L141.444 11.2188L141.678 22.75C141.678 22.9167 141.579 23 141.381 23ZM173.312 23.3125C172.156 23.3125 171.115 23.026 170.188 22.4531C169.25 21.8802 168.495 21.1094 167.922 20.1406C167.359 19.1719 167.078 18.0885 167.078 16.8906V6.75C167.078 5.58333 167.365 4.52083 167.938 3.5625C168.5 2.59375 169.255 1.82292 170.203 1.25C171.151 0.666667 172.188 0.375 173.312 0.375C174.49 0.375 175.552 0.65625 176.5 1.21875C177.448 1.79167 178.198 2.55729 178.75 3.51562C179.312 4.47396 179.594 5.55208 179.594 6.75V8.21875C179.594 8.30208 179.542 8.34375 179.438 8.34375H175.844C175.76 8.34375 175.719 8.30208 175.719 8.21875V7C175.719 6.1875 175.49 5.51562 175.031 4.98438C174.573 4.45312 174 4.1875 173.312 4.1875C172.698 4.1875 172.151 4.44271 171.672 4.95312C171.193 5.46354 170.953 6.0625 170.953 6.75V16.8906C170.953 17.5885 171.188 18.1927 171.656 18.7031C172.125 19.2031 172.677 19.4531 173.312 19.4531C174 19.4531 174.573 19.2083 175.031 18.7188C175.49 18.2188 175.719 17.6094 175.719 16.8906V15.3125H173.484C173.37 15.3125 173.312 15.2604 173.312 15.1562V11.5781C173.312 11.474 173.37 11.4219 173.484 11.4219H179.469C179.552 11.4219 179.594 11.474 179.594 11.5781V16.8906C179.594 18.0885 179.312 19.1719 178.75 20.1406C178.177 21.1094 177.422 21.8802 176.484 22.4531C175.547 23.026 174.49 23.3125 173.312 23.3125ZM195.528 23H185.184C185.101 23 185.059 22.9479 185.059 22.8438L185.091 0.890625C185.091 0.786458 185.143 0.734375 185.247 0.734375H188.809C188.914 0.734375 188.966 0.786458 188.966 0.890625L188.934 19.0625H195.528C195.632 19.0625 195.684 19.1146 195.684 19.2188V22.8438C195.684 22.9479 195.632 23 195.528 23ZM206.9 23.3125C205.765 23.3125 204.718 23.0208 203.759 22.4375C202.811 21.8542 202.046 21.0781 201.462 20.1094C200.89 19.1302 200.603 18.0573 200.603 16.8906L200.634 6.75C200.634 5.5625 200.921 4.49479 201.494 3.54688C202.056 2.58854 202.817 1.82292 203.775 1.25C204.733 0.666667 205.775 0.375 206.9 0.375C208.067 0.375 209.114 0.661458 210.041 1.23438C210.978 1.80729 211.728 2.57812 212.291 3.54688C212.864 4.50521 213.15 5.57292 213.15 6.75L213.181 16.8906C213.181 18.0573 212.9 19.125 212.337 20.0938C211.765 21.0729 211.004 21.8542 210.056 22.4375C209.108 23.0208 208.056 23.3125 206.9 23.3125ZM206.9 19.4531C207.546 19.4531 208.108 19.1927 208.587 18.6719C209.067 18.1406 209.306 17.5469 209.306 16.8906L209.275 6.75C209.275 6.04167 209.051 5.44271 208.603 4.95312C208.155 4.46354 207.587 4.21875 206.9 4.21875C206.244 4.21875 205.681 4.45833 205.212 4.9375C204.744 5.41667 204.509 6.02083 204.509 6.75V16.8906C204.509 17.5885 204.744 18.1927 205.212 18.7031C205.681 19.2031 206.244 19.4531 206.9 19.4531ZM224.663 23H218.928C218.845 23 218.803 22.9479 218.803 22.8438L218.866 0.859375C218.866 0.776042 218.907 0.734375 218.991 0.734375H225.147C226.345 0.734375 227.433 1.02604 228.413 1.60938C229.371 2.19271 230.126 2.96875 230.678 3.9375C231.23 4.89583 231.506 5.9375 231.506 7.0625C231.506 7.97917 231.298 8.83333 230.881 9.625C230.465 10.4167 229.97 11.0573 229.397 11.5469C230.011 12.1615 230.491 12.875 230.834 13.6875C231.178 14.5 231.35 15.3542 231.35 16.25C231.35 17.4896 231.053 18.6198 230.459 19.6406C229.855 20.6615 229.048 21.4792 228.038 22.0938C227.027 22.6979 225.902 23 224.663 23ZM225.147 4.53125H222.709V9.5625H225.147C225.886 9.5625 226.485 9.30208 226.944 8.78125C227.402 8.25 227.631 7.67708 227.631 7.0625C227.631 6.38542 227.386 5.79688 226.897 5.29688C226.407 4.78646 225.824 4.53125 225.147 4.53125ZM224.663 13.4375H222.709L222.678 19.0938H224.663C225.433 19.0938 226.095 18.8125 226.647 18.25C227.199 17.6875 227.475 17.0208 227.475 16.25C227.475 15.4792 227.199 14.8177 226.647 14.2656C226.095 13.7135 225.433 13.4375 224.663 13.4375ZM235.113 22.8438L239.081 0.859375C239.102 0.776042 239.154 0.734375 239.238 0.734375H243.878C243.961 0.734375 244.014 0.776042 244.034 0.859375L247.847 22.8438C247.857 22.9479 247.816 23 247.722 23H244.175C244.071 23 244.014 22.9479 244.003 22.8438L243.659 20.5H239.3L238.956 22.8438C238.946 22.9479 238.894 23 238.8 23H235.238C235.154 23 235.113 22.9479 235.113 22.8438ZM241.378 8.09375L239.941 17.0781H243.019L241.706 8.09375L241.519 6.90625L241.378 8.09375ZM263.516 23H253.172C253.089 23 253.047 22.9479 253.047 22.8438L253.078 0.890625C253.078 0.786458 253.13 0.734375 253.234 0.734375H256.797C256.901 0.734375 256.953 0.786458 256.953 0.890625L256.922 19.0625H263.516C263.62 19.0625 263.672 19.1146 263.672 19.2188V22.8438C263.672 22.9479 263.62 23 263.516 23Z" fill="white"/>
</svg>
